{
.appVersion = "983";
DisplayStrings = (
h/hbar/hcircumflex
);
copyright = "Vernon Adams";
customParameters = (
{
name = license;
value = "This Font Software is licensed under the SIL Open Font License, Version 1.1. This license is available with a FAQ at: http://scripts.sil.org/OFL";
},
{
name = licenseURL;
value = "http://scripts.sil.org/OFL";
},
{
name = fsType;
value = (
);
},
{
name = "Disable Last Change";
value = 1;
},
{
name = "Use Line Breaks";
value = 1;
}
);
date = "2017-06-04 21:19:05 +0000";
designer = "Vernon Adams";
designerURL = "http://newtypography.co.uk";
disablesAutomaticAlignment = 1;
disablesNiceNames = 1;
familyName = "Trocchi v.1.2.7";
featurePrefixes = (
{
automatic = 1;
code = "languagesystem DFLT dflt;
languagesystem grek dflt;
languagesystem latn dflt;
languagesystem latn CAT;
";
name = Languagesystems;
}
);
features = (
{
code = "sub period period period by ellipsis;
sub one slash two by onehalf;
sub one slash four by onequarter;
sub three slash four by threequarters;
sub f f i by f_f_i;
sub f f l by f_f_l;
sub f f by f_f;
sub f i by fi;
sub f j by f_j;
sub f l by fl;
script grek;
sub period period period by ellipsis;
sub one slash two by onehalf;
sub one slash four by onequarter;
sub three slash four by threequarters;
sub f f i by f_f_i;
sub f f l by f_f_l;
sub f f by f_f;
sub f i by fi;
sub f j by f_j;
sub f l by fl;
script latn;
sub period period period by ellipsis;
sub one slash two by onehalf;
sub one slash four by onequarter;
sub three slash four by threequarters;
sub f f i by f_f_i;
sub f f l by f_f_l;
sub f f by f_f;
sub f i by fi;
sub f j by f_j;
sub f l by fl;
";
name = liga;
},
{
code = "sub c h by c_h;
sub c k by c_k;
sub s h by s_h;
sub t t by t_t;
script grek;
sub c h by c_h;
sub c k by c_k;
sub s h by s_h;
sub t t by t_t;
script latn;
sub c h by c_h;
sub c k by c_k;
sub s h by s_h;
sub t t by t_t;
";
name = dlig;
},
{
automatic = 1;
code = "feature locl;
feature sups;
feature frac;
feature ordn;
feature ss01;

glyphs = (
{
color = 4;
glyphname = A;
layers = (
{
guideLines = (
{
angle = -110;
position = "{221, 246}";
},
{
angle = 110.6787;
position = "{566, 403}";
},
{
angle = 110.6787;
position = "{440, 403}";
},
{
angle = 90;
position = "{358, 621}";
}
);
layerId = "EE746D13-63D7-48F9-B77E-C723CA6A668B";
paths = (
{
closed = 1;
nodes = (
"280 0 LINE",
"280 70 LINE",
"157 70 LINE",
"221 246 LINE",
"499 246 LINE",
"566 70 LINE",
"457 70 LINE",
"457 0 LINE",
"773 0 LINE",
"773 70 LINE",
"691 70 LINE",
"440 735 LINE",
"336 735 LINE",
"74 70 LINE",
"-14 70 LINE",
"-14 0 LINE"
);
},
{
closed = 1;
nodes = (
"358 621 LINE",
"476 308 LINE",
"244 308 LINE"
);
}
);
width = 750;
}
);
leftKerningGroup = A;
note = A;
rightKerningGroup = A;
unicode = 0041;
},
{
color = 4;
glyphname = AE;
layers = (
{
guideLines = (
{
angle = 239.9083;
position = "{359, 360}";
}
);
layerId = "EE746D13-63D7-48F9-B77E-C723CA6A668B";
paths = (
{
closed = 1;
nodes = (
"310 0 LINE",
"310 67 LINE",
"189 67 LINE",
"295 249 LINE",
"525 249 LINE",
"525 67 LINE",
"435 67 LINE",
"435 0 LINE",
"1058 0 LINE",
"1058 279 LINE",
"970 279 LINE",
"970 67 LINE",
"631 67 LINE",
"631 341 LINE",
"794 341 LINE",
"794 214 LINE",
"859 214 LINE",
"859 517 LINE",
"794 517 LINE",
"794 397 LINE",
"631 397 LINE",
"631 652 LINE",
"970 652 LINE",
"970 439 LINE",
"1058 439 LINE",
"1058 722 LINE",
"305 722 LINE",
"305 652 LINE",
"435 652 LINE",
"96 67 LINE",
"8 67 LINE",
"8 0 LINE"
);
},
{
closed = 1;
nodes = (
"525 646 LINE",
"525 308 LINE",
"329 308 LINE"
);
}
);
width = 1142;
}
);
leftMetricsKey = X;
note = AE;
rightMetricsKey = E;
unicode = 00C6;
},
{
color = 4;
glyphname = B;
layers = (
{
layerId = "EE746D13-63D7-48F9-B77E-C723CA6A668B";
paths = (
{
closed = 1;
nodes = (
"325 0 LINE SMOOTH",
"507 0 OFFCURVE",
"656 44 OFFCURVE",
"656 210 CURVE SMOOTH",
"656 302 OFFCURVE",
"594 368 OFFCURVE",
"482 395 CURVE",
"570 423 OFFCURVE",
"617 483 OFFCURVE",
"617 546 CURVE SMOOTH",
"617 684 OFFCURVE",
"506 735 OFFCURVE",
"341 735 CURVE SMOOTH",
"32 735 LINE",
"32 665 LINE",
"151 665 LINE",
"151 70 LINE",
"32 70 LINE",
"32 0 LINE"
);
},
{
closed = 1;
nodes = (
"266 356 LINE",
"342 356 LINE SMOOTH",
"445 356 OFFCURVE",
"541 316 OFFCURVE",
"541 213 CURVE SMOOTH",
"541 92 OFFCURVE",
"456 70 OFFCURVE",
"294 70 CURVE SMOOTH",
"266 70 LINE"
);
},
{
closed = 1;
nodes = (
"266 665 LINE",
"285 665 LINE SMOOTH",
"410 665 OFFCURVE",
"511 657 OFFCURVE",
"511 543 CURVE SMOOTH",
"511 457 OFFCURVE",
"430 421 OFFCURVE",
"342 421 CURVE SMOOTH",
"266 421 LINE"
);
}
);
width = 692;
}
);
leftMetricsKey = H;
note = B;
rightKerningGroup = B;
unicode = 0042;
},
{
color = 4;
glyphname = C;
layers = (
{
background = {
paths = (
{
closed = 1;
nodes = (
"471 -13 OFFCURVE",
"512 -6 OFFCURVE",
"551 9 CURVE SMOOTH",
"627 38 OFFCURVE",
"679 87 OFFCURVE",
"717 153 CURVE SMOOTH",
"754 218 OFFCURVE",
"772 292 OFFCURVE",
"772 368 CURVE SMOOTH",
"772 406 OFFCURVE",
"767 443 OFFCURVE",
"759 480 CURVE SMOOTH",
"741 552 OFFCURVE",
"702 620 OFFCURVE",
"648 669 CURVE SMOOTH",
"595 719 OFFCURVE",
"516 750 OFFCURVE",
"425 750 CURVE SMOOTH",
"380 750 OFFCURVE",
"338 743 OFFCURVE",
"300 729 CURVE SMOOTH",
"223 699 OFFCURVE",
"171 649 OFFCURVE",
"133 583 CURVE SMOOTH",
"96 518 OFFCURVE",
"78 444 OFFCURVE",
"78 368 CURVE SMOOTH",
"78 330 OFFCURVE",
"82 293 OFFCURVE",
"92 256 CURVE SMOOTH",
"109 184 OFFCURVE",
"148 116 OFFCURVE",
"202 67 CURVE SMOOTH",
"256 18 OFFCURVE",
"335 -13 OFFCURVE",
"425 -13 CURVE SMOOTH"
);
},
{
closed = 1;
nodes = (
"397 55 OFFCURVE",
"371 61 OFFCURVE",
"347 73 CURVE SMOOTH",
"298 96 OFFCURVE",
"265 137 OFFCURVE",
"240 190 CURVE SMOOTH",
"215 244 OFFCURVE",
"203 305 OFFCURVE",
"203 369 CURVE SMOOTH",
"203 449 OFFCURVE",
"223 525 OFFCURVE",
"260 584 CURVE SMOOTH",
"296 643 OFFCURVE",
"355 682 OFFCURVE",
"425 682 CURVE SMOOTH",
"453 682 OFFCURVE",
"479 676 OFFCURVE",
"503 664 CURVE SMOOTH",
"552 640 OFFCURVE",
"585 598 OFFCURVE",
"610 545 CURVE SMOOTH",
"635 492 OFFCURVE",
"647 430 OFFCURVE",
"647 367 CURVE SMOOTH",
"647 288 OFFCURVE",
"627 211 OFFCURVE",
"591 153 CURVE SMOOTH",
"555 94 OFFCURVE",
"495 55 OFFCURVE",
"425 55 CURVE SMOOTH"
);
}
);
};
guideLines = (
{
angle = 90;
position = "{308, 685}";
},
{
angle = 90;
position = "{425, 642}";
},
{
position = "{654, 239}";
},
{
angle = 76.569;
position = "{721, 239}";
},
{
angle = 166.569;
position = "{688, 247}";
},
{
angle = 76.569;
position = "{638, 259}";
}
);
layerId = "EE746D13-63D7-48F9-B77E-C723CA6A668B";
paths = (
{
closed = 1;
nodes = (
"567 -13 OFFCURVE",
"683 78 OFFCURVE",
"721 239 CURVE",
"638 259 LINE",
"611 148 OFFCURVE",
"534 70 OFFCURVE",
"415 70 CURVE SMOOTH",
"258 70 OFFCURVE",
"173 192 OFFCURVE",
"173 373 CURVE SMOOTH",
"173 558 OFFCURVE",
"270 678 OFFCURVE",
"431 678 CURVE SMOOTH",
"538 678 OFFCURVE",
"598 623 OFFCURVE",
"615 584 CURVE",
"571 584 OFFCURVE",
"533 556 OFFCURVE",
"533 506 CURVE SMOOTH",
"533 456 OFFCURVE",
"567 425 OFFCURVE",
"616 425 CURVE SMOOTH",
"674 425 OFFCURVE",
"712 469 OFFCURVE",
"712 524 CURVE SMOOTH",
"712 655 OFFCURVE",
"577 750 OFFCURVE",
"421 750 CURVE SMOOTH",
"181 750 OFFCURVE",
"48 576 OFFCURVE",
"48 368 CURVE SMOOTH",
"48 161 OFFCURVE",
"183 -13 OFFCURVE",
"405 -13 CURVE SMOOTH"
);
}
);
width = 765;
}
);
leftMetricsKey = O;
unicode = 0043;
},
{
color = 4;
glyphname = D;
layers = (
{
background = {
paths = (
{
closed = 1;
nodes = (
"271 0 LINE SMOOTH",
"327 0 OFFCURVE",
"379 4 OFFCURVE",
"426 13 CURVE SMOOTH",
"520 31 OFFCURVE",
"601 69 OFFCURVE",
"656 126 CURVE SMOOTH",
"710 184 OFFCURVE",
"741 268 OFFCURVE",
"741 372 CURVE SMOOTH",
"741 427 OFFCURVE",
"732 477 OFFCURVE",
"714 520 CURVE SMOOTH",
"677 605 OFFCURVE",
"618 655 OFFCURVE",
"532 689 CURVE SMOOTH",
"446 724 OFFCURVE",
"358 735 OFFCURVE",
"253 735 CURVE SMOOTH",
"32 735 LINE",
"32 665 LINE",
"151 665 LINE",
"151 70 LINE",
"32 70 LINE",
"32 0 LINE"
);
},
{
closed = 1;
nodes = (
"266 664 LINE",
"294 664 OFFCURVE",
"319 663 OFFCURVE",
"343 661 CURVE SMOOTH",
"390 657 OFFCURVE",
"441 646 OFFCURVE",
"480 627 CURVE SMOOTH",
"519 609 OFFCURVE",
"556 579 OFFCURVE",
"579 539 CURVE SMOOTH",
"602 499 OFFCURVE",
"616 441 OFFCURVE",
"616 372 CURVE SMOOTH",
"616 326 OFFCURVE",
"610 285 OFFCURVE",
"598 250 CURVE SMOOTH",
"574 180 OFFCURVE",
"534 137 OFFCURVE",
"473 108 CURVE SMOOTH",
"412 80 OFFCURVE",
"348 70 OFFCURVE",
"266 70 CURVE"
);
}
);
};
guideLines = (
{
angle = 90;
position = "{398, 375}";
}
);
layerId = "EE746D13-63D7-48F9-B77E-C723CA6A668B";
paths = (
{
closed = 1;
nodes = (
"299 0 LINE SMOOTH",
"577 0 OFFCURVE",
"764 111 OFFCURVE",
"764 372 CURVE SMOOTH",
"764 637 OFFCURVE",
"558 735 OFFCURVE",
"299 735 CURVE SMOOTH",
"32 735 LINE",
"32 665 LINE",
"151 665 LINE",
"151 70 LINE",
"32 70 LINE",
"32 0 LINE"
);
},
{
closed = 1;
nodes = (
"266 664 LINE",
"299 664 LINE",
"512 664 OFFCURVE",
"644 593 OFFCURVE",
"644 372 CURVE SMOOTH",
"644 156 OFFCURVE",
"511 70 OFFCURVE",
"299 70 CURVE",
"300 70 OFFCURVE",
"266 70 OFFCURVE",
"266 70 CURVE"
);
}
);
width = 812;
}
);
leftMetricsKey = H;
note = D;
rightKerningGroup = D;
rightMetricsKey = O;
unicode = 0044;
},
{
color = 4;
glyphname = Eth;
layers = (
{
layerId = "EE746D13-63D7-48F9-B77E-C723CA6A668B";
paths = (
{
closed = 1;
nodes = (
"51 735 LINE",
"51 665 LINE",
"170 665 LINE",
"170 407 LINE",
"51 407 LINE",
"51 337 LINE",
"170 337 LINE",
"170 70 LINE",
"51 70 LINE",
"51 0 LINE",
"318 0 LINE SMOOTH",
"596 0 OFFCURVE",
"783 111 OFFCURVE",
"783 372 CURVE SMOOTH",
"783 637 OFFCURVE",
"577 735 OFFCURVE",
"318 735 CURVE SMOOTH"
);
},
{
closed = 1;
nodes = (
"285 70 LINE",
"285 337 LINE",
"431 337 LINE",
"431 407 LINE",
"285 407 LINE",
"285 664 LINE",
"318 664 LINE SMOOTH",
"531 664 OFFCURVE",
"663 593 OFFCURVE",
"663 372 CURVE SMOOTH",
"663 156 OFFCURVE",
"530 70 OFFCURVE",
"318 70 CURVE SMOOTH"
);
}
);
width = 831;
}
);
leftMetricsKey = "=D*1.6";
note = Eth;
rightKerningGroup = D;
rightMetricsKey = D;
unicode = 00D0;
},
{
color = 4;
glyphname = Dcroat;
layers = (
{
layerId = "EE746D13-63D7-48F9-B77E-C723CA6A668B";
paths = (
{
closed = 1;
nodes = (
"51 735 LINE",
"51 665 LINE",
"170 665 LINE",
"170 407 LINE",
"51 407 LINE",
"51 337 LINE",
"170 337 LINE",
"170 70 LINE",
"51 70 LINE",
"51 0 LINE",
"318 0 LINE SMOOTH",
"596 0 OFFCURVE",
"783 111 OFFCURVE",
"783 372 CURVE SMOOTH",
"783 637 OFFCURVE",
"577 735 OFFCURVE",
"318 735 CURVE SMOOTH"
);
},
{
closed = 1;
nodes = (
"285 70 LINE",
"285 337 LINE",
"431 337 LINE",
"431 407 LINE",
"285 407 LINE",
"285 664 LINE",
"318 664 LINE SMOOTH",
"531 664 OFFCURVE",
"663 593 OFFCURVE",
"663 372 CURVE SMOOTH",
"663 156 OFFCURVE",
"530 70 OFFCURVE",
"318 70 CURVE SMOOTH"
);
}
);
width = 831;
}
);
leftMetricsKey = "=D*1.6";
note = Dcroat;
rightKerningGroup = D;
rightMetricsKey = D;
unicode = 0110;
},
{
color = 4;
glyphname = E;
layers = (
{
guideLines = (
{
angle = 90;
position = "{363, 735}";
}
);
layerId = "EE746D13-63D7-48F9-B77E-C723CA6A668B";
paths = (
{
closed = 1;
nodes = (
"693 0 LINE",
"693 279 LINE",
"605 279 LINE",
"605 70 LINE",
"266 70 LINE",
"266 345 LINE",
"429 345 LINE",
"429 218 LINE",
"494 218 LINE",
"494 521 LINE",
"429 521 LINE",
"429 401 LINE",
"266 401 LINE",
"266 665 LINE",
"605 665 LINE",
"605 452 LINE",
"693 452 LINE",
"693 735 LINE",
"32 735 LINE",
"32 665 LINE",
"151 665 LINE",
"151 70 LINE",
"32 70 LINE",
"32 0 LINE"
);
}
);
width = 777;
}
);
leftMetricsKey = H;
note = E;
unicode = 0045;
},
{
color = 4;
glyphname = F;
layers = (
{
layerId = "EE746D13-63D7-48F9-B77E-C723CA6A668B";
paths = (
{
closed = 1;
nodes = (
"393 0 LINE",
"393 70 LINE",
"266 70 LINE",
"266 354 LINE",
"412 354 LINE",
"412 230 LINE",
"479 230 LINE",
"479 515 LINE",
"412 515 LINE",
"412 412 LINE",
"266 412 LINE",
"266 665 LINE",
"568 665 LINE",
"568 467 LINE",
"657 467 LINE",
"657 735 LINE",
"32 735 LINE",
"32 665 LINE",
"151 665 LINE",
"151 70 LINE",
"32 70 LINE",
"32 0 LINE"
);
}
);
width = 711;
}
);
leftMetricsKey = H;
note = F;
rightKerningGroup = F;
unicode = 0046;
},
{
color = 4;
glyphname = G;
layers = (
{
guideLines = (
{
angle = 90;
position = "{616, 395}";
},
{
angle = 103.1164;
position = "{650, 0}";
}
);
layerId = "EE746D13-63D7-48F9-B77E-C723CA6A668B";
paths = (
{
closed = 1;
nodes = (
"471 256 LINE",
"609 256 LINE",
"609 206 LINE SMOOTH",
"609 151 OFFCURVE",
"534 70 OFFCURVE",
"415 70 CURVE SMOOTH",
"258 70 OFFCURVE",
"173 182 OFFCURVE",
"173 373 CURVE SMOOTH",
"173 568 OFFCURVE",
"280 678 OFFCURVE",
"431 678 CURVE SMOOTH",
"528 678 OFFCURVE",
"598 633 OFFCURVE",
"620 594 CURVE",
"581 594 OFFCURVE",
"543 566 OFFCURVE",
"543 516 CURVE SMOOTH",
"543 466 OFFCURVE",
"577 435 OFFCURVE",
"629 435 CURVE SMOOTH",
"684 435 OFFCURVE",
"722 479 OFFCURVE",
"722 534 CURVE SMOOTH",
"722 645 OFFCURVE",
"587 750 OFFCURVE",
"421 750 CURVE SMOOTH",
"191 750 OFFCURVE",
"48 586 OFFCURVE",
"48 368 CURVE SMOOTH",
"48 151 OFFCURVE",
"173 -13 OFFCURVE",
"395 -13 CURVE SMOOTH",
"534 -13 OFFCURVE",
"609 59 OFFCURVE",
"631 80 CURVE",
"650 0 LINE",
"709 0 LINE",
"709 256 LINE",
"789 256 LINE",
"789 330 LINE",
"471 330 LINE"
);
}
);
width = 821;
}
);
leftKerningGroup = C;
leftMetricsKey = O;
note = G;
unicode = 0047;
},
{
color = 4;
glyphname = H;
layers = (
{
guideLines = (
{
angle = 90;
position = "{438, 700}";
}
);
layerId = "EE746D13-63D7-48F9-B77E-C723CA6A668B";
paths = (
{
closed = 1;
nodes = (
"378 0 LINE",
"378 70 LINE",
"266 70 LINE",
"266 354 LINE",
"611 354 LINE",
"611 70 LINE",
"498 70 LINE",
"498 0 LINE",
"845 0 LINE",
"845 70 LINE",
"726 70 LINE",
"726 665 LINE",
"845 665 LINE",
"845 735 LINE",
"498 735 LINE",
"498 665 LINE",
"611 665 LINE",
"611 416 LINE",
"266 416 LINE",
"266 665 LINE",
"378 665 LINE",
"378 735 LINE",
"32 735 LINE",
"32 665 LINE",
"151 665 LINE",
"151 70 LINE",
"32 70 LINE",
"32 0 LINE"
);
}
);
width = 877;
}
);
note = H;
rightKerningGroup = H;
unicode = 0048;
},
{
color = 4;
glyphname = Hbar;
layers = (
{
layerId = "EE746D13-63D7-48F9-B77E-C723CA6A668B";
paths = (
{
closed = 1;
nodes = (
"378 0 LINE",
"378 67 LINE",
"266 67 LINE",
"266 354 LINE",
"611 354 LINE",
"611 67 LINE",
"498 67 LINE",
"498 0 LINE",
"845 0 LINE",
"845 67 LINE",
"726 67 LINE",
"726 512 LINE",
"845 512 LINE",
"845 569 LINE",
"726 569 LINE",
"726 665 LINE",
"845 665 LINE",
"845 735 LINE",
"498 735 LINE",
"498 665 LINE",
"611 665 LINE",
"611 569 LINE",
"266 569 LINE",
"266 665 LINE",
"378 665 LINE",
"378 735 LINE",
"32 735 LINE",
"32 665 LINE",
"151 665 LINE",
"151 569 LINE",
"32 569 LINE",
"32 512 LINE",
"151 512 LINE",
"151 67 LINE",
"32 67 LINE",
"32 0 LINE"
);
},
{
closed = 1;
nodes = (
"266 512 LINE",
"611 512 LINE",
"611 416 LINE",
"266 416 LINE"
);
}
);
width = 877;
}
);
leftMetricsKey = H;
note = Hbar;
rightKerningGroup = H;
rightMetricsKey = H;
unicode = 0126;
},
{
color = 4;
glyphname = I;
layers = (
{
guideLines = (
{
angle = 90;
position = "{226, 368}";
}
);
layerId = "EE746D13-63D7-48F9-B77E-C723CA6A668B";
paths = (
{
closed = 1;
nodes = (
"408 0 LINE",
"408 70 LINE",
"283 70 LINE",
"283 665 LINE",
"408 665 LINE",
"408 735 LINE",
"43 735 LINE",
"43 665 LINE",
"168 665 LINE",
"168 70 LINE",
"43 70 LINE",
"43 0 LINE"
);
}
);
width = 451;
}
);
note = I;
unicode = 0049;
},
{
color = 4;
glyphname = J;
layers = (
{
guideLines = (
{
angle = 90;
position = "{344, 344}";
}
);
layerId = "EE746D13-63D7-48F9-B77E-C723CA6A668B";
paths = (
{
closed = 1;
nodes = (
"339 -228 OFFCURVE",
"399 -135 OFFCURVE",
"399 35 CURVE SMOOTH",
"399 665 LINE",
"530 665 LINE",
"530 735 LINE",
"138 735 LINE",
"138 665 LINE",
"289 665 LINE",
"289 22 LINE SMOOTH",
"289 -92 OFFCURVE",
"277 -173 OFFCURVE",
"174 -173 CURVE SMOOTH",
"143 -173 OFFCURVE",
"96 -161 OFFCURVE",
"84 -143 CURVE",
"111 -127 OFFCURVE",
"138 -96 OFFCURVE",
"138 -61 CURVE SMOOTH",
"138 -14 OFFCURVE",
"100 17 OFFCURVE",
"57 17 CURVE SMOOTH",
"12 17 OFFCURVE",
"-26 -15 OFFCURVE",
"-26 -70 CURVE SMOOTH",
"-26 -157 OFFCURVE",
"58 -228 OFFCURVE",
"177 -228 CURVE SMOOTH"
);
}
);
width = 530;
}
);
note = J;
rightKerningGroup = J;
unicode = 004A;
},
{
color = 4;
glyphname = J.alt;
layers = (
{
layerId = "EE746D13-63D7-48F9-B77E-C723CA6A668B";
paths = (
{
closed = 1;
nodes = (
"339 -13 OFFCURVE",
"399 80 OFFCURVE",
"399 250 CURVE SMOOTH",
"399 665 LINE",
"530 665 LINE",
"530 735 LINE",
"138 735 LINE",
"138 665 LINE",
"289 665 LINE",
"289 237 LINE SMOOTH",
"289 123 OFFCURVE",
"277 42 OFFCURVE",
"174 42 CURVE SMOOTH",
"143 42 OFFCURVE",
"96 54 OFFCURVE",
"84 72 CURVE",
"111 88 OFFCURVE",
"138 119 OFFCURVE",
"138 154 CURVE SMOOTH",
"138 201 OFFCURVE",
"100 232 OFFCURVE",
"57 232 CURVE SMOOTH",
"12 232 OFFCURVE",
"-26 200 OFFCURVE",
"-26 145 CURVE SMOOTH",
"-26 58 OFFCURVE",
"58 -13 OFFCURVE",
"177 -13 CURVE SMOOTH"
);
}
);
width = 530;
}
);
},
{
color = 4;
glyphname = K;
layers = (
{
guideLines = (
{
angle = 42.8789;
position = "{434, 509}";
},
{
angle = 42.8789;
position = "{527, 509}";
},
{
angle = 128.7351;
position = "{572, 70}";
},
{
angle = 128.7351;
position = "{596, 209}";
}
);
layerId = "EE746D13-63D7-48F9-B77E-C723CA6A668B";
paths = (
{
closed = 1;
nodes = (
"369 0 LINE",
"369 70 LINE",
"266 70 LINE",
"266 267 LINE",
"351 346 LINE",
"572 70 LINE",
"463 70 LINE",
"463 0 LINE",
"803 0 LINE",
"803 70 LINE",
"707 70 LINE",
"429 418 LINE",
"695 665 LINE",
"797 665 LINE",
"797 735 LINE",
"478 735 LINE",
"478 665 LINE",
"590 665 LINE",
"266 359 LINE",
"266 665 LINE",
"369 665 LINE",
"369 735 LINE",
"32 735 LINE",
"32 665 LINE",
"151 665 LINE",
"151 70 LINE",
"32 70 LINE",
"32 0 LINE"
);
}
);
width = 812;
}
);
leftMetricsKey = H;
note = K;
rightKerningGroup = K;
unicode = 004B;
},
{
color = 4;
glyphname = L;
layers = (
{
layerId = "EE746D13-63D7-48F9-B77E-C723CA6A668B";
paths = (
{
closed = 1;
nodes = (
"650 0 LINE",
"650 305 LINE",
"559 305 LINE",
"559 70 LINE",
"266 70 LINE",
"266 665 LINE",
"378 665 LINE",
"378 735 LINE",
"32 735 LINE",
"32 665 LINE",
"151 665 LINE",
"151 70 LINE",
"32 70 LINE",
"32 0 LINE"
);
}
);
width = 686;
}
);
leftMetricsKey = H;
note = L;
rightKerningGroup = L;
unicode = 004C;
},
{
color = 4;
glyphname = Lslash;
layers = (
{
layerId = "EE746D13-63D7-48F9-B77E-C723CA6A668B";
paths = (
{
closed = 1;
nodes = (
"643 0 LINE",
"643 305 LINE",
"552 305 LINE",
"552 67 LINE",
"276 67 LINE",
"276 401 LINE",
"380 452 LINE",
"380 524 LINE",
"276 473 LINE",
"276 665 LINE",
"388 665 LINE",
"388 735 LINE",
"42 735 LINE",
"42 665 LINE",
"161 665 LINE",
"161 417 LINE",
"56 365 LINE",
"56 292 LINE",
"161 344 LINE",
"161 67 LINE",
"42 67 LINE",
"42 0 LINE"
);
}
);
width = 679;
}
);
leftMetricsKey = "=L*1.3";
note = Lslash;
rightKerningGroup = L;
rightMetricsKey = L;
unicode = 0141;
},
{
color = 4;
glyphname = M;
layers = (
{
guideLines = (
{
position = "{495, 106}";
},
{
angle = 64.9228;
position = "{647, 501}";
},
{
angle = 64.9228;
position = "{730, 501}";
},
{
angle = 113.9625;
position = "{433, 501}";
},
{
angle = 113.9625;
position = "{313, 501}";
},
{
position = "{97, 665}";
}
);
layerId = "EE746D13-63D7-48F9-B77E-C723CA6A668B";
paths = (
{
closed = 1;
nodes = (
"361 0 LINE",
"361 70 LINE",
"238 70 LINE",
"238 665 LINE",
"240 665 LINE",
"489 106 LINE",
"545 106 LINE",
"802 655 LINE",
"802 70 LINE",
"695 70 LINE",
"695 0 LINE",
"1038 0 LINE",
"1038 70 LINE",
"917 70 LINE",
"917 665 LINE",
"1031 665 LINE",
"1031 735 LINE",
"840 735 LINE",
"756 735 LINE",
"537 267 LINE",
"329 735 LINE",
"209 735 LINE",
"39 735 LINE",
"39 665 LINE",
"155 665 LINE",
"155 70 LINE",
"48 70 LINE",
"48 0 LINE"
);
}
);
width = 1075;
}
);
note = M;
rightKerningGroup = H;
unicode = 004D;
},
{
color = 4;
glyphname = N;
layers = (
{
guideLines = (
{
angle = 121.1028;
position = "{476, 433}";
},
{
angle = 121.1028;
position = "{360, 433}";
},
{
angle = 90;
position = "{446, 368}";
}
);
layerId = "EE746D13-63D7-48F9-B77E-C723CA6A668B";
paths = (
{
closed = 1;
nodes = (
"352 0 LINE",
"352 70 LINE",
"240 70 LINE",
"240 631 LINE",
"606 0 LINE",
"741 0 LINE",
"741 665 LINE",
"853 665 LINE",
"853 735 LINE",
"539 735 LINE",
"539 665 LINE",
"658 665 LINE",
"658 130 LINE",
"308 735 LINE",
"178 735 LINE",
"39 735 LINE",
"39 665 LINE",
"157 665 LINE",
"157 70 LINE",
"39 70 LINE",
"39 0 LINE"
);
}
);
width = 880;
}
);
leftMetricsKey = M;
note = N;
rightKerningGroup = H;
unicode = 004E;
},
{
color = 4;
glyphname = O;
layers = (
{
guideLines = (
{
angle = 90;
position = "{402, 369}";
}
);
layerId = "EE746D13-63D7-48F9-B77E-C723CA6A668B";
paths = (
{
closed = 1;
nodes = (
"623 -13 OFFCURVE",
"756 153 OFFCURVE",
"756 369 CURVE SMOOTH",
"756 585 OFFCURVE",
"623 750 OFFCURVE",
"402 750 CURVE SMOOTH",
"181 750 OFFCURVE",
"48 585 OFFCURVE",
"48 369 CURVE SMOOTH",
"48 153 OFFCURVE",
"181 -13 OFFCURVE",
"402 -13 CURVE SMOOTH"
);
},
{
closed = 1;
nodes = (
"253 57 OFFCURVE",
"173 215 OFFCURVE",
"173 369 CURVE SMOOTH",
"173 523 OFFCURVE",
"253 680 OFFCURVE",
"402 680 CURVE SMOOTH",
"547 680 OFFCURVE",
"631 523 OFFCURVE",
"631 369 CURVE SMOOTH",
"631 215 OFFCURVE",
"555 57 OFFCURVE",
"402 57 CURVE SMOOTH"
);
}
);
width = 804;
}
);
leftKerningGroup = O;
note = O;
rightKerningGroup = O;
unicode = 004F;
},
{
color = 4;
glyphname = Oslash;
layers = (
{
guideLines = (
{
angle = 49.757;
position = "{389, 366}";
},
{
angle = 49.757;
position = "{421, 340}";
},
{
angle = 90;
position = "{416, 369}";
},
{
angle = 140.9061;
position = "{730, 737}";
}
);
layerId = "EE746D13-63D7-48F9-B77E-C723CA6A668B";
paths = (
{
closed = 1;
nodes = (
"750 724 LINE",
"706 760 LINE",
"81 22 LINE",
"125 -14 LINE"
);
},
{
closed = 1;
nodes = (
"637 -13 OFFCURVE",
"770 153 OFFCURVE",
"770 369 CURVE SMOOTH",
"770 585 OFFCURVE",
"637 750 OFFCURVE",
"416 750 CURVE SMOOTH",
"195 750 OFFCURVE",
"62 585 OFFCURVE",
"62 369 CURVE SMOOTH",
"62 153 OFFCURVE",
"195 -13 OFFCURVE",
"416 -13 CURVE SMOOTH"
);
},
{
closed = 1;
nodes = (
"267 57 OFFCURVE",
"187 215 OFFCURVE",
"187 369 CURVE SMOOTH",
"187 523 OFFCURVE",
"267 680 OFFCURVE",
"416 680 CURVE SMOOTH",
"561 680 OFFCURVE",
"645 523 OFFCURVE",
"645 369 CURVE SMOOTH",
"645 215 OFFCURVE",
"569 57 OFFCURVE",
"416 57 CURVE SMOOTH"
);
}
);
width = 832;
}
);
leftKerningGroup = C;
leftMetricsKey = "=O*1.3";
note = Oslash;
rightKerningGroup = D;
rightMetricsKey = "=O*1.3";
unicode = 00D8;
},
{
color = 4;
glyphname = OE;
layers = (
{
layerId = "EE746D13-63D7-48F9-B77E-C723CA6A668B";
paths = (
{
closed = 1;
nodes = (
"1053 0 LINE",
"1053 279 LINE",
"965 279 LINE",
"965 67 LINE",
"626 67 LINE",
"626 341 LINE",
"789 341 LINE",
"789 214 LINE",
"854 214 LINE",
"854 517 LINE",
"789 517 LINE",
"789 397 LINE",
"626 397 LINE",
"626 652 LINE",
"965 652 LINE",
"965 439 LINE",
"1053 439 LINE",
"1053 722 LINE",
"384 722 LINE SMOOTH",
"186 722 OFFCURVE",
"48 573 OFFCURVE",
"48 362 CURVE SMOOTH",
"48 154 OFFCURVE",
"182 0 OFFCURVE",
"382 0 CURVE SMOOTH"
);
},
{
closed = 1;
nodes = (
"264 67 OFFCURVE",
"173 181 OFFCURVE",
"173 363 CURVE SMOOTH",
"173 527 OFFCURVE",
"252 652 OFFCURVE",
"400 652 CURVE SMOOTH",
"516 652 LINE",
"516 67 LINE",
"385 67 LINE SMOOTH"
);
}
);
width = 1137;
}
);
leftKerningGroup = C;
leftMetricsKey = O;
note = OE;
rightMetricsKey = E;
unicode = 0152;
},
{
color = 4;
glyphname = P;
layers = (
{
guideLines = (
{
angle = 90;
position = "{332, 700}";
}
);
layerId = "EE746D13-63D7-48F9-B77E-C723CA6A668B";
paths = (
{
closed = 1;
nodes = (
"388 0 LINE",
"388 70 LINE",
"266 70 LINE",
"266 309 LINE",
"342 309 LINE SMOOTH",
"508 309 OFFCURVE",
"658 364 OFFCURVE",
"658 523 CURVE SMOOTH",
"658 681 OFFCURVE",
"541 735 OFFCURVE",
"382 735 CURVE SMOOTH",
"32 735 LINE",
"32 665 LINE",
"151 665 LINE",
"151 70 LINE",
"32 70 LINE",
"32 0 LINE"
);
},
{
closed = 1;
nodes = (
"266 665 LINE",
"352 665 LINE SMOOTH",
"471 665 OFFCURVE",
"540 628 OFFCURVE",
"540 519 CURVE SMOOTH",
"540 426 OFFCURVE",
"461 373 OFFCURVE",
"342 373 CURVE SMOOTH",
"266 373 LINE"
);
}
);
width = 691;
}
);
leftMetricsKey = H;
note = P;
rightKerningGroup = P;
unicode = 0050;
},
{
color = 4;
glyphname = Thorn;
layers = (
{
layerId = "EE746D13-63D7-48F9-B77E-C723CA6A668B";
paths = (
{
closed = 1;
nodes = (
"388 0 LINE",
"388 67 LINE",
"266 67 LINE",
"266 184 LINE",
"305 184 LINE SMOOTH",
"336 184 OFFCURVE",
"360 184 OFFCURVE",
"378 185 CURVE SMOOTH",
"414 185 OFFCURVE",
"482 190 OFFCURVE",
"515 200 CURVE SMOOTH",
"548 209 OFFCURVE",
"596 229 OFFCURVE",
"618 256 CURVE SMOOTH",
"640 283 OFFCURVE",
"658 325 OFFCURVE",
"658 378 CURVE SMOOTH",
"658 398 OFFCURVE",
"656 417 OFFCURVE",
"650 435 CURVE SMOOTH",
"640 469 OFFCURVE",
"626 493 OFFCURVE",
"600 513 CURVE SMOOTH",
"573 532 OFFCURVE",
"552 544 OFFCURVE",
"516 553 CURVE SMOOTH",
"480 563 OFFCURVE",
"459 566 OFFCURVE",
"420 568 CURVE SMOOTH",
"381 571 OFFCURVE",
"367 571 OFFCURVE",
"332 571 CURVE SMOOTH",
"266 571 LINE",
"266 652 LINE",
"378 652 LINE",
"378 722 LINE",
"32 722 LINE",
"32 652 LINE",
"151 652 LINE",
"151 67 LINE",
"32 67 LINE",
"32 0 LINE"
);
},
{
closed = 1;
nodes = (
"266 501 LINE",
"299 501 LINE",
"319 501 LINE SMOOTH",
"339 501 OFFCURVE",
"356 501 OFFCURVE",
"370 500 CURVE SMOOTH",
"399 500 OFFCURVE",
"435 497 OFFCURVE",
"457 491 CURVE SMOOTH",
"480 484 OFFCURVE",
"504 472 OFFCURVE",
"518 454 CURVE SMOOTH",
"531 437 OFFCURVE",
"540 409 OFFCURVE",
"540 374 CURVE SMOOTH",
"540 352 OFFCURVE",
"536 333 OFFCURVE",
"528 318 CURVE SMOOTH",
"512 286 OFFCURVE",
"489 270 OFFCURVE",
"451 259 CURVE SMOOTH",
"413 249 OFFCURVE",
"381 247 OFFCURVE",
"334 247 CURVE SMOOTH",
"266 247 LINE"
);
}
);
width = 691;
}
);
leftMetricsKey = P;
note = Thorn;
rightMetricsKey = P;
unicode = 00DE;
},
{
color = 4;
glyphname = Q;
layers = (
{
layerId = "EE746D13-63D7-48F9-B77E-C723CA6A668B";
paths = (
{
closed = 1;
nodes = (
"766 -118 OFFCURVE",
"831 -59 OFFCURVE",
"831 85 CURVE",
"765 85 LINE",
"765 -1 OFFCURVE",
"736 -32 OFFCURVE",
"695 -32 CURVE SMOOTH",
"657 -32 OFFCURVE",
"641 -7 OFFCURVE",
"610 52 CURVE",
"702 129 OFFCURVE",
"756 248 OFFCURVE",
"756 369 CURVE SMOOTH",
"756 585 OFFCURVE",
"623 750 OFFCURVE",
"402 750 CURVE SMOOTH",
"181 750 OFFCURVE",
"48 585 OFFCURVE",
"48 369 CURVE SMOOTH",
"48 153 OFFCURVE",
"189 -13 OFFCURVE",
"402 -13 CURVE SMOOTH",
"448 -13 OFFCURVE",
"489 -6 OFFCURVE",
"526 7 CURVE",
"561 -71 OFFCURVE",
"604 -118 OFFCURVE",
"680 -118 CURVE SMOOTH"
);
},
{
closed = 1;
nodes = (
"330 57 OFFCURVE",
"271 85 OFFCURVE",
"271 109 CURVE",
"268 158 OFFCURVE",
"318 183 OFFCURVE",
"352 183 CURVE SMOOTH",
"409 183 OFFCURVE",
"454 146 OFFCURVE",
"485 74 CURVE",
"460 62 OFFCURVE",
"433 57 OFFCURVE",
"402 57 CURVE SMOOTH"
);
},
{
closed = 1;
nodes = (
"522 207 OFFCURVE",
"451 245 OFFCURVE",
"379 245 CURVE SMOOTH",
"290 245 OFFCURVE",
"241 194 OFFCURVE",
"234 154 CURVE",
"200 210 OFFCURVE",
"173 291 OFFCURVE",
"173 369 CURVE SMOOTH",
"173 523 OFFCURVE",
"253 680 OFFCURVE",
"402 680 CURVE SMOOTH",
"551 680 OFFCURVE",
"631 523 OFFCURVE",
"631 369 CURVE SMOOTH",
"631 285 OFFCURVE",
"602 196 OFFCURVE",
"561 141 CURVE"
);
}
);
width = 813;
}
);
leftKerningGroup = C;
leftMetricsKey = O;
note = Q;
rightKerningGroup = D;
unicode = 0051;
},
{
color = 4;
glyphname = R;
layers = (
{
background = {
paths = (
{
closed = 1;
nodes = (
"739 -16 OFFCURVE",
"788 42 OFFCURVE",
"788 162 CURVE",
"788 187 LINE",
"722 187 LINE",
"722 162 LINE",
"722 101 OFFCURVE",
"705 70 OFFCURVE",
"672 70 CURVE SMOOTH",
"655 70 OFFCURVE",
"641 81 OFFCURVE",
"634 94 CURVE SMOOTH",
"625 108 OFFCURVE",
"617 135 OFFCURVE",
"613 156 CURVE SMOOTH",
"609 177 OFFCURVE",
"601 213 OFFCURVE",
"595 235 CURVE SMOOTH",
"585 272 OFFCURVE",
"577 294 OFFCURVE",
"559 317 CURVE SMOOTH",
"542 339 OFFCURVE",
"517 352 OFFCURVE",
"480 360 CURVE",
"535 371 OFFCURVE",
"574 386 OFFCURVE",
"609 414 CURVE SMOOTH",
"643 441 OFFCURVE",
"662 484 OFFCURVE",
"662 541 CURVE SMOOTH",
"662 568 OFFCURVE",
"658 591 OFFCURVE",
"650 612 CURVE SMOOTH",
"633 654 OFFCURVE",
"612 679 OFFCURVE",
"570 698 CURVE SMOOTH",
"528 717 OFFCURVE",
"500 725 OFFCURVE",
"445 730 CURVE SMOOTH",
"390 735 OFFCURVE",
"368 735 OFFCURVE",
"313 735 CURVE SMOOTH",
"32 735 LINE",
"32 665 LINE",
"151 665 LINE",
"151 70 LINE",
"32 70 LINE",
"32 0 LINE",
"377 0 LINE",
"377 70 LINE",
"266 70 LINE",
"266 335 LINE",
"381 335 LINE SMOOTH",
"385 335 OFFCURVE",
"390 334 OFFCURVE",
"396 333 CURVE SMOOTH",
"407 330 OFFCURVE",
"427 318 OFFCURVE",
"443 302 CURVE SMOOTH",
"458 286 OFFCURVE",
"474 254 OFFCURVE",
"481 215 CURVE SMOOTH",
"486 184 OFFCURVE",
"492 157 OFFCURVE",
"497 135 CURVE SMOOTH",
"508 91 OFFCURVE",
"525 47 OFFCURVE",
"547 23 CURVE SMOOTH",
"569 0 OFFCURVE",
"601 -16 OFFCURVE",
"642 -16 CURVE SMOOTH"
);
},
{
closed = 1;
nodes = (
"266 665 LINE",
"323 665 LINE SMOOTH",
"407 665 OFFCURVE",
"459 658 OFFCURVE",
"500 639 CURVE SMOOTH",
"541 619 OFFCURVE",
"559 585 OFFCURVE",
"559 532 CURVE SMOOTH",
"559 501 OFFCURVE",
"550 477 OFFCURVE",
"531 458 CURVE SMOOTH",
"493 421 OFFCURVE",
"429 408 OFFCURVE",
"327 408 CURVE SMOOTH",
"266 408 LINE"
);
}
);
};
guideLines = (
{
angle = 90;
position = "{347, 700}";
},
{
angle = 270;
position = "{365, 531}";
}
);
layerId = "EE746D13-63D7-48F9-B77E-C723CA6A668B";
paths = (
{
closed = 1;
nodes = (
"748 -19 OFFCURVE",
"789 34 OFFCURVE",
"789 139 CURVE",
"789 187 LINE",
"723 187 LINE",
"723 139 LINE",
"723 84 OFFCURVE",
"711 57 OFFCURVE",
"674 57 CURVE SMOOTH",
"642 57 OFFCURVE",
"629 84 OFFCURVE",
"627 139 CURVE SMOOTH",
"624 228 OFFCURVE",
"615 328 OFFCURVE",
"500 350 CURVE",
"597 371 OFFCURVE",
"678 424 OFFCURVE",
"678 531 CURVE SMOOTH",
"678 710 OFFCURVE",
"522 735 OFFCURVE",
"347 735 CURVE SMOOTH",
"32 735 LINE",
"32 665 LINE",
"151 665 LINE",
"151 70 LINE",
"32 70 LINE",
"32 0 LINE",
"377 0 LINE",
"377 70 LINE",
"266 70 LINE",
"266 325 LINE",
"375 325 LINE",
"504 325 OFFCURVE",
"501 225 OFFCURVE",
"503 129 CURVE SMOOTH",
"505 50 OFFCURVE",
"546 -19 OFFCURVE",
"650 -19 CURVE SMOOTH"
);
},
{
closed = 1;
nodes = (
"266 665 LINE",
"347 665 LINE SMOOTH",
"448 665 OFFCURVE",
"563 651 OFFCURVE",
"563 531 CURVE SMOOTH",
"563 426 OFFCURVE",
"438 397 OFFCURVE",
"347 397 CURVE SMOOTH",
"266 397 LINE"
);
}
);
width = 782;
}
);
leftMetricsKey = H;
note = R;
rightKerningGroup = R;
unicode = 0052;
},
{
color = 4;
glyphname = S;
layers = (
{
guideLines = (
{
angle = 90;
position = "{352, 430}";
}
);
layerId = "EE746D13-63D7-48F9-B77E-C723CA6A668B";
paths = (
{
closed = 1;
nodes = (
"535 -13 OFFCURVE",
"641 75 OFFCURVE",
"641 194 CURVE SMOOTH",
"641 333 OFFCURVE",
"522 381 OFFCURVE",
"352 429 CURVE SMOOTH",
"261 455 OFFCURVE",
"176 480 OFFCURVE",
"176 563 CURVE SMOOTH",
"176 639 OFFCURVE",
"266 678 OFFCURVE",
"357 678 CURVE SMOOTH",
"428 678 OFFCURVE",
"484 667 OFFCURVE",
"522 636 CURVE",
"486 636 OFFCURVE",
"455 612 OFFCURVE",
"455 565 CURVE SMOOTH",
"455 519 OFFCURVE",
"494 491 OFFCURVE",
"537 491 CURVE SMOOTH",
"590 491 OFFCURVE",
"620 532 OFFCURVE",
"620 584 CURVE SMOOTH",
"620 700 OFFCURVE",
"466 750 OFFCURVE",
"345 750 CURVE SMOOTH",
"179 750 OFFCURVE",
"69 663 OFFCURVE",
"69 543 CURVE SMOOTH",
"69 422 OFFCURVE",
"163 368 OFFCURVE",
"326 322 CURVE SMOOTH",
"450 287 OFFCURVE",
"534 259 OFFCURVE",
"534 177 CURVE SMOOTH",
"534 94 OFFCURVE",
"442 59 OFFCURVE",
"340 59 CURVE SMOOTH",
"256 59 OFFCURVE",
"193 83 OFFCURVE",
"162 115 CURVE",
"204 120 OFFCURVE",
"231 154 OFFCURVE",
"231 197 CURVE SMOOTH",
"231 233 OFFCURVE",
"197 267 OFFCURVE",
"153 267 CURVE SMOOTH",
"106 267 OFFCURVE",
"65 228 OFFCURVE",
"65 174 CURVE SMOOTH",
"65 55 OFFCURVE",
"203 -13 OFFCURVE",
"346 -13 CURVE SMOOTH"
);
}
);
width = 687;
}
);
unicode = 0053;
},
{
color = 4;
glyphname = T;
layers = (
{
guideLines = (
{
angle = 90;
position = "{384, 368}";
}
);
layerId = "EE746D13-63D7-48F9-B77E-C723CA6A668B";
paths = (
{
closed = 1;
nodes = (
"571 0 LINE",
"571 70 LINE",
"441 70 LINE",
"441 665 LINE",
"626 665 LINE",
"626 438 LINE",
"717 438 LINE",
"717 735 LINE",
"50 735 LINE",
"50 438 LINE",
"141 438 LINE",
"141 665 LINE",
"326 665 LINE",
"326 70 LINE",
"196 70 LINE",
"196 0 LINE"
);
}
);
width = 767;
}
);
leftKerningGroup = T;
note = T;
rightKerningGroup = T;
unicode = 0054;
},
{
color = 4;
glyphname = U;
layers = (
{
guideLines = (
{
angle = 90;
position = "{420, 700}";
}
);
layerId = "EE746D13-63D7-48F9-B77E-C723CA6A668B";
paths = (
{
closed = 1;
nodes = (
"609 -13 OFFCURVE",
"701 90 OFFCURVE",
"701 277 CURVE SMOOTH",
"701 665 LINE",
"803 665 LINE",
"803 735 LINE",
"491 735 LINE",
"491 665 LINE",
"618 665 LINE",
"618 263 LINE SMOOTH",
"618 138 OFFCURVE",
"548 60 OFFCURVE",
"429 60 CURVE SMOOTH",
"307 60 OFFCURVE",
"240 137 OFFCURVE",
"240 260 CURVE SMOOTH",
"240 665 LINE",
"348 665 LINE",
"348 735 LINE",
"20 735 LINE",
"20 665 LINE",
"125 665 LINE",
"125 262 LINE SMOOTH",
"125 97 OFFCURVE",
"222 -13 OFFCURVE",
"410 -13 CURVE SMOOTH"
);
}
);
width = 821;
}
);
leftKerningGroup = U;
note = U;
rightKerningGroup = U;
unicode = 0055;
},
{
color = 4;
glyphname = V;
layers = (
{
guideLines = (
{
angle = 90;
position = "{396, 549}";
},
{
angle = 250.4877;
position = "{575, 396}";
},
{
angle = 109.6067;
position = "{180, 396}";
},
{
angle = 109.6067;
position = "{300, 396}";
}
);
layerId = "EE746D13-63D7-48F9-B77E-C723CA6A668B";
paths = (
{
closed = 1;
nodes = (
"435 0 LINE",
"670 665 LINE",
"758 665 LINE",
"758 735 LINE",
"463 735 LINE",
"463 665 LINE",
"587 665 LINE",
"396 126 LINE",
"204 665 LINE",
"312 665 LINE",
"312 735 LINE",
"-14 735 LINE",
"-14 665 LINE",
"84 665 LINE",
"321 0 LINE"
);
}
);
width = 744;
}
);
leftKerningGroup = V;
rightKerningGroup = V;
unicode = 0056;
},
{
color = 4;
glyphname = W;
layers = (
{
guideLines = (
{
position = "{545, 504}";
},
{
position = "{342, 131}";
},
{
angle = 72;
position = "{763, 126}";
},
{
angle = 107.8384;
position = "{311, 333}";
},
{
angle = 72;
position = "{846, 126}";
},
{
angle = 107.8384;
position = "{191, 333}";
},
{
angle = 104.0867;
position = "{590, 398}";
}
);
layerId = "EE746D13-63D7-48F9-B77E-C723CA6A668B";
paths = (
{
closed = 1;
nodes = (
"843 665 LINE",
"938 665 LINE",
"765 131 LINE",
"631 665 LINE",
"525 665 LINE",
"375 134 LINE",
"204 665 LINE",
"323 665 LINE",
"323 735 LINE",
"-14 735 LINE",
"-14 665 LINE",
"84 665 LINE",
"298 0 LINE",
"412 0 LINE",
"559 520 LINE",
"691 0 LINE",
"805 0 LINE",
"1021 665 LINE",
"1109 665 LINE",
"1109 735 LINE",
"843 735 LINE"
);
}
);
width = 1094;
}
);
unicode = 0057;
},
{
color = 4;
glyphname = X;
layers = (
{
guideLines = (
{
angle = -56.0409;
position = "{220, 518}";
},
{
angle = -57.4042;
position = "{322, 561}";
},
{
angle = 54.2026;
position = "{488, 561}";
},
{
angle = 54.2515;
position = "{545, 524}";
},
{
angle = 123.4564;
position = "{448, 184}";
},
{
angle = 233.3326;
position = "{265, 184}";
}
);
layerId = "EE746D13-63D7-48F9-B77E-C723CA6A668B";
paths = (
{
closed = 1;
nodes = (
"280 0 LINE",
"280 70 LINE",
"180 70 LINE",
"362 314 LINE",
"523 70 LINE",
"427 70 LINE",
"427 0 LINE",
"754 0 LINE",
"754 70 LINE",
"658 70 LINE",
"443 383 LINE",
"646 665 LINE",
"735 665 LINE",
"735 735 LINE",
"465 735 LINE",
"465 665 LINE",
"563 665 LINE",
"400 439 LINE",
"256 665 LINE",
"347 665 LINE",
"347 735 LINE",
"25 735 LINE",
"25 665 LINE",
"121 665 LINE",
"319 371 LINE",
"97 70 LINE",
"8 70 LINE",
"8 0 LINE"
);
}
);
width = 762;
}
);
leftKerningGroup = X;
note = X;
unicode = 0058;
},
{
color = 4;
glyphname = Y;
layers = (
{
guideLines = (
{
angle = -59.4208;
position = "{227, 665}";
},
{
angle = 59.8476;
position = "{520, 574}";
},
{
angle = 90;
position = "{409, 700}";
}
);
layerId = "EE746D13-63D7-48F9-B77E-C723CA6A668B";
paths = (
{
closed = 1;
nodes = (
"550 0 LINE",
"550 70 LINE",
"438 70 LINE",
"438 291 LINE",
"657 665 LINE",
"749 665 LINE",
"749 735 LINE",
"453 735 LINE",
"453 665 LINE",
"574 665 LINE",
"402 369 LINE",
"227 665 LINE",
"339 665 LINE",
"339 735 LINE",
"2 735 LINE",
"2 665 LINE",
"102 665 LINE",
"323 291 LINE",
"323 70 LINE",
"204 70 LINE",
"204 0 LINE"
);
}
);
width = 749;
}
);
leftKerningGroup = Y;
note = Y;
rightKerningGroup = Y;
unicode = 0059;
},
{
color = 4;
glyphname = Z;
layers = (
{
guideLines = (
{
angle = 90;
position = "{593, 735}";
},
{
angle = 90;
position = "{85, 81}";
},
{
angle = 233.619;
position = "{395, 376}";
},
{
angle = 90;
position = "{328, 599}";
}
);
layerId = "EE746D13-63D7-48F9-B77E-C723CA6A668B";
paths = (
{
closed = 1;
nodes = (
"599 0 LINE",
"599 288 LINE",
"508 288 LINE",
"508 70 LINE",
"170 70 LINE",
"593 644 LINE",
"593 735 LINE",
"58 735 LINE",
"58 462 LINE",
"149 462 LINE",
"149 668 LINE",
"476 668 LINE",
"45 83 LINE",
"45 0 LINE"
);
}
);
width = 644;
}
);
unicode = 005A;
},
{
color = 4;
glyphname = a;
layers = (
{
guideLines = (
{
angle = 90;
position = "{271, 538}";
}
);
layerId = "EE746D13-63D7-48F9-B77E-C723CA6A668B";
paths = (
{
closed = 1;
nodes = (
"260 -13 OFFCURVE",
"337 38 OFFCURVE",
"365 109 CURVE",
"370 45 OFFCURVE",
"414 -13 OFFCURVE",
"482 -13 CURVE SMOOTH",
"570 -13 OFFCURVE",
"597 51 OFFCURVE",
"597 137 CURVE",
"597 187 LINE",
"544 187 LINE",
"544 138 LINE",
"544 91 OFFCURVE",
"537 56 OFFCURVE",
"502 56 CURVE SMOOTH",
"466 56 OFFCURVE",
"459 91 OFFCURVE",
"459 138 CURVE SMOOTH",
"459 363 LINE SMOOTH",
"459 427 OFFCURVE",
"439 474 OFFCURVE",
"404 500 CURVE SMOOTH",
"368 527 OFFCURVE",
"324 538 OFFCURVE",
"271 538 CURVE SMOOTH",
"205 538 OFFCURVE",
"147 517 OFFCURVE",
"114 487 CURVE SMOOTH",
"82 458 OFFCURVE",
"64 426 OFFCURVE",
"64 399 CURVE SMOOTH",
"64 348 OFFCURVE",
"97 320 OFFCURVE",
"136 320 CURVE SMOOTH",
"173 320 OFFCURVE",
"204 348 OFFCURVE",
"204 389 CURVE SMOOTH",
"204 420 OFFCURVE",
"177 446 OFFCURVE",
"136 446 CURVE",
"159 471 OFFCURVE",
"204 487 OFFCURVE",
"250 487 CURVE SMOOTH",
"316 487 OFFCURVE",
"354 451 OFFCURVE",
"354 377 CURVE SMOOTH",
"354 347 OFFCURVE",
"335 322 OFFCURVE",
"306 305 CURVE SMOOTH",
"277 288 OFFCURVE",
"239 271 OFFCURVE",
"201 257 CURVE SMOOTH",
"163 243 OFFCURVE",
"124 222 OFFCURVE",
"95 201 CURVE SMOOTH",
"66 179 OFFCURVE",
"47 146 OFFCURVE",
"47 107 CURVE SMOOTH",
"47 32 OFFCURVE",
"103 -13 OFFCURVE",
"183 -13 CURVE SMOOTH"
);
},
{
closed = 1;
nodes = (
"171 57 OFFCURVE",
"151 79 OFFCURVE",
"151 112 CURVE SMOOTH",
"151 151 OFFCURVE",
"180 178 OFFCURVE",
"216 194 CURVE SMOOTH",
"250 209 OFFCURVE",
"316 244 OFFCURVE",
"357 285 CURVE",
"357 181 LINE SMOOTH",
"357 163 OFFCURVE",
"350 145 OFFCURVE",
"335 125 CURVE SMOOTH",
"305 86 OFFCURVE",
"254 57 OFFCURVE",
"208 57 CURVE SMOOTH"
);
}
);
width = 597;
}
);
leftMetricsKey = o;
unicode = 0061;
},
{
color = 4;
glyphname = ae;
layers = (
{
layerId = "EE746D13-63D7-48F9-B77E-C723CA6A668B";
paths = (
{
closed = 1;
nodes = (
"289 -14 OFFCURVE",
"370 45 OFFCURVE",
"411 130 CURVE",
"444 48 OFFCURVE",
"506 -14 OFFCURVE",
"610 -14 CURVE SMOOTH",
"719 -14 OFFCURVE",
"789 44 OFFCURVE",
"824 163 CURVE",
"767 181 LINE",
"736 94 OFFCURVE",
"684 60 OFFCURVE",
"618 60 CURVE SMOOTH",
"522 60 OFFCURVE",
"477 154 OFFCURVE",
"477 267 CURVE",
"810 314 LINE",
"810 427 OFFCURVE",
"736 539 OFFCURVE",
"620 539 CURVE SMOOTH",
"542 539 OFFCURVE",
"484 511 OFFCURVE",
"442 446 CURVE",
"413 507 OFFCURVE",
"352 538 OFFCURVE",
"259 538 CURVE SMOOTH",
"153 538 OFFCURVE",
"64 479 OFFCURVE",
"64 407 CURVE SMOOTH",
"64 350 OFFCURVE",
"96 320 OFFCURVE",
"136 320 CURVE SMOOTH",
"174 320 OFFCURVE",
"209 349 OFFCURVE",
"209 389 CURVE SMOOTH",
"209 420 OFFCURVE",
"181 446 OFFCURVE",
"139 446 CURVE",
"162 471 OFFCURVE",
"205 487 OFFCURVE",
"250 487 CURVE SMOOTH",
"318 487 OFFCURVE",
"365 450 OFFCURVE",
"365 377 CURVE SMOOTH",
"365 304 LINE",
"315 293 OFFCURVE",
"244 276 OFFCURVE",
"202 262 CURVE SMOOTH",
"178 254 OFFCURVE",
"146 241 OFFCURVE",
"125 229 CURVE SMOOTH",
"104 216 OFFCURVE",
"82 198 OFFCURVE",
"69 179 CURVE SMOOTH",
"55 159 OFFCURVE",
"47 134 OFFCURVE",
"47 107 CURVE SMOOTH",
"47 32 OFFCURVE",
"107 -14 OFFCURVE",
"187 -14 CURVE SMOOTH"
);
},
{
closed = 1;
nodes = (
"163 57 OFFCURVE",
"140 84 OFFCURVE",
"140 120 CURVE SMOOTH",
"140 188 OFFCURVE",
"254 222 OFFCURVE",
"365 248 CURVE",
"367 190 LINE",
"348 122 OFFCURVE",
"278 57 OFFCURVE",
"200 57 CURVE SMOOTH"
);
},
{
closed = 1;
nodes = (
"485 414 OFFCURVE",
"555 481 OFFCURVE",
"617 481 CURVE SMOOTH",
"675 481 OFFCURVE",
"720 423 OFFCURVE",
"720 356 CURVE",
"477 318 LINE"
);
}
);
width = 862;
}
);
leftKerningGroup = a;
leftMetricsKey = a;
note = ae;
rightMetricsKey = e;
unicode = 00E6;
},
{
color = 4;
glyphname = b;
layers = (
{
guideLines = (
{
position = "{412, -194}";
}
);
layerId = "EE746D13-63D7-48F9-B77E-C723CA6A668B";
paths = (
{
closed = 1;
nodes = (
"384 -13 OFFCURVE",
"423 -1 OFFCURVE",
"457 23 CURVE SMOOTH",
"524 72 OFFCURVE",
"562 159 OFFCURVE",
"562 262 CURVE SMOOTH",
"562 424 OFFCURVE",
"473 538 OFFCURVE",
"337 538 CURVE SMOOTH",
"279 538 OFFCURVE",
"225 509 OFFCURVE",
"192 460 CURVE",
"192 735 LINE",
"-14 735 LINE",
"-14 675 LINE",
"87 675 LINE",
"87 0 LINE",
"132 0 LINE",
"170 97 LINE",
"202 22 OFFCURVE",
"270 -13 OFFCURVE",
"342 -13 CURVE SMOOTH"
);
},
{
closed = 1;
nodes = (
"295 46 OFFCURVE",
"272 57 OFFCURVE",
"252 79 CURVE SMOOTH",
"213 122 OFFCURVE",
"192 197 OFFCURVE",
"192 285 CURVE SMOOTH",
"192 328 OFFCURVE",
"203 374 OFFCURVE",
"223 414 CURVE SMOOTH",
"242 455 OFFCURVE",
"279 483 OFFCURVE",
"322 483 CURVE SMOOTH",
"367 483 OFFCURVE",
"402 454 OFFCURVE",
"422 409 CURVE SMOOTH",
"441 364 OFFCURVE",
"450 313 OFFCURVE",
"450 256 CURVE SMOOTH",
"450 220 OFFCURVE",
"445 187 OFFCURVE",
"436 155 CURVE SMOOTH",
"417 93 OFFCURVE",
"375 46 OFFCURVE",
"322 46 CURVE SMOOTH"
);
}
);
width = 609;
}
);
note = b;
rightKerningGroup = b;
unicode = 0062;
},
{
color = 4;
glyphname = c;
layers = (
{
guideLines = (
{
position = "{477, 181}";
},
{
angle = 90;
position = "{306, 263}";
}
);
layerId = "EE746D13-63D7-48F9-B77E-C723CA6A668B";
paths = (
{
closed = 1;
nodes = (
"422 -13 OFFCURVE",
"505 56 OFFCURVE",
"530 163 CURVE",
"475 181 LINE",
"459 124 OFFCURVE",
"390 66 OFFCURVE",
"322 66 CURVE SMOOTH",
"219 66 OFFCURVE",
"158 143 OFFCURVE",
"158 268 CURVE SMOOTH",
"158 381 OFFCURVE",
"216 483 OFFCURVE",
"329 483 CURVE SMOOTH",
"380 483 OFFCURVE",
"421 458 OFFCURVE",
"442 424 CURVE",
"402 424 OFFCURVE",
"367 399 OFFCURVE",
"367 357 CURVE SMOOTH",
"367 315 OFFCURVE",
"400 288 OFFCURVE",
"442 288 CURVE SMOOTH",
"490 288 OFFCURVE",
"519 328 OFFCURVE",
"519 367 CURVE SMOOTH",
"519 472 OFFCURVE",
"420 538 OFFCURVE",
"312 538 CURVE SMOOTH",
"149 538 OFFCURVE",
"47 415 OFFCURVE",
"47 252 CURVE SMOOTH",
"47 98 OFFCURVE",
"151 -13 OFFCURVE",
"300 -13 CURVE SMOOTH"
);
}
);
width = 563;
}
);
leftKerningGroup = c;
leftMetricsKey = o;
note = c;
unicode = 0063;
},
{
color = 4;
glyphname = d;
layers = (
{
guideLines = (
{
position = "{403, 83}";
}
);
layerId = "EE746D13-63D7-48F9-B77E-C723CA6A668B";
paths = (
{
closed = 1;
nodes = (
"318 -13 OFFCURVE",
"380 21 OFFCURVE",
"413 83 CURVE",
"432 0 LINE",
"605 0 LINE",
"605 55 LINE",
"517 55 LINE",
"517 735 LINE",
"297 735 LINE",
"297 675 LINE",
"412 675 LINE",
"412 460 LINE",
"379 508 OFFCURVE",
"322 538 OFFCURVE",
"268 538 CURVE SMOOTH",
"132 538 OFFCURVE",
"46 428 OFFCURVE",
"46 262 CURVE SMOOTH",
"46 97 OFFCURVE",
"132 -13 OFFCURVE",
"261 -13 CURVE SMOOTH"
);
},
{
closed = 1;
nodes = (
"255 49 OFFCURVE",
"232 60 OFFCURVE",
"213 81 CURVE SMOOTH",
"174 123 OFFCURVE",
"158 187 OFFCURVE",
"158 260 CURVE SMOOTH",
"158 315 OFFCURVE",
"167 367 OFFCURVE",
"187 411 CURVE SMOOTH",
"206 455 OFFCURVE",
"241 483 OFFCURVE",
"286 483 CURVE SMOOTH",
"331 483 OFFCURVE",
"367 455 OFFCURVE",
"388 413 CURVE SMOOTH",
"409 370 OFFCURVE",
"419 320 OFFCURVE",
"419 268 CURVE SMOOTH",
"419 141 OFFCURVE",
"361 49 OFFCURVE",
"282 49 CURVE SMOOTH"
);
}
);
width = 618;
}
);
leftKerningGroup = c;
note = d;
rightKerningGroup = d;
unicode = 0064;
},
{
color = 4;
glyphname = eth;
layers = (
{
layerId = "EE746D13-63D7-48F9-B77E-C723CA6A668B";
paths = (
{
closed = 1;
nodes = (
"333 -10 OFFCURVE",
"360 -6 OFFCURVE",
"384 0 CURVE SMOOTH",
"433 14 OFFCURVE",
"478 46 OFFCURVE",
"507 96 CURVE SMOOTH",
"537 145 OFFCURVE",
"555 221 OFFCURVE",
"555 316 CURVE SMOOTH",
"555 444 OFFCURVE",
"521 557 OFFCURVE",
"458 633 CURVE",
"567 685 LINE",
"550 726 LINE",
"425 667 LINE",
"369 717 OFFCURVE",
"301 742 OFFCURVE",
"220 742 CURVE SMOOTH",
"190 742 OFFCURVE",
"157 738 OFFCURVE",
"120 730 CURVE",
"130 677 LINE",
"153 680 OFFCURVE",
"171 682 OFFCURVE",
"184 682 CURVE SMOOTH",
"243 682 OFFCURVE",
"294 663 OFFCURVE",
"336 625 CURVE",
"250 585 LINE",
"267 544 LINE",
"368 591 LINE",
"400 550 OFFCURVE",
"425 484 OFFCURVE",
"430 463 CURVE SMOOTH",
"433 453 OFFCURVE",
"434 444 OFFCURVE",
"435 438 CURVE",
"434 439 OFFCURVE",
"429 443 OFFCURVE",
"421 450 CURVE SMOOTH",
"406 463 OFFCURVE",
"397 469 OFFCURVE",
"377 480 CURVE SMOOTH",
"357 491 OFFCURVE",
"330 496 OFFCURVE",
"299 496 CURVE SMOOTH",
"221 496 OFFCURVE",
"157 466 OFFCURVE",
"119 418 CURVE SMOOTH",
"81 370 OFFCURVE",
"60 310 OFFCURVE",
"60 245 CURVE SMOOTH",
"60 220 OFFCURVE",
"63 196 OFFCURVE",
"68 173 CURVE SMOOTH",
"79 126 OFFCURVE",
"104 79 OFFCURVE",
"141 45 CURVE SMOOTH",
"178 12 OFFCURVE",
"235 -10 OFFCURVE",
"304 -10 CURVE SMOOTH"
);
},
{
closed = 1;
nodes = (
"276 51 OFFCURVE",
"250 60 OFFCURVE",
"229 77 CURVE SMOOTH",
"188 112 OFFCURVE",
"172 168 OFFCURVE",
"172 239 CURVE SMOOTH",
"172 342 OFFCURVE",
"228 429 OFFCURVE",
"304 429 CURVE SMOOTH",
"394 429 OFFCURVE",
"446 381 OFFCURVE",
"446 292 CURVE SMOOTH",
"446 129 OFFCURVE",
"404 51 OFFCURVE",
"307 51 CURVE SMOOTH"
);
}
);
width = 608;
}
);
leftKerningGroup = c;
note = eth;
unicode = 00F0;
},
{
color = 4;
glyphname = dcroat;
layers = (
{
layerId = "EE746D13-63D7-48F9-B77E-C723CA6A668B";
paths = (
{
closed = 1;
nodes = (
"311 -13 OFFCURVE",
"373 21 OFFCURVE",
"406 83 CURVE",
"425 0 LINE",
"598 0 LINE",
"598 56 LINE",
"510 56 LINE",
"510 577 LINE",
"588 577 LINE",
"588 625 LINE",
"510 625 LINE",
"510 735 LINE",
"290 735 LINE",
"290 675 LINE",
"405 675 LINE",
"405 625 LINE",
"264 625 LINE",
"264 577 LINE",
"405 577 LINE",
"405 460 LINE",
"372 508 OFFCURVE",
"315 538 OFFCURVE",
"261 538 CURVE SMOOTH",
"125 538 OFFCURVE",
"39 428 OFFCURVE",
"39 262 CURVE SMOOTH",
"39 97 OFFCURVE",
"125 -13 OFFCURVE",
"254 -13 CURVE SMOOTH"
);
},
{
closed = 1;
nodes = (
"248 49 OFFCURVE",
"225 60 OFFCURVE",
"206 81 CURVE SMOOTH",
"167 123 OFFCURVE",
"151 187 OFFCURVE",
"151 260 CURVE SMOOTH",
"151 315 OFFCURVE",
"160 367 OFFCURVE",
"180 411 CURVE SMOOTH",
"199 455 OFFCURVE",
"234 483 OFFCURVE",
"279 483 CURVE SMOOTH",
"324 483 OFFCURVE",
"360 455 OFFCURVE",
"381 413 CURVE SMOOTH",
"402 370 OFFCURVE",
"412 320 OFFCURVE",
"412 268 CURVE SMOOTH",
"412 141 OFFCURVE",
"354 49 OFFCURVE",
"275 49 CURVE SMOOTH"
);
}
);
width = 604;
}
);
leftKerningGroup = c;
note = dcroat;
unicode = 0111;
},
{
color = 4;
glyphname = e;
layers = (
{
guideLines = (
{
angle = 90;
position = "{524, 269}";
},
{
angle = 90;
position = "{298, 262}";
}
);
layerId = "EE746D13-63D7-48F9-B77E-C723CA6A668B";
paths = (
{
closed = 1;
nodes = (
"339 -13 OFFCURVE",
"373 -6 OFFCURVE",
"403 8 CURVE SMOOTH",
"464 37 OFFCURVE",
"506 91 OFFCURVE",
"523 163 CURVE",
"466 181 LINE",
"459 156 OFFCURVE",
"448 134 OFFCURVE",
"432 116 CURVE SMOOTH",
"400 80 OFFCURVE",
"356 60 OFFCURVE",
"311 60 CURVE SMOOTH",
"260 60 OFFCURVE",
"218 83 OFFCURVE",
"194 122 CURVE SMOOTH",
"170 160 OFFCURVE",
"158 208 OFFCURVE",
"158 264 CURVE SMOOTH",
"158 268 LINE",
"533 268 LINE",
"532 352 OFFCURVE",
"506 423 OFFCURVE",
"462 468 CURVE SMOOTH",
"419 512 OFFCURVE",
"361 536 OFFCURVE",
"295 536 CURVE SMOOTH",
"263 536 OFFCURVE",
"234 531 OFFCURVE",
"208 521 CURVE SMOOTH",
"158 502 OFFCURVE",
"118 467 OFFCURVE",
"88 416 CURVE SMOOTH",
"61 370 OFFCURVE",
"47 313 OFFCURVE",
"47 254 CURVE SMOOTH",
"47 186 OFFCURVE",
"70 121 OFFCURVE",
"112 70 CURVE SMOOTH",
"155 18 OFFCURVE",
"223 -13 OFFCURVE",
"301 -13 CURVE SMOOTH"
);
},
{
closed = 1;
nodes = (
"164 351 OFFCURVE",
"172 379 OFFCURVE",
"184 403 CURVE SMOOTH",
"208 451 OFFCURVE",
"251 478 OFFCURVE",
"298 478 CURVE SMOOTH",
"321 478 OFFCURVE",
"343 471 OFFCURVE",
"362 458 CURVE SMOOTH",
"400 432 OFFCURVE",
"425 382 OFFCURVE",
"426 321 CURVE",
"162 321 LINE"
);
}
);
width = 571;
}
);
leftMetricsKey = o;
unicode = 0065;
},
{
color = 4;
glyphname = f;
layers = (
{
guideLines = (
{
position = "{215, 607}";
}
);
layerId = "EE746D13-63D7-48F9-B77E-C723CA6A668B";
paths = (
{
closed = 1;
nodes = (
"340 0 LINE",
"340 55 LINE",
"218 55 LINE",
"218 469 LINE",
"371 469 LINE",
"371 524 LINE",
"215 524 LINE",
"215 576 LINE SMOOTH",
"215 673 OFFCURVE",
"243 732 OFFCURVE",
"309 732 CURVE SMOOTH",
"341 732 OFFCURVE",
"365 721 OFFCURVE",
"372 710 CURVE",
"350 710 OFFCURVE",
"324 693 OFFCURVE",
"324 660 CURVE SMOOTH",
"324 629 OFFCURVE",
"343 590 OFFCURVE",
"394 590 CURVE SMOOTH",
"445 590 OFFCURVE",
"464 629 OFFCURVE",
"464 660 CURVE SMOOTH",
"464 715 OFFCURVE",
"409 773 OFFCURVE",
"303 773 CURVE SMOOTH",
"194 773 OFFCURVE",
"113 720 OFFCURVE",
"113 576 CURVE",
"113 524 LINE",
"18 524 LINE",
"18 469 LINE",
"113 469 LINE",
"113 55 LINE",
"18 55 LINE",
"18 0 LINE"
);
}
);
width = 394;
}
);
note = f;
unicode = 0066;
},
{
color = 4;
glyphname = g;
layers = (
{
guideLines = (
{
angle = 90;
position = "{501, 485}";
},
{
angle = 90;
position = "{134, 369}";
},
{
angle = 270;
position = "{89, 369}";
},
{
angle = 90;
position = "{26, 368}";
},
{
angle = 270;
position = "{552, 384}";
},
{
angle = 180;
position = "{11, 96}";
},
{
angle = 226.5482;
position = "{119, 231}";
},
{
angle = 180;
position = "{287, 631}";
},
{
angle = 226.5482;
position = "{205, 231}";
},
{
angle = 90;
position = "{286, 204}";
}
);
layerId = "EE746D13-63D7-48F9-B77E-C723CA6A668B";
paths = (
{
closed = 1;
nodes = (
"482 -248 OFFCURVE",
"552 -165 OFFCURVE",
"552 -81 CURVE SMOOTH",
"552 -17 OFFCURVE",
"511 78 OFFCURVE",
"349 78 CURVE SMOOTH",
"239 78 LINE SMOOTH",
"169 78 OFFCURVE",
"142 85 OFFCURVE",
"142 115 CURVE SMOOTH",
"142 142 OFFCURVE",
"163 156 OFFCURVE",
"237 154 CURVE",
"285 154 LINE SMOOTH",
"425 154 OFFCURVE",
"507 246 OFFCURVE",
"507 346 CURVE SMOOTH",
"507 415 OFFCURVE",
"478 469 OFFCURVE",
"431 502 CURVE",
"447 520 OFFCURVE",
"478 556 OFFCURVE",
"488 557 CURVE",
"482 550 OFFCURVE",
"481 539 OFFCURVE",
"481 534 CURVE SMOOTH",
"481 504 OFFCURVE",
"506 486 OFFCURVE",
"536 486 CURVE SMOOTH",
"564 486 OFFCURVE",
"589 506 OFFCURVE",
"589 541 CURVE SMOOTH",
"589 571 OFFCURVE",
"568 610 OFFCURVE",
"510 610 CURVE SMOOTH",
"461 610 OFFCURVE",
"431 591 OFFCURVE",
"381 525 CURVE",
"353 534 OFFCURVE",
"321 539 OFFCURVE",
"285 539 CURVE SMOOTH",
"149 539 OFFCURVE",
"62 447 OFFCURVE",
"62 346 CURVE SMOOTH",
"62 294 OFFCURVE",
"86 228 OFFCURVE",
"141 180 CURVE",
"118 176 OFFCURVE",
"59 154 OFFCURVE",
"59 89 CURVE SMOOTH",
"59 6 OFFCURVE",
"155 -13 OFFCURVE",
"239 -13 CURVE SMOOTH",
"338 -13 LINE SMOOTH",
"430 -13 OFFCURVE",
"448 -57 OFFCURVE",
"448 -89 CURVE SMOOTH",
"448 -135 OFFCURVE",
"409 -188 OFFCURVE",
"282 -188 CURVE SMOOTH",
"190 -188 OFFCURVE",
"130 -162 OFFCURVE",
"119 -144 CURVE",
"143 -136 OFFCURVE",
"158 -118 OFFCURVE",
"158 -90 CURVE SMOOTH",
"158 -51 OFFCURVE",
"129 -28 OFFCURVE",
"92 -28 CURVE SMOOTH",
"57 -28 OFFCURVE",
"26 -58 OFFCURVE",
"26 -100 CURVE SMOOTH",
"26 -178 OFFCURVE",
"128 -248 OFFCURVE",
"282 -248 CURVE SMOOTH"
);
},
{
closed = 1;
nodes = (
"211 204 OFFCURVE",
"166 270 OFFCURVE",
"166 342 CURVE SMOOTH",
"166 413 OFFCURVE",
"199 492 OFFCURVE",
"285 492 CURVE SMOOTH",
"371 492 OFFCURVE",
"403 414 OFFCURVE",
"403 342 CURVE SMOOTH",
"403 270 OFFCURVE",
"359 204 OFFCURVE",
"286 204 CURVE SMOOTH"
);
}
);
width = 605;
}
);
unicode = 0067;
},
{
color = 4;
glyphname = g.alt;
layers = (
{
guideLines = (
{
angle = 90;
position = "{56, 260}";
},
{
position = "{421, 430}";
}
);
layerId = "EE746D13-63D7-48F9-B77E-C723CA6A668B";
paths = (
{
closed = 1;
nodes = (
"457 -238 OFFCURVE",
"526 -121 OFFCURVE",
"526 17 CURVE SMOOTH",
"526 466 LINE",
"596 466 LINE",
"596 524 LINE",
"433 524 LINE",
"421 430 LINE",
"400 497 OFFCURVE",
"325 538 OFFCURVE",
"266 538 CURVE SMOOTH",
"128 538 OFFCURVE",
"46 412 OFFCURVE",
"46 267 CURVE SMOOTH",
"46 125 OFFCURVE",
"123 0 OFFCURVE",
"263 0 CURVE SMOOTH",
"334 0 OFFCURVE",
"405 44 OFFCURVE",
"421 111 CURVE",
"421 -13 LINE SMOOTH",
"421 -89 OFFCURVE",
"393 -187 OFFCURVE",
"271 -187 CURVE SMOOTH",
"221 -187 OFFCURVE",
"186 -172 OFFCURVE",
"179 -161 CURVE",
"193 -158 OFFCURVE",
"216 -140 OFFCURVE",
"216 -106 CURVE SMOOTH",
"216 -79 OFFCURVE",
"193 -51 OFFCURVE",
"155 -51 CURVE SMOOTH",
"108 -51 OFFCURVE",
"86 -89 OFFCURVE",
"86 -119 CURVE SMOOTH",
"86 -191 OFFCURVE",
"183 -238 OFFCURVE",
"272 -238 CURVE SMOOTH"
);
},
{
closed = 1;
nodes = (
"191 62 OFFCURVE",
"153 165 OFFCURVE",
"153 276 CURVE SMOOTH",
"153 379 OFFCURVE",
"202 473 OFFCURVE",
"286 473 CURVE SMOOTH",
"366 473 OFFCURVE",
"424 390 OFFCURVE",
"424 276 CURVE SMOOTH",
"424 153 OFFCURVE",
"372 62 OFFCURVE",
"284 62 CURVE SMOOTH"
);
}
);
width = 610;
}
);
leftMetricsKey = q;
rightMetricsKey = u;
},
{
glyphname = h;
layers = (
{
layerId = "EE746D13-63D7-48F9-B77E-C723CA6A668B";
paths = (
{
closed = 1;
nodes = (
"309 0 LINE",
"309 55 LINE",
"220 55 LINE",
"220 292 LINE SMOOTH",
"220 340 OFFCURVE",
"237 402 OFFCURVE",
"266 433 CURVE SMOOTH",
"295 464 OFFCURVE",
"322 471 OFFCURVE",
"355 471 CURVE SMOOTH",
"413 471 OFFCURVE",
"448 432 OFFCURVE",
"448 347 CURVE SMOOTH",
"448 55 LINE",
"359 55 LINE",
"359 0 LINE",
"653 0 LINE",
"653 55 LINE",
"553 55 LINE",
"553 353 LINE SMOOTH",
"553 385 OFFCURVE",
"549 413 OFFCURVE",
"541 437 CURVE SMOOTH",
"525 484 OFFCURVE",
"503 506 OFFCURVE",
"472 521 CURVE SMOOTH",
"441 536 OFFCURVE",
"419 538 OFFCURVE",
"391 538 CURVE SMOOTH",
"370 538 OFFCURVE",
"350 535 OFFCURVE",
"330 529 CURVE SMOOTH",
"289 516 OFFCURVE",
"245 482 OFFCURVE",
"220 431 CURVE",
"220 735 LINE",
"20 735 LINE",
"20 675 LINE",
"115 675 LINE",
"115 55 LINE",
"20 55 LINE",
"20 0 LINE"
);
}
);
width = 666;
}
);
leftKerningGroup = h;
note = h;
rightKerningGroup = h;
rightMetricsKey = d;
unicode = 0068;
},
{
glyphname = hbar;
layers = (
{
layerId = "EE746D13-63D7-48F9-B77E-C723CA6A668B";
paths = (
{
closed = 1;
nodes = (
"553 353 LINE SMOOTH",
"553 385 OFFCURVE",
"549 413 OFFCURVE",
"541 437 CURVE SMOOTH",
"525 484 OFFCURVE",
"503 506 OFFCURVE",
"472 521 CURVE SMOOTH",
"441 536 OFFCURVE",
"419 538 OFFCURVE",
"391 538 CURVE SMOOTH",
"370 538 OFFCURVE",
"350 535 OFFCURVE",
"330 529 CURVE SMOOTH",
"289 516 OFFCURVE",
"245 482 OFFCURVE",
"220 431 CURVE",
"220 580 LINE",
"361 580 LINE",
"361 626 LINE",
"220 626 LINE",
"220 735 LINE",
"20 735 LINE",
"20 675 LINE",
"115 675 LINE",
"115 626 LINE",
"20 626 LINE",
"20 580 LINE",
"115 580 LINE",
"115 55 LINE",
"20 55 LINE",
"20 0 LINE",
"309 0 LINE",
"309 55 LINE",
"220 55 LINE",
"220 292 LINE SMOOTH",
"220 340 OFFCURVE",
"237 402 OFFCURVE",
"266 433 CURVE SMOOTH",
"295 464 OFFCURVE",
"322 471 OFFCURVE",
"355 471 CURVE SMOOTH",
"413 471 OFFCURVE",
"448 432 OFFCURVE",
"448 347 CURVE SMOOTH",
"448 55 LINE",
"359 55 LINE",
"359 0 LINE",
"653 0 LINE",
"653 55 LINE",
"553 55 LINE"
);
}
);
width = 666;
}
);
leftKerningGroup = h;
leftMetricsKey = h;
note = hbar;
rightKerningGroup = h;
rightMetricsKey = h;
unicode = 0127;
},
{
glyphname = i;
layers = (
{
guideLines = (
{
angle = 90;
position = "{172, 689}";
}
);
layerId = "EE746D13-63D7-48F9-B77E-C723CA6A668B";
paths = (
{
closed = 1;
nodes = (
"330 0 LINE",
"330 55 LINE",
"234 55 LINE",
"234 524 LINE",
"34 524 LINE",
"34 469 LINE",
"129 469 LINE",
"129 55 LINE",
"35 55 LINE",
"35 0 LINE"
);
},
{
closed = 1;
nodes = (
"211 616 OFFCURVE",
"245 649 OFFCURVE",
"245 688 CURVE SMOOTH",
"245 728 OFFCURVE",
"211 761 OFFCURVE",
"172 761 CURVE SMOOTH",
"133 761 OFFCURVE",
"100 729 OFFCURVE",
"100 688 CURVE SMOOTH",
"100 649 OFFCURVE",
"133 616 OFFCURVE",
"172 616 CURVE SMOOTH"
);
}
);
width = 342;
}
);
leftKerningGroup = i;
note = i;
unicode = 0069;
},
{
glyphname = dotlessi;
layers = (
{
layerId = "EE746D13-63D7-48F9-B77E-C723CA6A668B";
paths = (
{
closed = 1;
nodes = (
"330 0 LINE",
"330 55 LINE",
"234 55 LINE",
"234 524 LINE",
"34 524 LINE",
"34 469 LINE",
"129 469 LINE",
"129 55 LINE",
"35 55 LINE",
"35 0 LINE"
);
}
);
width = 342;
}
);
leftKerningGroup = i;
leftMetricsKey = i;
note = dotlessi;
rightMetricsKey = i;
unicode = 0131;
},
{
glyphname = j;
layers = (
{
background = {
paths = (
{
closed = 1;
nodes = (
"167 -230 OFFCURVE",
"236 -164 OFFCURVE",
"236 -44 CURVE SMOOTH",
"236 524 LINE",
"12 524 LINE",
"12 469 LINE",
"131 469 LINE",
"131 -59 LINE SMOOTH",
"131 -106 OFFCURVE",
"121 -140 OFFCURVE",
"104 -156 CURVE SMOOTH",
"86 -171 OFFCURVE",
"70 -177 OFFCURVE",
"51 -177 CURVE SMOOTH",
"38 -177 OFFCURVE",
"27 -175 OFFCURVE",
"16 -171 CURVE",
"35 -163 OFFCURVE",
"44 -142 OFFCURVE",
"44 -109 CURVE SMOOTH",
"44 -75 OFFCURVE",
"18 -55 OFFCURVE",
"-13 -55 CURVE SMOOTH",
"-51 -55 OFFCURVE",
"-84 -81 OFFCURVE",
"-84 -124 CURVE SMOOTH",
"-84 -190 OFFCURVE",
"-32 -230 OFFCURVE",
"64 -230 CURVE SMOOTH"
);
}
);
};
layerId = "EE746D13-63D7-48F9-B77E-C723CA6A668B";
paths = (
{
closed = 1;
nodes = (
"208 616 OFFCURVE",
"242 649 OFFCURVE",
"242 688 CURVE SMOOTH",
"242 728 OFFCURVE",
"208 761 OFFCURVE",
"169 761 CURVE SMOOTH",
"130 761 OFFCURVE",
"97 729 OFFCURVE",
"97 688 CURVE SMOOTH",
"97 649 OFFCURVE",
"130 616 OFFCURVE",
"169 616 CURVE SMOOTH"
);
},
{
closed = 1;
nodes = (
"-32 -230 OFFCURVE",
"-84 -181 OFFCURVE",
"-84 -119 CURVE SMOOTH",
"-84 -84 OFFCURVE",
"-55 -55 OFFCURVE",
"-20 -55 CURVE SMOOTH",
"15 -55 OFFCURVE",
"44 -84 OFFCURVE",
"44 -119 CURVE SMOOTH",
"44 -146 OFFCURVE",
"28 -163 OFFCURVE",
"17 -171 CURVE",
"26 -178 OFFCURVE",
"38 -181 OFFCURVE",
"51 -181 CURVE SMOOTH",
"109 -181 OFFCURVE",
"131 -129 OFFCURVE",
"131 -59 CURVE SMOOTH",
"131 469 LINE",
"12 469 LINE",
"12 524 LINE",
"236 524 LINE",
"236 -44 LINE SMOOTH",
"236 -164 OFFCURVE",
"167 -230 OFFCURVE",
"64 -230 CURVE SMOOTH"
);
}
);
width = 314;
}
);
note = j;
unicode = 006A;
},
{
glyphname = uni0237;
layers = (
{
layerId = "EE746D13-63D7-48F9-B77E-C723CA6A668B";
paths = (
{
closed = 1;
nodes = (
"82 -230 LINE SMOOTH",
"182 -229 OFFCURVE",
"250 -163 OFFCURVE",
"250 -44 CURVE SMOOTH",
"250 524 LINE",
"26 524 LINE",
"26 467 LINE",
"145 467 LINE",
"145 -59 LINE SMOOTH",
"145 -106 OFFCURVE",
"135 -140 OFFCURVE",
"118 -156 CURVE SMOOTH",
"100 -171 OFFCURVE",
"84 -177 OFFCURVE",
"65 -177 CURVE SMOOTH",
"52 -177 OFFCURVE",
"41 -175 OFFCURVE",
"30 -171 CURVE",
"49 -163 OFFCURVE",
"58 -142 OFFCURVE",
"58 -109 CURVE SMOOTH",
"58 -75 OFFCURVE",
"32 -55 OFFCURVE",
"1 -55 CURVE SMOOTH",
"-37 -55 OFFCURVE",
"-70 -81 OFFCURVE",
"-70 -124 CURVE SMOOTH",
"-70 -190 OFFCURVE",
"-18 -230 OFFCURVE",
"78 -230 CURVE SMOOTH"
);
}
);
width = 325;
}
);
note = uni0237;
unicode = 0237;
},
{
glyphname = k;
layers = (
{
guideLines = (
{
angle = 121.4729;
position = "{493, 162}";
},
{
angle = 45;
position = "{455, 406}";
}
);
layerId = "EE746D13-63D7-48F9-B77E-C723CA6A668B";
paths = (
{
closed = 1;
nodes = (
"386 337 LINE",
"518 469 LINE",
"628 469 LINE",
"628 524 LINE",
"335 524 LINE",
"335 469 LINE",
"432 469 LINE",
"223 268 LINE",
"223 735 LINE",
"19 735 LINE",
"19 675 LINE",
"118 675 LINE",
"118 55 LINE",
"19 55 LINE",
"19 0 LINE",
"296 0 LINE",
"296 55 LINE",
"223 55 LINE",
"223 184 LINE",
"309 260 LINE",
"434 55 LINE",
"365 55 LINE",
"365 0 LINE",
"652 0 LINE",
"652 55 LINE",
"558 55 LINE"
);
},
{
closed = 0;
nodes = (
"446 -175 LINE"
);
}
);
width = 658;
}
);
unicode = 006B;
},
{
glyphname = k.alt;
layers = (
{
layerId = "EE746D13-63D7-48F9-B77E-C723CA6A668B";
paths = (
{
closed = 1;
nodes = (
"586 -10 OFFCURVE",
"607 -7 OFFCURVE",
"639 11 CURVE",
"625 77 LINE",
"610 70 OFFCURVE",
"593 67 OFFCURVE",
"574 67 CURVE SMOOTH",
"542 67 OFFCURVE",
"510 88 OFFCURVE",
"479 126 CURVE SMOOTH",
"449 165 OFFCURVE",
"428 197 OFFCURVE",
"396 248 CURVE SMOOTH",
"380 274 OFFCURVE",
"368 293 OFFCURVE",
"358 307 CURVE",
"527 469 LINE",
"620 469 LINE",
"620 524 LINE",
"327 524 LINE",
"327 469 LINE",
"419 469 LINE",
"215 279 LINE",
"215 735 LINE",
"11 735 LINE",
"11 675 LINE",
"110 675 LINE",
"110 55 LINE",
"11 55 LINE",
"11 0 LINE",
"298 0 LINE",
"298 55 LINE",
"215 55 LINE",
"215 204 LINE",
"296 266 LINE",
"394 97 LINE SMOOTH",
"435 27 OFFCURVE",
"482 -10 OFFCURVE",
"552 -10 CURVE SMOOTH"
);
}
);
width = 635;
}
);
leftKerningGroup = k;
note = k;
rightKerningGroup = k;
},
{
glyphname = kgreenlandic;
layers = (
{
layerId = "EE746D13-63D7-48F9-B77E-C723CA6A668B";
paths = (
{
closed = 1;
nodes = (
"597 -10 OFFCURVE",
"618 -7 OFFCURVE",
"650 11 CURVE",
"636 77 LINE",
"621 70 OFFCURVE",
"604 67 OFFCURVE",
"585 67 CURVE SMOOTH",
"558 67 OFFCURVE",
"528 84 OFFCURVE",
"505 106 CURVE SMOOTH",
"482 128 OFFCURVE",
"452 167 OFFCURVE",
"433 197 CURVE SMOOTH",
"413 226 OFFCURVE",
"381 274 OFFCURVE",
"365 298 CURVE",
"538 467 LINE",
"631 467 LINE",
"631 524 LINE",
"338 524 LINE",
"338 467 LINE",
"438 467 LINE",
"226 267 LINE",
"226 524 LINE",
"22 524 LINE",
"22 464 LINE",
"121 464 LINE",
"121 57 LINE",
"22 57 LINE",
"22 0 LINE",
"309 0 LINE",
"309 57 LINE",
"226 57 LINE",
"226 192 LINE",
"303 257 LINE",
"405 97 LINE SMOOTH",
"449 27 OFFCURVE",
"494 -10 OFFCURVE",
"563 -10 CURVE SMOOTH"
);
}
);
width = 639;
}
);
note = kgreenlandic;
rightKerningGroup = k;
unicode = 0138;
},
{
glyphname = l;
layers = (
{
layerId = "EE746D13-63D7-48F9-B77E-C723CA6A668B";
paths = (
{
closed = 1;
nodes = (
"335 0 LINE",
"335 55 LINE",
"230 55 LINE",
"230 735 LINE",
"16 735 LINE",
"16 675 LINE",
"125 675 LINE",
"125 55 LINE",
"16 55 LINE",
"16 0 LINE"
);
}
);
width = 351;
}
);
leftKerningGroup = l;
note = l;
unicode = 006C;
},
{
glyphname = lslash;
layers = (
{
layerId = "EE746D13-63D7-48F9-B77E-C723CA6A668B";
paths = (
{
closed = 1;
nodes = (
"337 0 LINE",
"337 57 LINE",
"232 57 LINE",
"232 407 LINE",
"331 452 LINE",
"331 524 LINE",
"232 479 LINE",
"232 735 LINE",
"18 735 LINE",
"18 675 LINE",
"127 675 LINE",
"127 433 LINE",
"30 389 LINE",
"30 317 LINE",
"127 360 LINE",
"127 57 LINE",
"18 57 LINE",
"18 0 LINE"
);
}
);
width = 346;
}
);
note = lslash;
unicode = 0142;
},
{
glyphname = m;
layers = (
{
background = {
paths = (
{
closed = 1;
nodes = (
"319 0 LINE",
"319 55 LINE",
"230 55 LINE",
"230 286 LINE SMOOTH",
"230 305 OFFCURVE",
"232 323 OFFCURVE",
"235 340 CURVE SMOOTH",
"241 375 OFFCURVE",
"255 409 OFFCURVE",
"276 433 CURVE SMOOTH",
"296 456 OFFCURVE",
"327 471 OFFCURVE",
"365 471 CURVE SMOOTH",
"423 471 OFFCURVE",
"458 432 OFFCURVE",
"458 347 CURVE SMOOTH",
"458 55 LINE",
"369 55 LINE",
"369 0 LINE",
"663 0 LINE",
"663 55 LINE",
"563 55 LINE",
"563 348 LINE SMOOTH",
"563 372 OFFCURVE",
"561 393 OFFCURVE",
"557 412 CURVE SMOOTH",
"549 451 OFFCURVE",
"537 475 OFFCURVE",
"518 494 CURVE SMOOTH",
"499 514 OFFCURVE",
"482 523 OFFCURVE",
"459 530 CURVE SMOOTH",
"437 537 OFFCURVE",
"421 538 OFFCURVE",
"401 538 CURVE SMOOTH",
"333 538 OFFCURVE",
"259 499 OFFCURVE",
"227 426 CURVE",
"215 532 LINE",
"30 524 LINE",
"30 469 LINE",
"125 469 LINE",
"125 55 LINE",
"30 55 LINE",
"30 0 LINE"
);
}
);
};
guideLines = (
{
angle = -30;
position = "{534, 434}";
},
{
angle = 90;
position = "{567, 415}";
}
);
layerId = "EE746D13-63D7-48F9-B77E-C723CA6A668B";
paths = (
{
closed = 1;
nodes = (
"314 0 LINE",
"314 55 LINE",
"230 55 LINE",
"230 266 LINE SMOOTH",
"230 365 OFFCURVE",
"269 471 OFFCURVE",
"349 471 CURVE SMOOTH",
"402 471 OFFCURVE",
"438 432 OFFCURVE",
"438 347 CURVE SMOOTH",
"438 55 LINE",
"354 55 LINE",
"354 0 LINE",
"627 0 LINE",
"627 55 LINE",
"543 55 LINE",
"543 327 LINE SMOOTH",
"543 393 OFFCURVE",
"585 471 OFFCURVE",
"653 471 CURVE SMOOTH",
"711 471 OFFCURVE",
"746 432 OFFCURVE",
"746 347 CURVE SMOOTH",
"746 55 LINE",
"667 55 LINE",
"667 0 LINE",
"941 0 LINE",
"941 55 LINE",
"851 55 LINE",
"851 348 LINE SMOOTH",
"851 372 OFFCURVE",
"849 393 OFFCURVE",
"845 412 CURVE SMOOTH",
"837 451 OFFCURVE",
"825 475 OFFCURVE",
"806 494 CURVE SMOOTH",
"787 514 OFFCURVE",
"770 523 OFFCURVE",
"747 530 CURVE SMOOTH",
"725 537 OFFCURVE",
"709 538 OFFCURVE",
"689 538 CURVE SMOOTH",
"623 538 OFFCURVE",
"565 506 OFFCURVE",
"533 434 CURVE",
"510 506 OFFCURVE",
"474 538 OFFCURVE",
"392 538 CURVE SMOOTH",
"325 538 OFFCURVE",
"256 499 OFFCURVE",
"227 426 CURVE",
"215 532 LINE",
"30 524 LINE",
"30 469 LINE",
"125 469 LINE",
"125 55 LINE",
"30 55 LINE",
"30 0 LINE"
);
}
);
width = 952;
}
);
leftMetricsKey = n;
note = m;
rightKerningGroup = h;
unicode = 006D;
},
{
glyphname = n;
layers = (
{
layerId = "EE746D13-63D7-48F9-B77E-C723CA6A668B";
paths = (
{
closed = 1;
nodes = (
"319 0 LINE",
"319 55 LINE",
"230 55 LINE",
"230 286 LINE SMOOTH",
"230 305 OFFCURVE",
"232 323 OFFCURVE",
"235 340 CURVE SMOOTH",
"241 375 OFFCURVE",
"255 409 OFFCURVE",
"276 433 CURVE SMOOTH",
"296 456 OFFCURVE",
"327 471 OFFCURVE",
"365 471 CURVE SMOOTH",
"423 471 OFFCURVE",
"458 432 OFFCURVE",
"458 347 CURVE SMOOTH",
"458 55 LINE",
"369 55 LINE",
"369 0 LINE",
"663 0 LINE",
"663 55 LINE",
"563 55 LINE",
"563 348 LINE SMOOTH",
"563 372 OFFCURVE",
"561 393 OFFCURVE",
"557 412 CURVE SMOOTH",
"549 451 OFFCURVE",
"537 475 OFFCURVE",
"518 494 CURVE SMOOTH",
"499 514 OFFCURVE",
"482 523 OFFCURVE",
"459 530 CURVE SMOOTH",
"437 537 OFFCURVE",
"421 538 OFFCURVE",
"401 538 CURVE SMOOTH",
"333 538 OFFCURVE",
"259 499 OFFCURVE",
"227 426 CURVE",
"215 532 LINE",
"30 524 LINE",
"30 469 LINE",
"125 469 LINE",
"125 55 LINE",
"30 55 LINE",
"30 0 LINE"
);
}
);
width = 674;
}
);
note = n;
rightKerningGroup = n;
unicode = 006E;
},
{
glyphname = o;
layers = (
{
background = {
paths = (
{
closed = 1;
nodes = (
"355 -13 OFFCURVE",
"400 -1 OFFCURVE",
"439 24 CURVE SMOOTH",
"516 73 OFFCURVE",
"556 159 OFFCURVE",
"556 262 CURVE SMOOTH",
"556 340 OFFCURVE",
"532 409 OFFCURVE",
"490 458 CURVE SMOOTH",
"447 508 OFFCURVE",
"380 538 OFFCURVE",
"302 538 CURVE SMOOTH",
"250 538 OFFCURVE",
"204 526 OFFCURVE",
"165 501 CURVE SMOOTH",
"87 453 OFFCURVE",
"47 366 OFFCURVE",
"47 262 CURVE SMOOTH",
"47 103 OFFCURVE",
"147 -13 OFFCURVE",
"303 -13 CURVE SMOOTH"
);
},
{
closed = 1;
nodes = (
"214 49 OFFCURVE",
"159 131 OFFCURVE",
"159 256 CURVE SMOOTH",
"159 299 OFFCURVE",
"164 338 OFFCURVE",
"174 371 CURVE SMOOTH",
"193 437 OFFCURVE",
"238 480 OFFCURVE",
"302 480 CURVE SMOOTH",
"334 480 OFFCURVE",
"361 470 OFFCURVE",
"383 450 CURVE SMOOTH",
"427 410 OFFCURVE",
"444 344 OFFCURVE",
"444 256 CURVE SMOOTH",
"444 131 OFFCURVE",
"390 49 OFFCURVE",
"303 49 CURVE SMOOTH"
);
}
);
};
guideLines = (
{
angle = 90.104;
position = "{303, 263}";
}
);
layerId = "EE746D13-63D7-48F9-B77E-C723CA6A668B";
paths = (
{
closed = 1;
nodes = (
"459 -13 OFFCURVE",
"556 104 OFFCURVE",
"556 262 CURVE SMOOTH",
"556 419 OFFCURVE",
"462 538 OFFCURVE",
"302 538 CURVE SMOOTH",
"147 538 OFFCURVE",
"47 424 OFFCURVE",
"47 262 CURVE SMOOTH",
"47 103 OFFCURVE",
"147 -13 OFFCURVE",
"303 -13 CURVE SMOOTH"
);
},
{
closed = 1;
nodes = (
"214 49 OFFCURVE",
"159 131 OFFCURVE",
"159 256 CURVE SMOOTH",
"159 377 OFFCURVE",
"200 480 OFFCURVE",
"302 480 CURVE SMOOTH",
"404 480 OFFCURVE",
"444 380 OFFCURVE",
"444 256 CURVE SMOOTH",
"444 131 OFFCURVE",
"390 49 OFFCURVE",
"303 49 CURVE SMOOTH"
);
}
);
width = 603;
}
);
leftKerningGroup = c;
note = o;
rightKerningGroup = b;
unicode = 006F;
},
{
glyphname = oslash;
layers = (
{
layerId = "EE746D13-63D7-48F9-B77E-C723CA6A668B";
paths = (
{
closed = 1;
nodes = (
"134 38 LINE",
"178 4 OFFCURVE",
"230 -13 OFFCURVE",
"292 -13 CURVE SMOOTH",
"344 -13 OFFCURVE",
"389 -1 OFFCURVE",
"428 24 CURVE SMOOTH",
"505 73 OFFCURVE",
"545 159 OFFCURVE",
"545 262 CURVE SMOOTH",
"545 337 OFFCURVE",
"525 399 OFFCURVE",
"485 450 CURVE",
"575 555 LINE",
"543 581 LINE",
"457 480 LINE",
"412 519 OFFCURVE",
"357 538 OFFCURVE",
"291 538 CURVE SMOOTH",
"239 538 OFFCURVE",
"193 526 OFFCURVE",
"154 501 CURVE SMOOTH",
"76 453 OFFCURVE",
"36 366 OFFCURVE",
"36 262 CURVE SMOOTH",
"36 183 OFFCURVE",
"59 118 OFFCURVE",
"104 66 CURVE",
"23 -28 LINE",
"55 -54 LINE"
);
},
{
closed = 1;
nodes = (
"250 49 OFFCURVE",
"215 67 OFFCURVE",
"189 103 CURVE",
"418 371 LINE",
"428 339 OFFCURVE",
"433 301 OFFCURVE",
"433 256 CURVE SMOOTH",
"433 131 OFFCURVE",
"379 49 OFFCURVE",
"292 49 CURVE SMOOTH"
);
},
{
closed = 1;
nodes = (
"154 174 OFFCURVE",
"148 212 OFFCURVE",
"148 256 CURVE SMOOTH",
"148 299 OFFCURVE",
"153 338 OFFCURVE",
"163 371 CURVE SMOOTH",
"182 437 OFFCURVE",
"227 480 OFFCURVE",
"291 480 CURVE SMOOTH",
"339 480 OFFCURVE",
"375 458 OFFCURVE",
"400 414 CURVE",
"167 142 LINE"
);
}
);
width = 581;
}
);
leftKerningGroup = c;
note = oslash;
rightKerningGroup = b;
unicode = 00F8;
},
{
glyphname = oe;
layers = (
{
layerId = "EE746D13-63D7-48F9-B77E-C723CA6A668B";
paths = (
{
closed = 1;
nodes = (
"804 -14 OFFCURVE",
"886 55 OFFCURVE",
"912 163 CURVE",
"854 181 LINE",
"833 104 OFFCURVE",
"767 60 OFFCURVE",
"699 60 CURVE SMOOTH",
"646 60 OFFCURVE",
"605 83 OFFCURVE",
"582 122 CURVE SMOOTH",
"558 161 OFFCURVE",
"545 209 OFFCURVE",
"545 265 CURVE SMOOTH",
"545 269 LINE",
"922 269 LINE",
"920 355 OFFCURVE",
"894 426 OFFCURVE",
"851 470 CURVE SMOOTH",
"808 515 OFFCURVE",
"749 539 OFFCURVE",
"683 539 CURVE SMOOTH",
"601 539 OFFCURVE",
"534 503 OFFCURVE",
"491 443 CURVE",
"443 506 OFFCURVE",
"377 538 OFFCURVE",
"291 538 CURVE SMOOTH",
"239 538 OFFCURVE",
"193 526 OFFCURVE",
"154 501 CURVE SMOOTH",
"76 453 OFFCURVE",
"36 366 OFFCURVE",
"36 262 CURVE SMOOTH",
"36 103 OFFCURVE",
"136 -13 OFFCURVE",
"292 -13 CURVE SMOOTH",
"376 -13 OFFCURVE",
"445 21 OFFCURVE",
"490 81 CURVE",
"535 22 OFFCURVE",
"603 -14 OFFCURVE",
"688 -14 CURVE SMOOTH"
);
},
{
closed = 1;
nodes = (
"203 49 OFFCURVE",
"148 131 OFFCURVE",
"148 256 CURVE SMOOTH",
"148 299 OFFCURVE",
"153 338 OFFCURVE",
"163 371 CURVE SMOOTH",
"182 437 OFFCURVE",
"227 480 OFFCURVE",
"291 480 CURVE SMOOTH",
"323 480 OFFCURVE",
"350 470 OFFCURVE",
"372 450 CURVE SMOOTH",
"416 410 OFFCURVE",
"433 344 OFFCURVE",
"433 256 CURVE SMOOTH",
"433 131 OFFCURVE",
"379 49 OFFCURVE",
"292 49 CURVE SMOOTH"
);
},
{
closed = 1;
nodes = (
"557 417 OFFCURVE",
"614 481 OFFCURVE",
"686 481 CURVE SMOOTH",
"756 481 OFFCURVE",
"812 416 OFFCURVE",
"814 322 CURVE",
"549 322 LINE"
);
}
);
width = 959;
}
);
leftKerningGroup = c;
note = oe;
rightKerningGroup = e;
unicode = 0153;
},
{
glyphname = p;
layers = (
{
layerId = "EE746D13-63D7-48F9-B77E-C723CA6A668B";
paths = (
{
closed = 1;
nodes = (
"321 -196 LINE",
"321 -136 LINE",
"213 -136 LINE",
"213 65 LINE",
"246 16 OFFCURVE",
"299 -13 OFFCURVE",
"357 -13 CURVE SMOOTH",
"493 -13 OFFCURVE",
"579 101 OFFCURVE",
"579 263 CURVE SMOOTH",
"579 314 OFFCURVE",
"570 360 OFFCURVE",
"553 402 CURVE SMOOTH",
"518 485 OFFCURVE",
"451 538 OFFCURVE",
"369 538 CURVE SMOOTH",
"301 538 OFFCURVE",
"245 504 OFFCURVE",
"210 440 CURVE",
"210 538 LINE",
"13 524 LINE",
"13 469 LINE",
"108 469 LINE",
"108 -137 LINE",
"-7 -137 LINE",
"-7 -196 LINE"
);
},
{
closed = 1;
nodes = (
"292 42 OFFCURVE",
"256 70 OFFCURVE",
"236 114 CURVE SMOOTH",
"216 157 OFFCURVE",
"206 207 OFFCURVE",
"206 260 CURVE SMOOTH",
"206 386 OFFCURVE",
"260 476 OFFCURVE",
"338 476 CURVE SMOOTH",
"365 476 OFFCURVE",
"388 466 OFFCURVE",
"408 446 CURVE SMOOTH",
"449 405 OFFCURVE",
"467 341 OFFCURVE",
"467 269 CURVE SMOOTH",
"467 213 OFFCURVE",
"457 161 OFFCURVE",
"438 116 CURVE SMOOTH",
"418 71 OFFCURVE",
"383 42 OFFCURVE",
"338 42 CURVE SMOOTH"
);
}
);
width = 626;
}
);
note = p;
rightKerningGroup = b;
rightMetricsKey = b;
unicode = 0070;
},
{
glyphname = thorn;
layers = (
{
layerId = "EE746D13-63D7-48F9-B77E-C723CA6A668B";
paths = (
{
closed = 1;
nodes = (
"321 -196 LINE",
"321 -136 LINE",
"213 -136 LINE",
"213 65 LINE",
"246 16 OFFCURVE",
"299 -13 OFFCURVE",
"357 -13 CURVE SMOOTH",
"493 -13 OFFCURVE",
"579 101 OFFCURVE",
"579 263 CURVE SMOOTH",
"579 314 OFFCURVE",
"570 360 OFFCURVE",
"553 402 CURVE SMOOTH",
"518 485 OFFCURVE",
"451 538 OFFCURVE",
"369 538 CURVE SMOOTH",
"301 538 OFFCURVE",
"245 504 OFFCURVE",
"210 440 CURVE",
"210 750 LINE",
"13 750 LINE",
"13 695 LINE",
"108 695 LINE",
"108 -137 LINE",
"-7 -137 LINE",
"-7 -196 LINE"
);
},
{
closed = 1;
nodes = (
"292 42 OFFCURVE",
"256 70 OFFCURVE",
"236 114 CURVE SMOOTH",
"216 157 OFFCURVE",
"206 207 OFFCURVE",
"206 260 CURVE SMOOTH",
"206 386 OFFCURVE",
"260 476 OFFCURVE",
"338 476 CURVE SMOOTH",
"365 476 OFFCURVE",
"388 466 OFFCURVE",
"408 446 CURVE SMOOTH",
"448 405 OFFCURVE",
"467 341 OFFCURVE",
"467 269 CURVE SMOOTH",
"467 213 OFFCURVE",
"458 161 OFFCURVE",
"438 116 CURVE SMOOTH",
"418 71 OFFCURVE",
"383 42 OFFCURVE",
"338 42 CURVE SMOOTH"
);
}
);
width = 623;
}
);
note = thorn;
rightKerningGroup = b;
unicode = 00FE;
},
{
glyphname = q;
layers = (
{
layerId = "EE746D13-63D7-48F9-B77E-C723CA6A668B";
paths = (
{
closed = 1;
nodes = (
"622 -195 LINE",
"622 -135 LINE",
"521 -135 LINE",
"521 524 LINE",
"476 524 LINE",
"438 428 LINE",
"406 503 OFFCURVE",
"338 538 OFFCURVE",
"266 538 CURVE SMOOTH",
"223 538 OFFCURVE",
"185 526 OFFCURVE",
"152 502 CURVE SMOOTH",
"85 454 OFFCURVE",
"46 366 OFFCURVE",
"46 263 CURVE SMOOTH",
"46 101 OFFCURVE",
"135 -13 OFFCURVE",
"271 -13 CURVE SMOOTH",
"329 -13 OFFCURVE",
"383 16 OFFCURVE",
"416 65 CURVE",
"416 -135 LINE",
"310 -134 LINE",
"310 -195 LINE"
);
},
{
closed = 1;
nodes = (
"241 42 OFFCURVE",
"206 71 OFFCURVE",
"187 116 CURVE SMOOTH",
"167 161 OFFCURVE",
"158 212 OFFCURVE",
"158 269 CURVE SMOOTH",
"158 305 OFFCURVE",
"163 339 OFFCURVE",
"172 370 CURVE SMOOTH",
"191 433 OFFCURVE",
"233 480 OFFCURVE",
"286 480 CURVE SMOOTH",
"312 480 OFFCURVE",
"335 469 OFFCURVE",
"355 448 CURVE SMOOTH",
"395 404 OFFCURVE",
"416 329 OFFCURVE",
"416 263 CURVE SMOOTH",
"416 197 OFFCURVE",
"405 152 OFFCURVE",
"385 111 CURVE SMOOTH",
"365 70 OFFCURVE",
"329 42 OFFCURVE",
"286 42 CURVE SMOOTH"
);
}
);
width = 622;
}
);
leftKerningGroup = c;
leftMetricsKey = d;
note = q;
unicode = 0071;
},
{
glyphname = r;
layers = (
{
layerId = "EE746D13-63D7-48F9-B77E-C723CA6A668B";
paths = (
{
closed = 1;
nodes = (
"340 0 LINE",
"340 55 LINE",
"230 55 LINE",
"230 281 LINE SMOOTH",
"230 329 OFFCURVE",
"238 375 OFFCURVE",
"255 415 CURVE SMOOTH",
"272 456 OFFCURVE",
"302 482 OFFCURVE",
"341 482 CURVE",
"336 477 LINE",
"330 469 OFFCURVE",
"321 453 OFFCURVE",
"321 439 CURVE SMOOTH",
"321 399 OFFCURVE",
"353 374 OFFCURVE",
"391 374 CURVE SMOOTH",
"431 374 OFFCURVE",
"465 403 OFFCURVE",
"465 454 CURVE SMOOTH",
"465 507 OFFCURVE",
"422 538 OFFCURVE",
"369 538 CURVE SMOOTH",
"330 538 OFFCURVE",
"295 521 OFFCURVE",
"273 496 CURVE SMOOTH",
"250 471 OFFCURVE",
"236 445 OFFCURVE",
"228 418 CURVE",
"215 532 LINE",
"30 524 LINE",
"30 469 LINE",
"125 469 LINE",
"125 55 LINE",
"30 55 LINE",
"30 0 LINE"
);
}
);
width = 473;
}
);
leftKerningGroup = r;
leftMetricsKey = n;
note = r;
rightKerningGroup = r;
unicode = 0072;
},
{
glyphname = s;
layers = (
{
layerId = "EE746D13-63D7-48F9-B77E-C723CA6A668B";
paths = (
{
closed = 1;
nodes = (
"386 -13 OFFCURVE",
"488 42 OFFCURVE",
"488 146 CURVE SMOOTH",
"488 234 OFFCURVE",
"421 276 OFFCURVE",
"320 307 CURVE SMOOTH",
"234 333 OFFCURVE",
"152 352 OFFCURVE",
"152 402 CURVE SMOOTH",
"152 455 OFFCURVE",
"205 480 OFFCURVE",
"272 480 CURVE SMOOTH",
"312 480 OFFCURVE",
"349 472 OFFCURVE",
"381 456 CURVE",
"362 445 OFFCURVE",
"344 430 OFFCURVE",
"344 402 CURVE SMOOTH",
"344 363 OFFCURVE",
"374 339 OFFCURVE",
"411 339 CURVE SMOOTH",
"445 339 OFFCURVE",
"474 369 OFFCURVE",
"474 412 CURVE SMOOTH",
"474 491 OFFCURVE",
"358 538 OFFCURVE",
"266 538 CURVE SMOOTH",
"161 538 OFFCURVE",
"61 487 OFFCURVE",
"61 392 CURVE SMOOTH",
"61 305 OFFCURVE",
"137 265 OFFCURVE",
"228 240 CURVE SMOOTH",
"317 216 OFFCURVE",
"395 196 OFFCURVE",
"395 134 CURVE SMOOTH",
"395 74 OFFCURVE",
"340 47 OFFCURVE",
"266 47 CURVE SMOOTH",
"208 47 OFFCURVE",
"161 66 OFFCURVE",
"142 84 CURVE",
"166 84 OFFCURVE",
"189 108 OFFCURVE",
"189 141 CURVE SMOOTH",
"189 180 OFFCURVE",
"160 200 OFFCURVE",
"123 200 CURVE SMOOTH",
"88 200 OFFCURVE",
"57 170 OFFCURVE",
"57 128 CURVE SMOOTH",
"57 40 OFFCURVE",
"165 -13 OFFCURVE",
"269 -13 CURVE SMOOTH"
);
}
);
width = 528;
}
);
unicode = 0073;
},
{
glyphname = s.alt;
layers = (
{
layerId = "EE746D13-63D7-48F9-B77E-C723CA6A668B";
paths = (
{
closed = 1;
nodes = (
"273 -13 OFFCURVE",
"294 -12 OFFCURVE",
"314 -9 CURVE SMOOTH",
"354 -3 OFFCURVE",
"396 12 OFFCURVE",
"423 36 CURVE SMOOTH",
"451 59 OFFCURVE",
"470 97 OFFCURVE",
"470 144 CURVE SMOOTH",
"470 191 OFFCURVE",
"449 229 OFFCURVE",
"418 252 CURVE SMOOTH",
"386 275 OFFCURVE",
"345 295 OFFCURVE",
"302 307 CURVE SMOOTH",
"260 318 OFFCURVE",
"218 332 OFFCURVE",
"187 344 CURVE SMOOTH",
"155 356 OFFCURVE",
"134 376 OFFCURVE",
"134 402 CURVE SMOOTH",
"134 455 OFFCURVE",
"187 486 OFFCURVE",
"254 486 CURVE SMOOTH",
"294 486 OFFCURVE",
"331 478 OFFCURVE",
"363 462 CURVE",
"356 458 OFFCURVE",
"350 454 OFFCURVE",
"346 451 CURVE",
"338 444 OFFCURVE",
"326 427 OFFCURVE",
"326 408 CURVE SMOOTH",
"326 369 OFFCURVE",
"356 345 OFFCURVE",
"393 345 CURVE SMOOTH",
"427 345 OFFCURVE",
"456 375 OFFCURVE",
"456 418 CURVE SMOOTH",
"456 456 OFFCURVE",
"427 489 OFFCURVE",
"386 508 CURVE SMOOTH",
"345 527 OFFCURVE",
"295 538 OFFCURVE",
"248 538 CURVE SMOOTH",
"232 538 OFFCURVE",
"215 537 OFFCURVE",
"198 534 CURVE SMOOTH",
"164 528 OFFCURVE",
"123 513 OFFCURVE",
"94 492 CURVE SMOOTH",
"64 470 OFFCURVE",
"43 434 OFFCURVE",
"43 389 CURVE SMOOTH",
"43 345 OFFCURVE",
"64 310 OFFCURVE",
"95 289 CURVE SMOOTH",
"126 268 OFFCURVE",
"168 250 OFFCURVE",
"210 240 CURVE SMOOTH",
"251 229 OFFCURVE",
"293 214 OFFCURVE",
"325 200 CURVE SMOOTH",
"356 186 OFFCURVE",
"377 160 OFFCURVE",
"377 129 CURVE SMOOTH",
"377 108 OFFCURVE",
"370 91 OFFCURVE",
"356 78 CURVE SMOOTH",
"328 51 OFFCURVE",
"289 43 OFFCURVE",
"238 43 CURVE SMOOTH",
"195 43 OFFCURVE",
"148 57 OFFCURVE",
"124 75 CURVE",
"148 75 OFFCURVE",
"171 99 OFFCURVE",
"171 132 CURVE SMOOTH",
"171 171 OFFCURVE",
"142 191 OFFCURVE",
"105 191 CURVE SMOOTH",
"70 191 OFFCURVE",
"39 161 OFFCURVE",
"39 119 CURVE SMOOTH",
"39 73 OFFCURVE",
"66 36 OFFCURVE",
"109 17 CURVE SMOOTH",
"152 -3 OFFCURVE",
"200 -13 OFFCURVE",
"251 -13 CURVE SMOOTH"
);
}
);
width = 508;
}
);
leftKerningGroup = s;
note = s;
rightKerningGroup = s;
},
{
glyphname = germandbls;
layers = (
{
layerId = "EE746D13-63D7-48F9-B77E-C723CA6A668B";
paths = (
{
closed = 1;
nodes = (
"210 0 LINE",
"210 479 LINE SMOOTH",
"210 595 OFFCURVE",
"250 661 OFFCURVE",
"332 661 CURVE SMOOTH",
"395 661 OFFCURVE",
"435 624 OFFCURVE",
"435 561 CURVE SMOOTH",
"435 536 OFFCURVE",
"421 511 OFFCURVE",
"402 494 CURVE SMOOTH",
"340 440 LINE SMOOTH",
"320 424 OFFCURVE",
"306 399 OFFCURVE",
"306 374 CURVE SMOOTH",
"306 364 OFFCURVE",
"310 354 OFFCURVE",
"317 345 CURVE SMOOTH",
"331 327 OFFCURVE",
"355 315 OFFCURVE",
"383 302 CURVE SMOOTH",
"410 288 OFFCURVE",
"439 272 OFFCURVE",
"462 253 CURVE SMOOTH",
"485 234 OFFCURVE",
"501 205 OFFCURVE",
"501 170 CURVE SMOOTH",
"501 132 OFFCURVE",
"483 104 OFFCURVE",
"447 85 CURVE SMOOTH",
"410 67 OFFCURVE",
"353 58 OFFCURVE",
"274 58 CURVE",
"274 0 LINE",
"294 0 OFFCURVE",
"313 0 OFFCURVE",
"331 1 CURVE SMOOTH",
"366 2 OFFCURVE",
"418 8 OFFCURVE",
"456 17 CURVE SMOOTH",
"493 26 OFFCURVE",
"536 44 OFFCURVE",
"562 67 CURVE SMOOTH",
"587 91 OFFCURVE",
"606 127 OFFCURVE",
"606 171 CURVE SMOOTH",
"606 218 OFFCURVE",
"583 260 OFFCURVE",
"553 285 CURVE SMOOTH",
"522 310 OFFCURVE",
"484 332 OFFCURVE",
"454 344 CURVE SMOOTH",
"438 350 OFFCURVE",
"426 356 OFFCURVE",
"416 361 CURVE SMOOTH",
"405 367 OFFCURVE",
"400 372 OFFCURVE",
"400 376 CURVE SMOOTH",
"400 379 OFFCURVE",
"404 384 OFFCURVE",
"413 390 CURVE SMOOTH",
"430 402 OFFCURVE",
"457 421 OFFCURVE",
"481 445 CURVE SMOOTH",
"505 469 OFFCURVE",
"525 509 OFFCURVE",
"525 552 CURVE SMOOTH",
"525 669 OFFCURVE",
"448 727 OFFCURVE",
"328 727 CURVE SMOOTH",
"185 727 OFFCURVE",
"105 642 OFFCURVE",
"105 479 CURVE SMOOTH",
"105 58 LINE",
"33 58 LINE",
"33 0 LINE"
);
}
);
width = 642;
}
);
note = germandbls;
unicode = 00DF;
},
{
glyphname = t;
layers = (
{
layerId = "EE746D13-63D7-48F9-B77E-C723CA6A668B";
paths = (
{
closed = 1;
nodes = (
"381 -13 OFFCURVE",
"421 52 OFFCURVE",
"421 181 CURVE SMOOTH",
"421 241 LINE",
"362 241 LINE",
"362 171 LINE SMOOTH",
"362 85 OFFCURVE",
"335 55 OFFCURVE",
"283 55 CURVE SMOOTH",
"240 55 OFFCURVE",
"212 84 OFFCURVE",
"212 141 CURVE SMOOTH",
"212 468 LINE",
"404 468 LINE",
"404 524 LINE",
"212 524 LINE",
"212 735 LINE",
"181 735 LINE",
"163 641 OFFCURVE",
"94 518 OFFCURVE",
"7 492 CURVE",
"7 469 LINE",
"107 469 LINE",
"107 144 LINE SMOOTH",
"107 91 OFFCURVE",
"127 49 OFFCURVE",
"157 24 CURVE SMOOTH",
"187 -1 OFFCURVE",
"225 -13 OFFCURVE",
"265 -13 CURVE SMOOTH"
);
}
);
width = 435;
}
);
leftKerningGroup = t;
note = t;
unicode = 0074;
},
{
glyphname = u;
layers = (
{
background = {
paths = (
{
closed = 1;
nodes = (
"362 525 LINE",
"362 470 LINE",
"451 470 LINE",
"451 239 LINE SMOOTH",
"451 220 OFFCURVE",
"449 202 OFFCURVE",
"446 185 CURVE SMOOTH",
"440 150 OFFCURVE",
"426 116 OFFCURVE",
"405 92 CURVE SMOOTH",
"385 69 OFFCURVE",
"354 54 OFFCURVE",
"316 54 CURVE SMOOTH",
"258 54 OFFCURVE",
"223 93 OFFCURVE",
"223 178 CURVE SMOOTH",
"223 470 LINE",
"312 470 LINE",
"312 525 LINE",
"18 525 LINE",
"18 469 LINE",
"118 470 LINE",
"118 176 LINE SMOOTH",
"118 152 OFFCURVE",
"120 131 OFFCURVE",
"124 112 CURVE SMOOTH",
"132 74 OFFCURVE",
"144 50 OFFCURVE",
"163 31 CURVE SMOOTH",
"183 11 OFFCURVE",
"199 2 OFFCURVE",
"222 -5 CURVE SMOOTH",
"244 -12 OFFCURVE",
"260 -13 OFFCURVE",
"280 -13 CURVE SMOOTH",
"348 -13 OFFCURVE",
"422 26 OFFCURVE",
"454 99 CURVE",
"466 -7 LINE",
"651 1 LINE",
"651 56 LINE",
"556 56 LINE",
"556 470 LINE",
"651 470 LINE",
"651 525 LINE"
);
}
);
};
guideLines = (
{
position = "{431, 83}";
},
{
angle = 90;
position = "{316, 54}";
}
);
layerId = "EE746D13-63D7-48F9-B77E-C723CA6A668B";
paths = (
{
closed = 1;
nodes = (
"652 0 LINE",
"652 55 LINE",
"557 55 LINE",
"557 524 LINE",
"363 524 LINE",
"363 469 LINE",
"451 469 LINE",
"451 239 LINE SMOOTH",
"451 144 OFFCURVE",
"410 54 OFFCURVE",
"316 54 CURVE SMOOTH",
"258 54 OFFCURVE",
"222 93 OFFCURVE",
"222 178 CURVE SMOOTH",
"222 524 LINE",
"18 524 LINE",
"18 469 LINE",
"117 469 LINE",
"117 176 LINE SMOOTH",
"117 65 OFFCURVE",
"165 -13 OFFCURVE",
"279 -13 CURVE SMOOTH",
"356 -13 OFFCURVE",
"422 26 OFFCURVE",
"454 99 CURVE",
"474 0 LINE"
);
}
);
width = 666;
}
);
leftKerningGroup = u;
note = u;
rightKerningGroup = u;
unicode = 0075;
},
{
glyphname = v;
layers = (
{
guideLines = (
{
angle = 110.1399;
position = "{176, 235}";
},
{
angle = 110.1399;
position = "{286, 235}";
},
{
angle = 70.5089;
position = "{460, 235}";
},
{
angle = 70.5089;
position = "{384, 235}";
}
);
layerId = "EE746D13-63D7-48F9-B77E-C723CA6A668B";
paths = (
{
closed = 1;
nodes = (
"377 0 LINE",
"543 469 LINE",
"627 469 LINE",
"627 524 LINE",
"377 524 LINE",
"377 469 LINE",
"467 469 LINE",
"336 99 LINE",
"200 469 LINE",
"295 469 LINE",
"295 524 LINE",
"0 524 LINE",
"0 469 LINE",
"90 469 LINE",
"262 0 LINE"
);
}
);
width = 627;
}
);
unicode = 0076;
},
{
glyphname = w;
layers = (
{
guideLines = (
{
angle = 110;
position = "{171, 235}";
},
{
angle = 110;
position = "{281, 235}";
},
{
angle = 71;
position = "{765, 235}";
},
{
angle = 71;
position = "{689, 235}";
},
{
angle = 71.6633;
position = "{418, 175}";
},
{
angle = 71.6633;
position = "{342, 175}";
},
{
angle = 90;
position = "{462, 128}";
},
{
angle = -72.8513;
position = "{527, 175}";
},
{
angle = -72.8513;
position = "{637, 175}";
}
);
layerId = "EE746D13-63D7-48F9-B77E-C723CA6A668B";
paths = (
{
closed = 1;
nodes = (
"360 0 LINE",
"476 350 LINE",
"590 0 LINE",
"693 0 LINE",
"846 469 LINE",
"930 469 LINE",
"930 524 LINE",
"680 524 LINE",
"680 469 LINE",
"770 469 LINE",
"661 127 LINE",
"544 468 LINE",
"441 468 LINE",
"323 127 LINE",
"196 469 LINE",
"293 469 LINE",
"293 524 LINE",
"0 524 LINE",
"0 469 LINE",
"86 469 LINE",
"257 0 LINE"
);
}
);
width = 930;
}
);
unicode = 0077;
},
{
glyphname = x;
layers = (
{
guideLines = (
{
angle = 126;
position = "{279, 207}";
},
{
angle = 126;
position = "{359, 271}";
},
{
angle = 53.9275;
position = "{373, 394}";
},
{
angle = 53.9275;
position = "{449, 394}";
},
{
angle = 90;
position = "{318, 318}";
}
);
layerId = "EE746D13-63D7-48F9-B77E-C723CA6A668B";
paths = (
{
closed = 1;
nodes = (
"238 0 LINE",
"238 55 LINE",
"168 55 LINE",
"279 207 LINE",
"390 55 LINE",
"321 55 LINE",
"321 0 LINE",
"586 0 LINE",
"586 55 LINE",
"516 55 LINE",
"359 271 LINE",
"504 469 LINE",
"581 469 LINE",
"581 524 LINE",
"362 524 LINE",
"362 469 LINE",
"428 469 LINE",
"318 318 LINE",
"208 469 LINE",
"275 469 LINE",
"275 524 LINE",
"11 524 LINE",
"11 469 LINE",
"81 469 LINE",
"237 254 LINE",
"92 55 LINE",
"15 55 LINE",
"15 0 LINE"
);
}
);
width = 597;
}
);
leftKerningGroup = x;
note = x;
rightKerningGroup = x;
unicode = 0078;
},
{
glyphname = y;
layers = (
{
guideLines = (
{
angle = 90;
position = "{13, -119}";
},
{
position = "{107, -31}";
},
{
angle = 112.0069;
position = "{180, 229}";
},
{
angle = 112.0069;
position = "{290, 229}";
},
{
angle = 70.3693;
position = "{463, 234}";
},
{
angle = 70.3693;
position = "{387, 234}";
}
);
layerId = "EE746D13-63D7-48F9-B77E-C723CA6A668B";
paths = (
{
closed = 1;
nodes = (
"262 -228 OFFCURVE",
"319 -169 OFFCURVE",
"379 -2 CURVE SMOOTH",
"547 469 LINE",
"624 469 LINE",
"624 524 LINE",
"390 524 LINE",
"390 469 LINE",
"471 469 LINE",
"341 104 LINE",
"193 469 LINE",
"282 469 LINE",
"282 524 LINE",
"0 524 LINE",
"0 469 LINE",
"83 469 LINE",
"289 -41 LINE",
"250 -149 OFFCURVE",
"206 -184 OFFCURVE",
"169 -184 CURVE SMOOTH",
"151 -184 OFFCURVE",
"142 -179 OFFCURVE",
"135 -173 CURVE",
"146 -167 OFFCURVE",
"168 -149 OFFCURVE",
"168 -113 CURVE SMOOTH",
"168 -73 OFFCURVE",
"136 -41 OFFCURVE",
"96 -41 CURVE SMOOTH",
"55 -41 OFFCURVE",
"23 -73 OFFCURVE",
"23 -113 CURVE SMOOTH",
"23 -177 OFFCURVE",
"85 -228 OFFCURVE",
"165 -228 CURVE SMOOTH"
);
}
);
width = 620;
}
);
leftKerningGroup = y;
note = y;
rightKerningGroup = y;
unicode = 0079;
},
{
glyphname = z;
layers = (
{
layerId = "EE746D13-63D7-48F9-B77E-C723CA6A668B";
paths = (
{
closed = 1;
nodes = (
"479 0 LINE",
"479 204 LINE",
"399 204 LINE",
"399 55 LINE",
"152 55 LINE",
"477 451 LINE",
"477 524 LINE",
"62 524 LINE",
"62 335 LINE",
"142 335 LINE",
"142 469 LINE",
"369 469 LINE",
"48 77 LINE",
"47 77 LINE",
"47 0 LINE"
);
}
);
width = 557;
}
);
note = z;
rightKerningGroup = z;
unicode = 007A;
},
{
glyphname = c_h;
layers = (
{
layerId = "EE746D13-63D7-48F9-B77E-C723CA6A668B";
paths = (
{
closed = 1;
nodes = (
"411 -14 OFFCURVE",
"494 56 OFFCURVE",
"519 163 CURVE",
"464 181 LINE",
"458 160 OFFCURVE",
"440 135 OFFCURVE",
"415 110 CURVE SMOOTH",
"390 84 OFFCURVE",
"351 66 OFFCURVE",
"311 66 CURVE SMOOTH",
"208 66 OFFCURVE",
"147 143 OFFCURVE",
"147 268 CURVE SMOOTH",
"147 322 OFFCURVE",
"161 373 OFFCURVE",
"188 415 CURVE SMOOTH",
"215 456 OFFCURVE",
"261 483 OFFCURVE",
"318 483 CURVE SMOOTH",
"369 483 OFFCURVE",
"410 458 OFFCURVE",
"431 424 CURVE",
"391 424 OFFCURVE",
"356 399 OFFCURVE",
"356 357 CURVE SMOOTH",
"356 315 OFFCURVE",
"389 288 OFFCURVE",
"431 288 CURVE SMOOTH",
"479 288 OFFCURVE",
"508 329 OFFCURVE",
"508 367 CURVE SMOOTH",
"508 384 OFFCURVE",
"504 402 OFFCURVE",
"497 420 CURVE SMOOTH",
"481 456 OFFCURVE",
"458 486 OFFCURVE",
"437 516 CURVE SMOOTH",
"415 545 OFFCURVE",
"398 579 OFFCURVE",
"398 607 CURVE SMOOTH",
"398 644 OFFCURVE",
"415 666 OFFCURVE",
"479 680 CURVE SMOOTH",
"512 687 OFFCURVE",
"556 690 OFFCURVE",
"613 690 CURVE",
"613 57 LINE",
"523 57 LINE",
"523 0 LINE",
"813 0 LINE",
"813 57 LINE",
"718 57 LINE",
"718 292 LINE SMOOTH",
"718 387 OFFCURVE",
"798 469 OFFCURVE",
"868 469 CURVE SMOOTH",
"915 469 OFFCURVE",
"946 433 OFFCURVE",
"946 357 CURVE SMOOTH",
"946 57 LINE",
"851 57 LINE",
"851 0 LINE",
"1156 0 LINE",
"1156 57 LINE",
"1051 57 LINE",
"1051 353 LINE SMOOTH",
"1051 385 OFFCURVE",
"1047 413 OFFCURVE",
"1039 437 CURVE SMOOTH",
"1023 484 OFFCURVE",
"1001 506 OFFCURVE",
"970 521 CURVE SMOOTH",
"938 536 OFFCURVE",
"917 538 OFFCURVE",
"889 538 CURVE SMOOTH",
"868 538 OFFCURVE",
"848 535 OFFCURVE",
"828 529 CURVE SMOOTH",
"787 516 OFFCURVE",
"743 482 OFFCURVE",
"718 431 CURVE",
"718 750 LINE",
"624 750 LINE SMOOTH",
"552 750 OFFCURVE",
"494 745 OFFCURVE",
"451 734 CURVE SMOOTH",
"365 713 OFFCURVE",
"335 677 OFFCURVE",
"335 617 CURVE SMOOTH",
"335 614 OFFCURVE",
"336 611 OFFCURVE",
"336 608 CURVE SMOOTH",
"337 602 OFFCURVE",
"338 598 OFFCURVE",
"340 590 CURVE",
"342 586 OFFCURVE",
"343 583 OFFCURVE",
"343 582 CURVE",
"344 579 OFFCURVE",
"345 576 OFFCURVE",
"347 572 CURVE SMOOTH",
"351 564 OFFCURVE",
"352 563 OFFCURVE",
"356 554 CURVE SMOOTH",
"361 546 LINE",
"362 543 OFFCURVE",
"370 529 OFFCURVE",
"370 529 CURVE",
"347 536 OFFCURVE",
"324 539 OFFCURVE",
"301 539 CURVE SMOOTH",
"267 539 OFFCURVE",
"235 534 OFFCURVE",
"207 523 CURVE SMOOTH",
"149 502 OFFCURVE",
"108 466 OFFCURVE",
"79 417 CURVE SMOOTH",
"50 369 OFFCURVE",
"36 312 OFFCURVE",
"36 252 CURVE SMOOTH",
"36 172 OFFCURVE",
"64 103 OFFCURVE",
"110 58 CURVE SMOOTH",
"155 12 OFFCURVE",
"219 -14 OFFCURVE",
"289 -14 CURVE SMOOTH"
);
}
);
width = 1163;
}
);
leftKerningGroup = c;
note = c_h;
rightKerningGroup = h;
},
{
glyphname = c_k;
layers = (
{
layerId = "EE746D13-63D7-48F9-B77E-C723CA6A668B";
paths = (
{
closed = 1;
nodes = (
"411 -14 OFFCURVE",
"494 56 OFFCURVE",
"519 163 CURVE",
"464 181 LINE",
"458 160 OFFCURVE",
"440 135 OFFCURVE",
"415 110 CURVE SMOOTH",
"390 84 OFFCURVE",
"351 66 OFFCURVE",
"311 66 CURVE SMOOTH",
"208 66 OFFCURVE",
"147 143 OFFCURVE",
"147 268 CURVE SMOOTH",
"147 322 OFFCURVE",
"161 373 OFFCURVE",
"188 415 CURVE SMOOTH",
"215 456 OFFCURVE",
"261 483 OFFCURVE",
"318 483 CURVE SMOOTH",
"369 483 OFFCURVE",
"410 458 OFFCURVE",
"431 424 CURVE",
"391 424 OFFCURVE",
"356 399 OFFCURVE",
"356 357 CURVE SMOOTH",
"356 315 OFFCURVE",
"389 288 OFFCURVE",
"431 288 CURVE SMOOTH",
"479 288 OFFCURVE",
"508 329 OFFCURVE",
"508 367 CURVE SMOOTH",
"508 384 OFFCURVE",
"504 402 OFFCURVE",
"497 420 CURVE SMOOTH",
"481 456 OFFCURVE",
"458 486 OFFCURVE",
"437 516 CURVE SMOOTH",
"415 545 OFFCURVE",
"398 579 OFFCURVE",
"398 607 CURVE SMOOTH",
"398 644 OFFCURVE",
"415 666 OFFCURVE",
"479 680 CURVE SMOOTH",
"512 687 OFFCURVE",
"556 690 OFFCURVE",
"613 690 CURVE SMOOTH",
"630 690 LINE",
"630 57 LINE",
"531 57 LINE",
"531 0 LINE",
"818 0 LINE",
"818 57 LINE",
"735 57 LINE",
"735 204 LINE",
"816 266 LINE",
"914 97 LINE SMOOTH",
"955 27 OFFCURVE",
"1002 -10 OFFCURVE",
"1072 -10 CURVE SMOOTH",
"1106 -10 OFFCURVE",
"1127 -7 OFFCURVE",
"1159 11 CURVE",
"1145 77 LINE",
"1130 70 OFFCURVE",
"1113 67 OFFCURVE",
"1094 67 CURVE SMOOTH",
"1063 67 OFFCURVE",
"1030 88 OFFCURVE",
"1000 126 CURVE SMOOTH",
"969 165 OFFCURVE",
"948 197 OFFCURVE",
"917 248 CURVE SMOOTH",
"900 274 OFFCURVE",
"888 293 OFFCURVE",
"878 307 CURVE",
"1047 467 LINE",
"1140 467 LINE",
"1140 524 LINE",
"847 524 LINE",
"847 467 LINE",
"939 467 LINE",
"735 279 LINE",
"735 750 LINE",
"624 750 LINE SMOOTH",
"552 750 OFFCURVE",
"494 745 OFFCURVE",
"451 734 CURVE SMOOTH",
"365 713 OFFCURVE",
"335 677 OFFCURVE",
"335 617 CURVE SMOOTH",
"335 614 OFFCURVE",
"336 611 OFFCURVE",
"336 608 CURVE SMOOTH",
"337 602 OFFCURVE",
"338 598 OFFCURVE",
"340 590 CURVE",
"342 586 OFFCURVE",
"343 583 OFFCURVE",
"343 582 CURVE",
"344 579 OFFCURVE",
"345 576 OFFCURVE",
"347 572 CURVE SMOOTH",
"351 564 OFFCURVE",
"352 563 OFFCURVE",
"356 554 CURVE SMOOTH",
"361 546 LINE",
"362 543 OFFCURVE",
"370 529 OFFCURVE",
"370 529 CURVE",
"347 536 OFFCURVE",
"324 539 OFFCURVE",
"301 539 CURVE SMOOTH",
"267 539 OFFCURVE",
"235 534 OFFCURVE",
"207 523 CURVE SMOOTH",
"149 502 OFFCURVE",
"108 466 OFFCURVE",
"79 417 CURVE SMOOTH",
"50 369 OFFCURVE",
"36 312 OFFCURVE",
"36 252 CURVE SMOOTH",
"36 172 OFFCURVE",
"64 103 OFFCURVE",
"110 58 CURVE SMOOTH",
"155 12 OFFCURVE",
"219 -14 OFFCURVE",
"289 -14 CURVE SMOOTH"
);
}
);
width = 1148;
}
);
leftKerningGroup = c;
note = c_k;
},
{
glyphname = f_f;
layers = (
{
layerId = "EE746D13-63D7-48F9-B77E-C723CA6A668B";
paths = (
{
closed = 1;
nodes = (
"300 0 LINE",
"300 57 LINE",
"236 57 LINE",
"236 469 LINE",
"420 469 LINE",
"420 57 LINE",
"346 57 LINE",
"346 0 LINE",
"619 0 LINE",
"619 57 LINE",
"525 57 LINE",
"525 469 LINE",
"646 469 LINE",
"646 524 LINE",
"522 524 LINE",
"522 607 LINE SMOOTH",
"522 692 OFFCURVE",
"563 732 OFFCURVE",
"624 732 CURVE SMOOTH",
"658 732 OFFCURVE",
"692 715 OFFCURVE",
"693 691 CURVE",
"664 691 OFFCURVE",
"633 667 OFFCURVE",
"633 632 CURVE SMOOTH",
"633 593 OFFCURVE",
"661 566 OFFCURVE",
"696 566 CURVE SMOOTH",
"738 566 OFFCURVE",
"772 596 OFFCURVE",
"772 647 CURVE SMOOTH",
"772 678 OFFCURVE",
"762 706 OFFCURVE",
"739 731 CURVE SMOOTH",
"715 757 OFFCURVE",
"670 773 OFFCURVE",
"609 773 CURVE SMOOTH",
"566 773 OFFCURVE",
"516 750 OFFCURVE",
"478 710 CURVE",
"451 747 OFFCURVE",
"397 773 OFFCURVE",
"329 773 CURVE SMOOTH",
"193 773 OFFCURVE",
"131 691 OFFCURVE",
"131 524 CURVE",
"36 524 LINE",
"36 469 LINE",
"131 469 LINE",
"131 57 LINE",
"44 57 LINE",
"44 0 LINE"
);
},
{
closed = 1;
nodes = (
"233 607 LINE SMOOTH",
"233 693 OFFCURVE",
"271 732 OFFCURVE",
"331 732 CURVE SMOOTH",
"366 732 OFFCURVE",
"396 723 OFFCURVE",
"405 715 CURVE",
"382 697 OFFCURVE",
"371 675 OFFCURVE",
"371 649 CURVE SMOOTH",
"371 622 OFFCURVE",
"387 598 OFFCURVE",
"420 589 CURVE",
"420 524 LINE",
"233 524 LINE"
);
}
);
width = 687;
}
);
note = f_f;
},
{
glyphname = f_f_i;
layers = (
{
layerId = "EE746D13-63D7-48F9-B77E-C723CA6A668B";
paths = (
{
closed = 1;
nodes = (
"307 0 LINE",
"307 57 LINE",
"236 57 LINE",
"236 469 LINE",
"441 469 LINE",
"441 57 LINE",
"353 57 LINE",
"353 0 LINE",
"628 0 LINE",
"628 57 LINE",
"546 57 LINE",
"546 469 LINE",
"746 469 LINE",
"746 57 LINE",
"670 57 LINE",
"670 0 LINE",
"937 0 LINE",
"937 57 LINE",
"851 57 LINE",
"851 524 LINE",
"543 524 LINE",
"543 607 LINE SMOOTH",
"543 650 OFFCURVE",
"563 685 OFFCURVE",
"591 704 CURVE SMOOTH",
"620 723 OFFCURVE",
"650 732 OFFCURVE",
"681 732 CURVE SMOOTH",
"718 732 OFFCURVE",
"771 714 OFFCURVE",
"772 691 CURVE",
"742 691 OFFCURVE",
"709 667 OFFCURVE",
"709 632 CURVE SMOOTH",
"709 594 OFFCURVE",
"740 566 OFFCURVE",
"775 566 CURVE SMOOTH",
"816 566 OFFCURVE",
"848 597 OFFCURVE",
"848 648 CURVE SMOOTH",
"848 678 OFFCURVE",
"834 707 OFFCURVE",
"806 732 CURVE SMOOTH",
"777 757 OFFCURVE",
"727 773 OFFCURVE",
"666 773 CURVE SMOOTH",
"594 773 OFFCURVE",
"538 752 OFFCURVE",
"499 710 CURVE",
"472 747 OFFCURVE",
"417 773 OFFCURVE",
"349 773 CURVE SMOOTH",
"210 773 OFFCURVE",
"131 688 OFFCURVE",
"131 524 CURVE",
"36 524 LINE",
"36 469 LINE",
"131 469 LINE",
"131 57 LINE",
"41 57 LINE",
"41 0 LINE"
);
},
{
closed = 1;
nodes = (
"233 607 LINE SMOOTH",
"233 650 OFFCURVE",
"248 684 OFFCURVE",
"271 704 CURVE SMOOTH",
"294 723 OFFCURVE",
"321 732 OFFCURVE",
"351 732 CURVE SMOOTH",
"386 732 OFFCURVE",
"417 723 OFFCURVE",
"426 715 CURVE",
"403 697 OFFCURVE",
"392 675 OFFCURVE",
"392 649 CURVE SMOOTH",
"392 622 OFFCURVE",
"408 598 OFFCURVE",
"441 589 CURVE",
"441 524 LINE",
"233 524 LINE"
);
}
);
width = 944;
}
);
note = f_f_i;
},
{
glyphname = f_f_l;
layers = (
{
layerId = "EE746D13-63D7-48F9-B77E-C723CA6A668B";
paths = (
{
closed = 1;
nodes = (
"307 0 LINE",
"307 57 LINE",
"236 57 LINE",
"236 469 LINE",
"424 469 LINE",
"424 57 LINE",
"360 57 LINE",
"360 0 LINE",
"624 0 LINE",
"624 57 LINE",
"529 57 LINE",
"529 469 LINE",
"688 469 LINE",
"688 524 LINE",
"526 524 LINE",
"526 607 LINE SMOOTH",
"526 689 OFFCURVE",
"578 727 OFFCURVE",
"643 727 CURVE SMOOTH",
"659 727 OFFCURVE",
"674 726 OFFCURVE",
"689 724 CURVE SMOOTH",
"719 720 OFFCURVE",
"751 706 OFFCURVE",
"757 685 CURVE",
"757 57 LINE",
"672 57 LINE",
"672 0 LINE",
"956 0 LINE",
"956 57 LINE",
"862 57 LINE",
"862 686 LINE SMOOTH",
"862 702 OFFCURVE",
"850 717 OFFCURVE",
"827 730 CURVE SMOOTH",
"780 757 OFFCURVE",
"704 773 OFFCURVE",
"628 773 CURVE SMOOTH",
"563 773 OFFCURVE",
"513 754 OFFCURVE",
"479 716 CURVE",
"442 754 OFFCURVE",
"390 773 OFFCURVE",
"322 773 CURVE SMOOTH",
"187 773 OFFCURVE",
"131 693 OFFCURVE",
"131 524 CURVE",
"36 524 LINE",
"36 469 LINE",
"131 469 LINE",
"131 57 LINE",
"36 57 LINE",
"36 0 LINE"
);
},
{
closed = 1;
nodes = (
"233 607 LINE SMOOTH",
"233 692 OFFCURVE",
"275 732 OFFCURVE",
"337 732 CURVE SMOOTH",
"371 732 OFFCURVE",
"409 719 OFFCURVE",
"422 696 CURVE",
"390 693 OFFCURVE",
"371 668 OFFCURVE",
"371 639 CURVE SMOOTH",
"371 610 OFFCURVE",
"391 583 OFFCURVE",
"426 577 CURVE",
"424 562 OFFCURVE",
"424 547 OFFCURVE",
"424 531 CURVE SMOOTH",
"424 524 LINE",
"233 524 LINE"
);
}
);
width = 976;
}
);
note = f_f_l;
},
{
glyphname = f_j;
layers = (
{
layerId = "EE746D13-63D7-48F9-B77E-C723CA6A668B";
paths = (
{
closed = 1;
nodes = (
"378 -230 LINE SMOOTH",
"478 -229 OFFCURVE",
"546 -163 OFFCURVE",
"546 -44 CURVE SMOOTH",
"546 524 LINE",
"222 524 LINE",
"222 577 LINE SMOOTH",
"222 600 OFFCURVE",
"226 620 OFFCURVE",
"232 638 CURVE SMOOTH",
"246 675 OFFCURVE",
"268 695 OFFCURVE",
"295 711 CURVE SMOOTH",
"322 727 OFFCURVE",
"347 732 OFFCURVE",
"372 732 CURVE SMOOTH",
"409 732 OFFCURVE",
"458 714 OFFCURVE",
"458 691 CURVE",
"428 691 OFFCURVE",
"395 667 OFFCURVE",
"395 632 CURVE SMOOTH",
"395 594 OFFCURVE",
"426 566 OFFCURVE",
"461 566 CURVE SMOOTH",
"502 566 OFFCURVE",
"534 599 OFFCURVE",
"534 650 CURVE SMOOTH",
"534 675 OFFCURVE",
"517 705 OFFCURVE",
"488 730 CURVE SMOOTH",
"459 755 OFFCURVE",
"410 773 OFFCURVE",
"357 773 CURVE SMOOTH",
"214 773 OFFCURVE",
"120 685 OFFCURVE",
"120 524 CURVE",
"25 524 LINE",
"25 469 LINE",
"120 469 LINE",
"120 57 LINE",
"25 57 LINE",
"25 0 LINE",
"340 0 LINE",
"340 57 LINE",
"225 57 LINE",
"225 469 LINE",
"441 469 LINE",
"441 -59 LINE SMOOTH",
"441 -106 OFFCURVE",
"431 -140 OFFCURVE",
"414 -156 CURVE SMOOTH",
"396 -171 OFFCURVE",
"380 -177 OFFCURVE",
"361 -177 CURVE SMOOTH",
"348 -177 OFFCURVE",
"336 -175 OFFCURVE",
"326 -171 CURVE",
"345 -163 OFFCURVE",
"354 -143 OFFCURVE",
"354 -109 CURVE SMOOTH",
"354 -75 OFFCURVE",
"328 -55 OFFCURVE",
"297 -55 CURVE SMOOTH",
"259 -55 OFFCURVE",
"226 -81 OFFCURVE",
"226 -124 CURVE SMOOTH",
"226 -190 OFFCURVE",
"278 -230 OFFCURVE",
"374 -230 CURVE SMOOTH"
);
}
);
width = 626;
}
);
note = f_j;
},
{
glyphname = fi;
layers = (
{
layerId = "EE746D13-63D7-48F9-B77E-C723CA6A668B";
paths = (
{
closed = 1;
nodes = (
"300 0 LINE",
"300 57 LINE",
"218 57 LINE",
"218 469 LINE",
"424 469 LINE",
"424 57 LINE",
"348 57 LINE",
"348 0 LINE",
"615 0 LINE",
"615 57 LINE",
"529 57 LINE",
"529 524 LINE",
"215 524 LINE",
"215 607 LINE SMOOTH",
"215 624 OFFCURVE",
"218 640 OFFCURVE",
"225 654 CURVE SMOOTH",
"237 683 OFFCURVE",
"258 701 OFFCURVE",
"284 714 CURVE SMOOTH",
"309 727 OFFCURVE",
"335 732 OFFCURVE",
"359 732 CURVE SMOOTH",
"396 732 OFFCURVE",
"449 714 OFFCURVE",
"450 691 CURVE",
"420 691 OFFCURVE",
"387 667 OFFCURVE",
"387 632 CURVE SMOOTH",
"387 594 OFFCURVE",
"418 566 OFFCURVE",
"453 566 CURVE SMOOTH",
"495 566 OFFCURVE",
"526 597 OFFCURVE",
"526 648 CURVE SMOOTH",
"526 678 OFFCURVE",
"512 707 OFFCURVE",
"483 732 CURVE SMOOTH",
"455 757 OFFCURVE",
"405 773 OFFCURVE",
"344 773 CURVE SMOOTH",
"192 773 OFFCURVE",
"113 689 OFFCURVE",
"113 524 CURVE",
"18 524 LINE",
"18 469 LINE",
"113 469 LINE",
"113 57 LINE",
"18 57 LINE",
"18 0 LINE"
);
}
);
width = 627;
}
);
note = fi;
unicode = FB01;
},
{
glyphname = fl;
layers = (
{
layerId = "EE746D13-63D7-48F9-B77E-C723CA6A668B";
paths = (
{
closed = 1;
nodes = (
"317 0 LINE",
"317 57 LINE",
"236 57 LINE",
"236 469 LINE",
"395 469 LINE",
"395 524 LINE",
"233 524 LINE",
"233 607 LINE SMOOTH",
"233 689 OFFCURVE",
"285 727 OFFCURVE",
"350 727 CURVE SMOOTH",
"366 727 OFFCURVE",
"381 726 OFFCURVE",
"396 724 CURVE SMOOTH",
"426 720 OFFCURVE",
"458 706 OFFCURVE",
"464 685 CURVE",
"464 57 LINE",
"379 57 LINE",
"379 0 LINE",
"674 0 LINE",
"674 57 LINE",
"569 57 LINE",
"569 686 LINE SMOOTH",
"569 702 OFFCURVE",
"557 717 OFFCURVE",
"534 730 CURVE SMOOTH",
"487 757 OFFCURVE",
"411 773 OFFCURVE",
"335 773 CURVE SMOOTH",
"199 773 OFFCURVE",
"131 690 OFFCURVE",
"131 524 CURVE",
"36 524 LINE",
"36 469 LINE",
"131 469 LINE",
"131 57 LINE",
"36 57 LINE",
"36 0 LINE"
);
}
);
width = 694;
}
);
note = fl;
unicode = FB02;
},
{
glyphname = s_h;
layers = (
{
layerId = "EE746D13-63D7-48F9-B77E-C723CA6A668B";
paths = (
{
closed = 1;
nodes = (
"308 -13 OFFCURVE",
"357 -2 OFFCURVE",
"401 22 CURVE SMOOTH",
"444 46 OFFCURVE",
"471 91 OFFCURVE",
"471 150 CURVE SMOOTH",
"471 203 OFFCURVE",
"444 245 OFFCURVE",
"404 269 CURVE SMOOTH",
"365 292 OFFCURVE",
"314 310 OFFCURVE",
"267 324 CURVE SMOOTH",
"243 330 OFFCURVE",
"222 337 OFFCURVE",
"202 344 CURVE SMOOTH",
"162 358 OFFCURVE",
"135 379 OFFCURVE",
"135 408 CURVE SMOOTH",
"135 461 OFFCURVE",
"186 486 OFFCURVE",
"255 486 CURVE SMOOTH",
"302 486 OFFCURVE",
"354 473 OFFCURVE",
"381 453 CURVE",
"348 450 OFFCURVE",
"329 430 OFFCURVE",
"329 396 CURVE SMOOTH",
"329 359 OFFCURVE",
"359 339 OFFCURVE",
"398 339 CURVE SMOOTH",
"432 339 OFFCURVE",
"461 370 OFFCURVE",
"461 412 CURVE SMOOTH",
"461 425 OFFCURVE",
"450 458 OFFCURVE",
"429 508 CURVE SMOOTH",
"407 558 OFFCURVE",
"396 591 OFFCURVE",
"396 607 CURVE SMOOTH",
"396 618 OFFCURVE",
"397 628 OFFCURVE",
"400 636 CURVE SMOOTH",
"405 651 OFFCURVE",
"421 667 OFFCURVE",
"451 676 CURVE SMOOTH",
"479 684 OFFCURVE",
"528 690 OFFCURVE",
"597 690 CURVE",
"597 57 LINE",
"507 57 LINE",
"507 0 LINE",
"797 0 LINE",
"797 57 LINE",
"702 57 LINE",
"702 292 LINE SMOOTH",
"702 387 OFFCURVE",
"782 469 OFFCURVE",
"852 469 CURVE SMOOTH",
"898 469 OFFCURVE",
"930 433 OFFCURVE",
"930 357 CURVE SMOOTH",
"930 57 LINE",
"835 57 LINE",
"835 0 LINE",
"1140 0 LINE",
"1140 57 LINE",
"1035 57 LINE",
"1035 353 LINE SMOOTH",
"1035 385 OFFCURVE",
"1031 413 OFFCURVE",
"1023 437 CURVE SMOOTH",
"1007 484 OFFCURVE",
"986 506 OFFCURVE",
"954 521 CURVE SMOOTH",
"922 536 OFFCURVE",
"900 538 OFFCURVE",
"873 538 CURVE SMOOTH",
"852 538 OFFCURVE",
"832 535 OFFCURVE",
"812 529 CURVE SMOOTH",
"771 516 OFFCURVE",
"727 482 OFFCURVE",
"702 431 CURVE",
"702 750 LINE",
"608 750 LINE SMOOTH",
"499 750 OFFCURVE",
"428 739 OFFCURVE",
"388 716 CURVE SMOOTH",
"347 692 OFFCURVE",
"333 663 OFFCURVE",
"333 617 CURVE SMOOTH",
"333 593 OFFCURVE",
"347 565 OFFCURVE",
"365 533 CURVE SMOOTH",
"374 517 OFFCURVE",
"379 507 OFFCURVE",
"382 502 CURVE",
"347 523 OFFCURVE",
"290 536 OFFCURVE",
"249 536 CURVE SMOOTH",
"231 536 OFFCURVE",
"214 535 OFFCURVE",
"197 533 CURVE SMOOTH",
"162 528 OFFCURVE",
"122 514 OFFCURVE",
"93 494 CURVE SMOOTH",
"65 474 OFFCURVE",
"44 438 OFFCURVE",
"44 395 CURVE SMOOTH",
"44 351 OFFCURVE",
"65 316 OFFCURVE",
"96 295 CURVE SMOOTH",
"127 274 OFFCURVE",
"169 256 OFFCURVE",
"211 246 CURVE SMOOTH",
"252 235 OFFCURVE",
"294 220 OFFCURVE",
"326 206 CURVE SMOOTH",
"357 191 OFFCURVE",
"378 166 OFFCURVE",
"378 135 CURVE SMOOTH",
"378 74 OFFCURVE",
"315 43 OFFCURVE",
"239 43 CURVE SMOOTH",
"195 43 OFFCURVE",
"147 57 OFFCURVE",
"122 76 CURVE",
"147 76 OFFCURVE",
"170 104 OFFCURVE",
"170 137 CURVE SMOOTH",
"170 176 OFFCURVE",
"142 197 OFFCURVE",
"106 197 CURVE SMOOTH",
"70 197 OFFCURVE",
"37 166 OFFCURVE",
"37 123 CURVE SMOOTH",
"37 104 OFFCURVE",
"42 87 OFFCURVE",
"50 72 CURVE SMOOTH",
"68 41 OFFCURVE",
"97 21 OFFCURVE",
"134 7 CURVE SMOOTH",
"172 -7 OFFCURVE",
"211 -13 OFFCURVE",
"252 -13 CURVE SMOOTH"
);
}
);
width = 1147;
}
);
leftKerningGroup = s;
note = s_h;
rightKerningGroup = h;
},
{
glyphname = t_t;
layers = (
{
layerId = "EE746D13-63D7-48F9-B77E-C723CA6A668B";
paths = (
{
closed = 1;
nodes = (
"271 -13 OFFCURVE",
"292 -10 OFFCURVE",
"309 -3 CURVE SMOOTH",
"343 10 OFFCURVE",
"363 33 OFFCURVE",
"377 68 CURVE SMOOTH",
"390 103 OFFCURVE",
"394 140 OFFCURVE",
"394 191 CURVE SMOOTH",
"394 241 LINE",
"338 241 LINE",
"338 181 LINE SMOOTH",
"338 97 OFFCURVE",
"314 55 OFFCURVE",
"265 55 CURVE SMOOTH",
"219 55 OFFCURVE",
"195 85 OFFCURVE",
"195 146 CURVE SMOOTH",
"195 469 LINE",
"454 469 LINE",
"454 159 LINE SMOOTH",
"454 50 OFFCURVE",
"520 -13 OFFCURVE",
"617 -13 CURVE SMOOTH",
"640 -13 OFFCURVE",
"660 -10 OFFCURVE",
"677 -3 CURVE SMOOTH",
"710 11 OFFCURVE",
"729 32 OFFCURVE",
"741 68 CURVE SMOOTH",
"752 104 OFFCURVE",
"755 139 OFFCURVE",
"755 191 CURVE SMOOTH",
"755 241 LINE",
"698 241 LINE",
"698 181 LINE SMOOTH",
"698 93 OFFCURVE",
"675 55 OFFCURVE",
"628 55 CURVE SMOOTH",
"584 55 OFFCURVE",
"559 79 OFFCURVE",
"559 146 CURVE SMOOTH",
"559 469 LINE",
"702 469 LINE",
"702 524 LINE",
"559 524 LINE",
"559 777 LINE SMOOTH",
"559 788 OFFCURVE",
"554 794 OFFCURVE",
"546 794 CURVE SMOOTH",
"539 794 OFFCURVE",
"531 787 OFFCURVE",
"528 777 CURVE SMOOTH",
"526 768 OFFCURVE",
"523 752 OFFCURVE",
"519 731 CURVE SMOOTH",
"510 690 OFFCURVE",
"505 672 OFFCURVE",
"495 635 CURVE SMOOTH",
"485 598 OFFCURVE",
"474 580 OFFCURVE",
"458 557 CURVE SMOOTH",
"441 535 OFFCURVE",
"419 524 OFFCURVE",
"393 524 CURVE SMOOTH",
"195 524 LINE",
"195 777 LINE SMOOTH",
"195 787 OFFCURVE",
"189 794 OFFCURVE",
"182 794 CURVE SMOOTH",
"175 794 OFFCURVE",
"167 787 OFFCURVE",
"164 777 CURVE SMOOTH",
"158 752 OFFCURVE",
"149 708 OFFCURVE",
"145 685 CURVE SMOOTH",
"141 661 OFFCURVE",
"130 625 OFFCURVE",
"121 603 CURVE SMOOTH",
"111 582 OFFCURVE",
"95 554 OFFCURVE",
"75 537 CURVE SMOOTH",
"55 520 OFFCURVE",
"26 502 OFFCURVE",
"-10 492 CURVE",
"-10 469 LINE",
"90 469 LINE",
"90 149 LINE SMOOTH",
"90 95 OFFCURVE",
"110 51 OFFCURVE",
"140 26 CURVE SMOOTH",
"169 0 OFFCURVE",
"207 -13 OFFCURVE",
"248 -13 CURVE SMOOTH"
);
}
);
width = 787;
}
);
leftKerningGroup = t;
note = t_t;
},
{
color = 4;
glyphname = a.sc;
layers = (
{
guideLines = (
{
angle = 90;
position = "{324, 64}";
},
{
angle = -66.2768;
position = "{502, 320}";
},
{
angle = -66.2768;
position = "{386, 320}";
},
{
angle = 246.653;
position = "{183, 320}";
},
{
angle = 246.653;
position = "{261, 320}";
},
{
angle = 180;
position = "{324, 242}";
}
);
layerId = "EE746D13-63D7-48F9-B77E-C723CA6A668B";
paths = (
{
closed = 1;
nodes = (
"265 0 LINE",
"265 64 LINE",
"150 64 LINE",
"202 186 LINE",
"445 186 LINE",
"498 64 LINE",
"393 64 LINE",
"393 0 LINE",
"694 0 LINE",
"694 64 LINE",
"614 64 LINE",
"389 576 LINE",
"293 576 LINE",
"72 64 LINE",
"-13 64 LINE",
"-13 0 LINE"
);
},
{
closed = 1;
nodes = (
"323 463 LINE",
"420 242 LINE",
"227 242 LINE"
);
}
);
width = 671;
}
);
leftKerningGroup = A;
note = A;
rightKerningGroup = A;
},
{
color = 4;
glyphname = b.sc;
layers = (
{
layerId = "EE746D13-63D7-48F9-B77E-C723CA6A668B";
paths = (
{
closed = 1;
nodes = (
"287 0 LINE SMOOTH",
"466 0 OFFCURVE",
"585 44 OFFCURVE",
"585 164 CURVE SMOOTH",
"585 256 OFFCURVE",
"503 303 OFFCURVE",
"431 309 CURVE",
"504 326 OFFCURVE",
"546 368 OFFCURVE",
"546 427 CURVE SMOOTH",
"546 536 OFFCURVE",
"465 576 OFFCURVE",
"278 576 CURVE SMOOTH",
"30 576 LINE",
"30 515 LINE",
"152 515 LINE",
"152 64 LINE",
"30 64 LINE",
"30 0 LINE"
);
},
{
closed = 1;
nodes = (
"259 279 LINE",
"307 279 LINE SMOOTH",
"401 279 OFFCURVE",
"478 247 OFFCURVE",
"478 166 CURVE SMOOTH",
"478 85 OFFCURVE",
"401 64 OFFCURVE",
"307 64 CURVE SMOOTH",
"259 64 LINE"
);
},
{
closed = 1;
nodes = (
"259 515 LINE",
"307 515 LINE SMOOTH",
"378 515 OFFCURVE",
"444 501 OFFCURVE",
"444 422 CURVE SMOOTH",
"444 355 OFFCURVE",
"375 329 OFFCURVE",
"307 329 CURVE SMOOTH",
"259 329 LINE"
);
}
);
width = 619;
}
);
leftMetricsKey = h.sc;
note = B;
rightKerningGroup = B;
},
{
color = 4;
glyphname = c.sc;
layers = (
{
guideLines = (
{
angle = 90;
position = "{255, 685}";
},
{
angle = 90;
position = "{372, 642}";
},
{
position = "{601, 239}";
}
);
layerId = "EE746D13-63D7-48F9-B77E-C723CA6A668B";
paths = (
{
closed = 1;
nodes = (
"501 -13 OFFCURVE",
"594 69 OFFCURVE",
"631 196 CURVE",
"561 212 LINE",
"534 124 OFFCURVE",
"468 63 OFFCURVE",
"358 63 CURVE SMOOTH",
"232 63 OFFCURVE",
"157 155 OFFCURVE",
"157 292 CURVE SMOOTH",
"157 432 OFFCURVE",
"242 527 OFFCURVE",
"367 527 CURVE SMOOTH",
"460 527 OFFCURVE",
"516 490 OFFCURVE",
"530 459 CURVE",
"503 459 OFFCURVE",
"478 437 OFFCURVE",
"478 397 CURVE SMOOTH",
"478 357 OFFCURVE",
"512 333 OFFCURVE",
"553 333 CURVE SMOOTH",
"600 333 OFFCURVE",
"628 371 OFFCURVE",
"628 411 CURVE SMOOTH",
"628 515 OFFCURVE",
"500 591 OFFCURVE",
"369 591 CURVE SMOOTH",
"161 591 OFFCURVE",
"39 463 OFFCURVE",
"39 288 CURVE SMOOTH",
"39 114 OFFCURVE",
"163 -13 OFFCURVE",
"355 -13 CURVE SMOOTH"
);
}
);
width = 672;
}
);
leftMetricsKey = o.sc;
},
{
color = 4;
glyphname = d.sc;
layers = (
{
background = {
paths = (
{
closed = 1;
nodes = (
"152 0 LINE SMOOTH",
"208 0 OFFCURVE",
"260 4 OFFCURVE",
"307 13 CURVE SMOOTH",
"401 31 OFFCURVE",
"482 69 OFFCURVE",
"537 126 CURVE SMOOTH",
"591 184 OFFCURVE",
"622 268 OFFCURVE",
"622 372 CURVE SMOOTH",
"622 427 OFFCURVE",
"613 477 OFFCURVE",
"595 520 CURVE SMOOTH",
"558 605 OFFCURVE",
"499 655 OFFCURVE",
"413 689 CURVE SMOOTH",
"327 724 OFFCURVE",
"239 735 OFFCURVE",
"134 735 CURVE SMOOTH",
"-87 735 LINE",
"-87 665 LINE",
"32 665 LINE",
"32 70 LINE",
"-87 70 LINE",
"-87 0 LINE"
);
},
{
closed = 1;
nodes = (
"147 664 LINE",
"175 664 OFFCURVE",
"200 663 OFFCURVE",
"224 661 CURVE SMOOTH",
"271 657 OFFCURVE",
"322 646 OFFCURVE",
"361 627 CURVE SMOOTH",
"400 609 OFFCURVE",
"437 579 OFFCURVE",
"460 539 CURVE SMOOTH",
"483 499 OFFCURVE",
"497 441 OFFCURVE",
"497 372 CURVE SMOOTH",
"497 326 OFFCURVE",
"491 285 OFFCURVE",
"479 250 CURVE SMOOTH",
"455 180 OFFCURVE",
"415 137 OFFCURVE",
"354 108 CURVE SMOOTH",
"293 80 OFFCURVE",
"229 70 OFFCURVE",
"147 70 CURVE"
);
}
);
};
guideLines = (
{
angle = 90;
position = "{334, 288}";
}
);
layerId = "EE746D13-63D7-48F9-B77E-C723CA6A668B";
paths = (
{
closed = 1;
nodes = (
"258 0 LINE",
"304 0 LINE SMOOTH",
"497 0 OFFCURVE",
"668 85 OFFCURVE",
"668 288 CURVE SMOOTH",
"668 491 OFFCURVE",
"497 576 OFFCURVE",
"304 576 CURVE SMOOTH",
"258 576 LINE",
"30 576 LINE",
"30 512 LINE",
"151 512 LINE",
"151 64 LINE",
"30 64 LINE",
"30 0 LINE"
);
},
{
closed = 1;
nodes = (
"258 64 LINE",
"258 511 LINE",
"304 511 LINE",
"451 511 OFFCURVE",
"550 441 OFFCURVE",
"550 288 CURVE SMOOTH",
"550 135 OFFCURVE",
"451 64 OFFCURVE",
"304 64 CURVE"
);
}
);
width = 707;
}
);
leftMetricsKey = h.sc;
note = D;
rightKerningGroup = D;
rightMetricsKey = o.sc;
},
{
color = 4;
glyphname = e.sc;
layers = (
{
layerId = "EE746D13-63D7-48F9-B77E-C723CA6A668B";
paths = (
{
closed = 1;
nodes = (
"624 0 LINE",
"624 208 LINE",
"548 208 LINE",
"548 64 LINE",
"258 64 LINE",
"258 265 LINE",
"389 265 LINE",
"389 158 LINE",
"448 158 LINE",
"448 421 LINE",
"389 421 LINE",
"389 321 LINE",
"258 321 LINE",
"258 512 LINE",
"548 512 LINE",
"548 364 LINE",
"624 364 LINE",
"624 576 LINE",
"30 576 LINE",
"30 512 LINE",
"151 512 LINE",
"151 64 LINE",
"30 64 LINE",
"30 0 LINE"
);
}
);
width = 700;
}
);
leftMetricsKey = h.sc;
note = E;
},
{
color = 4;
glyphname = f.sc;
layers = (
{
layerId = "EE746D13-63D7-48F9-B77E-C723CA6A668B";
paths = (
{
closed = 1;
nodes = (
"387 0 LINE",
"387 64 LINE",
"258 64 LINE",
"258 270 LINE",
"377 270 LINE",
"377 163 LINE",
"436 163 LINE",
"436 421 LINE",
"377 421 LINE",
"377 326 LINE",
"258 326 LINE",
"258 512 LINE",
"516 512 LINE",
"516 364 LINE",
"592 364 LINE",
"592 576 LINE",
"30 576 LINE",
"30 512 LINE",
"151 512 LINE",
"151 64 LINE",
"30 64 LINE",
"30 0 LINE"
);
}
);
width = 640;
}
);
leftMetricsKey = h.sc;
note = F;
rightKerningGroup = F;
},
{
color = 4;
glyphname = g.sc;
layers = (
{
layerId = "EE746D13-63D7-48F9-B77E-C723CA6A668B";
paths = (
{
closed = 1;
nodes = (
"419 200 LINE",
"542 200 LINE",
"542 163 LINE SMOOTH",
"542 119 OFFCURVE",
"480 63 OFFCURVE",
"368 63 CURVE SMOOTH",
"237 63 OFFCURVE",
"157 154 OFFCURVE",
"157 295 CURVE SMOOTH",
"157 439 OFFCURVE",
"257 530 OFFCURVE",
"383 530 CURVE SMOOTH",
"470 530 OFFCURVE",
"523 496 OFFCURVE",
"537 470 CURVE",
"512 470 OFFCURVE",
"483 448 OFFCURVE",
"483 408 CURVE SMOOTH",
"483 369 OFFCURVE",
"517 343 OFFCURVE",
"563 343 CURVE SMOOTH",
"613 343 OFFCURVE",
"643 379 OFFCURVE",
"643 423 CURVE SMOOTH",
"643 510 OFFCURVE",
"523 594 OFFCURVE",
"374 594 CURVE SMOOTH",
"177 594 OFFCURVE",
"39 464 OFFCURVE",
"39 291 CURVE SMOOTH",
"39 119 OFFCURVE",
"161 -13 OFFCURVE",
"350 -13 CURVE SMOOTH",
"480 -13 OFFCURVE",
"532 46 OFFCURVE",
"552 63 CURVE",
"569 0 LINE",
"632 0 LINE",
"632 200 LINE",
"704 200 LINE",
"704 264 LINE",
"419 264 LINE"
);
}
);
width = 750;
}
);
leftMetricsKey = o.sc;
},
{
color = 4;
glyphname = h.sc;
layers = (
{
layerId = "EE746D13-63D7-48F9-B77E-C723CA6A668B";
paths = (
{
closed = 1;
nodes = (
"362 0 LINE",
"362 64 LINE",
"258 64 LINE",
"258 268 LINE",
"532 268 LINE",
"532 64 LINE",
"427 64 LINE",
"427 0 LINE",
"760 0 LINE",
"760 64 LINE",
"639 64 LINE",
"639 512 LINE",
"760 512 LINE",
"760 576 LINE",
"427 576 LINE",
"427 512 LINE",
"532 512 LINE",
"532 324 LINE",
"258 324 LINE",
"258 512 LINE",
"363 512 LINE",
"363 576 LINE",
"30 576 LINE",
"30 512 LINE",
"151 512 LINE",
"151 64 LINE",
"30 64 LINE",
"30 0 LINE"
);
}
);
width = 790;
}
);
note = H;
rightKerningGroup = H;
},
{
color = 4;
glyphname = i.sc;
layers = (
{
layerId = "EE746D13-63D7-48F9-B77E-C723CA6A668B";
paths = (
{
closed = 1;
nodes = (
"379 512 LINE",
"379 576 LINE",
"30 576 LINE",
"30 512 LINE",
"151 512 LINE",
"151 64 LINE",
"30 64 LINE",
"30 0 LINE",
"378 0 LINE",
"378 64 LINE",
"258 64 LINE",
"258 512 LINE"
);
}
);
width = 409;
}
);
note = I;
},
{
color = 4;
glyphname = j.sc;
layers = (
{
layerId = "EE746D13-63D7-48F9-B77E-C723CA6A668B";
paths = (
{
closed = 1;
nodes = (
"277 -196 OFFCURVE",
"333 -132 OFFCURVE",
"333 7 CURVE SMOOTH",
"333 506 LINE",
"455 506 LINE",
"455 576 LINE",
"92 576 LINE",
"92 506 LINE",
"231 506 LINE",
"231 -6 LINE SMOOTH",
"231 -90 OFFCURVE",
"205 -141 OFFCURVE",
"140 -141 CURVE SMOOTH",
"109 -141 OFFCURVE",
"82 -133 OFFCURVE",
"70 -118 CURVE",
"102 -107 OFFCURVE",
"124 -76 OFFCURVE",
"124 -41 CURVE SMOOTH",
"124 -2 OFFCURVE",
"90 29 OFFCURVE",
"51 29 CURVE SMOOTH",
"10 29 OFFCURVE",
"-24 -3 OFFCURVE",
"-24 -50 CURVE SMOOTH",
"-24 -137 OFFCURVE",
"52 -196 OFFCURVE",
"143 -196 CURVE SMOOTH"
);
}
);
width = 455;
}
);
note = J;
rightKerningGroup = J;
},
{
color = 4;
glyphname = k.sc;
layers = (
{
guideLines = (
{
angle = 128.6851;
position = "{393, 202}";
},
{
angle = 128.6851;
position = "{519, 202}";
},
{
angle = 40.2841;
position = "{394, 398}";
},
{
angle = 40.2841;
position = "{492, 398}";
},
{
angle = 90;
position = "{336, 32}";
},
{
angle = 90;
position = "{409, 544}";
}
);
layerId = "EE746D13-63D7-48F9-B77E-C723CA6A668B";
paths = (
{
closed = 1;
nodes = (
"336 0 LINE",
"336 64 LINE",
"259 64 LINE",
"259 203 LINE",
"340 269 LINE",
"503 64 LINE",
"409 64 LINE",
"409 0 LINE",
"728 0 LINE",
"728 64 LINE",
"629 64 LINE",
"415 332 LINE",
"626 512 LINE",
"722 512 LINE",
"722 576 LINE",
"409 576 LINE",
"409 512 LINE",
"528 512 LINE",
"259 284 LINE",
"259 512 LINE",
"336 512 LINE",
"336 576 LINE",
"30 576 LINE",
"30 512 LINE",
"152 512 LINE",
"152 64 LINE",
"30 64 LINE",
"30 0 LINE"
);
}
);
width = 736;
}
);
leftMetricsKey = h.sc;
note = K;
rightKerningGroup = K;
},
{
color = 4;
glyphname = l.sc;
layers = (
{
layerId = "EE746D13-63D7-48F9-B77E-C723CA6A668B";
paths = (
{
closed = 1;
nodes = (
"585 0 LINE",
"585 230 LINE",
"509 230 LINE",
"509 64 LINE",
"258 64 LINE",
"258 512 LINE",
"372 512 LINE",
"372 576 LINE",
"30 576 LINE",
"30 512 LINE",
"151 512 LINE",
"151 64 LINE",
"30 64 LINE",
"30 0 LINE"
);
}
);
width = 619;
}
);
leftMetricsKey = h.sc;
note = L;
rightKerningGroup = L;
},
{
color = 4;
glyphname = m.sc;
layers = (
{
guideLines = (
{
position = "{405, 106}";
},
{
angle = 115.3102;
position = "{326, 336}";
},
{
angle = 115.3102;
position = "{438, 336}";
},
{
angle = 63.0543;
position = "{611, 336}";
},
{
angle = 63.0542;
position = "{533, 336}";
}
);
layerId = "EE746D13-63D7-48F9-B77E-C723CA6A668B";
paths = (
{
closed = 1;
nodes = (
"356 0 LINE",
"356 64 LINE",
"233 64 LINE",
"233 512 LINE",
"243 512 LINE",
"439 96 LINE",
"489 96 LINE",
"695 502 LINE",
"701 502 LINE",
"701 64 LINE",
"594 64 LINE",
"594 0 LINE",
"934 0 LINE",
"934 64 LINE",
"808 64 LINE",
"808 512 LINE",
"927 512 LINE",
"927 576 LINE",
"733 576 LINE",
"655 576 LINE",
"484 239 LINE",
"324 576 LINE",
"212 576 LINE",
"37 576 LINE",
"37 512 LINE",
"158 512 LINE",
"158 64 LINE",
"46 64 LINE",
"46 0 LINE"
);
}
);
width = 969;
}
);
note = M;
rightKerningGroup = H;
},
{
color = 4;
glyphname = n.sc;
layers = (
{
layerId = "EE746D13-63D7-48F9-B77E-C723CA6A668B";
paths = (
{
closed = 1;
nodes = (
"353 0 LINE",
"353 64 LINE",
"228 64 LINE",
"228 494 LINE",
"518 0 LINE",
"644 0 LINE",
"644 512 LINE",
"759 512 LINE",
"759 576 LINE",
"436 576 LINE",
"436 512 LINE",
"567 512 LINE",
"567 103 LINE",
"290 576 LINE",
"30 576 LINE",
"30 512 LINE",
"151 512 LINE",
"151 64 LINE",
"30 64 LINE",
"30 0 LINE"
);
}
);
width = 784;
}
);
leftMetricsKey = h.sc;
note = N;
rightKerningGroup = H;
},
{
color = 4;
glyphname = o.sc;
layers = (
{
guideLines = (
{
position = "{-29, 591}";
}
);
layerId = "EE746D13-63D7-48F9-B77E-C723CA6A668B";
paths = (
{
closed = 1;
nodes = (
"546 -13 OFFCURVE",
"675 119 OFFCURVE",
"675 288 CURVE SMOOTH",
"675 459 OFFCURVE",
"544 591 OFFCURVE",
"357 591 CURVE SMOOTH",
"168 591 OFFCURVE",
"39 457 OFFCURVE",
"39 288 CURVE SMOOTH",
"39 121 OFFCURVE",
"167 -13 OFFCURVE",
"357 -13 CURVE SMOOTH"
);
},
{
closed = 1;
nodes = (
"230 51 OFFCURVE",
"157 171 OFFCURVE",
"157 289 CURVE SMOOTH",
"157 404 OFFCURVE",
"230 527 OFFCURVE",
"357 527 CURVE SMOOTH",
"486 527 OFFCURVE",
"557 404 OFFCURVE",
"557 287 CURVE SMOOTH",
"557 171 OFFCURVE",
"486 51 OFFCURVE",
"357 51 CURVE SMOOTH"
);
}
);
width = 714;
}
);
leftKerningGroup = O;
note = O;
rightKerningGroup = O;
},
{
color = 4;
glyphname = p.sc;
layers = (
{
layerId = "EE746D13-63D7-48F9-B77E-C723CA6A668B";
paths = (
{
closed = 1;
nodes = (
"384 0 LINE",
"384 64 LINE",
"259 64 LINE",
"259 194 LINE",
"282 194 LINE SMOOTH",
"437 194 OFFCURVE",
"587 238 OFFCURVE",
"587 386 CURVE SMOOTH",
"587 533 OFFCURVE",
"470 576 OFFCURVE",
"311 576 CURVE SMOOTH",
"30 576 LINE",
"30 512 LINE",
"152 512 LINE",
"152 64 LINE",
"30 64 LINE",
"30 0 LINE"
);
},
{
closed = 1;
nodes = (
"259 512 LINE",
"311 512 LINE SMOOTH",
"411 512 OFFCURVE",
"480 478 OFFCURVE",
"480 380 CURVE SMOOTH",
"480 288 OFFCURVE",
"401 254 OFFCURVE",
"282 254 CURVE SMOOTH",
"259 254 LINE"
);
}
);
width = 618;
}
);
leftMetricsKey = h.sc;
note = P;
rightKerningGroup = P;
},
{
color = 4;
glyphname = q.sc;
layers = (
{
layerId = "EE746D13-63D7-48F9-B77E-C723CA6A668B";
paths = (
{
closed = 1;
nodes = (
"668 12 OFFCURVE",
"644 -21 OFFCURVE",
"607 -21 CURVE SMOOTH",
"581 -21 OFFCURVE",
"554 -6 OFFCURVE",
"534 52 CURVE",
"598 106 OFFCURVE",
"635 188 OFFCURVE",
"635 288 CURVE SMOOTH",
"635 469 OFFCURVE",
"514 591 OFFCURVE",
"337 591 CURVE SMOOTH",
"158 591 OFFCURVE",
"39 467 OFFCURVE",
"39 288 CURVE SMOOTH",
"39 111 OFFCURVE",
"157 -13 OFFCURVE",
"337 -13 CURVE SMOOTH",
"378 -13 OFFCURVE",
"416 -7 OFFCURVE",
"450 5 CURVE",
"489 -68 OFFCURVE",
"527 -107 OFFCURVE",
"596 -107 CURVE SMOOTH",
"678 -107 OFFCURVE",
"721 -46 OFFCURVE",
"721 67 CURVE",
"668 67 LINE"
);
},
{
closed = 1;
nodes = (
"456 527 OFFCURVE",
"517 414 OFFCURVE",
"517 287 CURVE SMOOTH",
"517 229 OFFCURVE",
"504 175 OFFCURVE",
"479 133 CURVE",
"443 190 OFFCURVE",
"380 224 OFFCURVE",
"316 224 CURVE SMOOTH",
"242 224 OFFCURVE",
"198 185 OFFCURVE",
"186 150 CURVE",
"167 190 OFFCURVE",
"157 238 OFFCURVE",
"157 289 CURVE SMOOTH",
"157 414 OFFCURVE",
"220 527 OFFCURVE",
"337 527 CURVE SMOOTH"
);
},
{
closed = 1;
nodes = (
"216 145 OFFCURVE",
"260 167 OFFCURVE",
"291 167 CURVE SMOOTH",
"343 167 OFFCURVE",
"384 134 OFFCURVE",
"412 68 CURVE",
"390 57 OFFCURVE",
"365 51 OFFCURVE",
"337 51 CURVE SMOOTH",
"267 51 OFFCURVE",
"218 76 OFFCURVE",
"218 103 CURVE"
);
}
);
width = 705;
}
);
leftKerningGroup = C;
leftMetricsKey = o.sc;
note = Q;
rightKerningGroup = D;
},
{
color = 4;
glyphname = r.sc;
layers = (
{
layerId = "EE746D13-63D7-48F9-B77E-C723CA6A668B";
paths = (
{
closed = 1;
nodes = (
"651 -13 OFFCURVE",
"682 34 OFFCURVE",
"682 149 CURVE",
"624 149 LINE",
"624 84 OFFCURVE",
"614 57 OFFCURVE",
"587 57 CURVE SMOOTH",
"560 57 OFFCURVE",
"555 84 OFFCURVE",
"550 119 CURVE SMOOTH",
"542 178 OFFCURVE",
"508 236 OFFCURVE",
"443 248 CURVE",
"520 259 OFFCURVE",
"601 311 OFFCURVE",
"601 403 CURVE SMOOTH",
"601 556 OFFCURVE",
"465 576 OFFCURVE",
"310 576 CURVE SMOOTH",
"30 576 LINE",
"30 512 LINE",
"152 512 LINE",
"152 64 LINE",
"30 64 LINE",
"30 0 LINE",
"373 0 LINE",
"373 64 LINE",
"259 64 LINE",
"259 221 LINE",
"348 221 LINE",
"397 221 OFFCURVE",
"435 185 OFFCURVE",
"444 109 CURVE SMOOTH",
"451 50 OFFCURVE",
"479 -13 OFFCURVE",
"563 -13 CURVE SMOOTH"
);
},
{
closed = 1;
nodes = (
"259 512 LINE",
"340 512 LINE SMOOTH",
"406 512 OFFCURVE",
"494 487 OFFCURVE",
"494 403 CURVE SMOOTH",
"494 303 OFFCURVE",
"386 287 OFFCURVE",
"340 287 CURVE SMOOTH",
"259 287 LINE"
);
}
);
width = 677;
}
);
leftMetricsKey = h.sc;
note = R;
rightKerningGroup = R;
},
{
color = 4;
glyphname = s.sc;
layers = (
{
guideLines = (
{
angle = 90;
position = "{319, 562}";
},
{
angle = 90;
position = "{576, 157}";
},
{
angle = 90;
position = "{61, 139}";
},
{
position = "{0, 595}";
},
{
position = "{0, 288}";
},
{
position = "{0, 442}";
}
);
layerId = "EE746D13-63D7-48F9-B77E-C723CA6A668B";
paths = (
{
closed = 1;
nodes = (
"467 -13 OFFCURVE",
"576 35 OFFCURVE",
"576 159 CURVE SMOOTH",
"576 289 OFFCURVE",
"439 324 OFFCURVE",
"319 350 CURVE SMOOTH",
"202 375 OFFCURVE",
"171 394 OFFCURVE",
"171 435 CURVE SMOOTH",
"171 480 OFFCURVE",
"225 523 OFFCURVE",
"319 523 CURVE SMOOTH",
"398 523 OFFCURVE",
"426 509 OFFCURVE",
"450 495 CURVE",
"441 493 OFFCURVE",
"422 468 OFFCURVE",
"422 438 CURVE SMOOTH",
"422 395 OFFCURVE",
"455 368 OFFCURVE",
"496 368 CURVE SMOOTH",
"533 368 OFFCURVE",
"565 395 OFFCURVE",
"565 438 CURVE SMOOTH",
"565 524 OFFCURVE",
"461 591 OFFCURVE",
"319 591 CURVE SMOOTH",
"204 591 OFFCURVE",
"71 542 OFFCURVE",
"71 418 CURVE SMOOTH",
"71 292 OFFCURVE",
"202 272 OFFCURVE",
"319 248 CURVE SMOOTH",
"439 223 OFFCURVE",
"473 190 OFFCURVE",
"473 144 CURVE SMOOTH",
"473 86 OFFCURVE",
"411 55 OFFCURVE",
"319 55 CURVE SMOOTH",
"226 55 OFFCURVE",
"169 78 OFFCURVE",
"163 95 CURVE",
"176 100 OFFCURVE",
"207 117 OFFCURVE",
"207 158 CURVE SMOOTH",
"207 201 OFFCURVE",
"175 223 OFFCURVE",
"134 223 CURVE SMOOTH",
"96 223 OFFCURVE",
"61 190 OFFCURVE",
"61 144 CURVE SMOOTH",
"61 47 OFFCURVE",
"174 -13 OFFCURVE",
"319 -13 CURVE SMOOTH"
);
}
);
width = 619;
}
);
},
{
color = 4;
glyphname = t.sc;
layers = (
{
layerId = "EE746D13-63D7-48F9-B77E-C723CA6A668B";
paths = (
{
closed = 1;
nodes = (
"512 0 LINE",
"512 64 LINE",
"391 64 LINE",
"391 512 LINE",
"552 512 LINE",
"552 341 LINE",
"628 341 LINE",
"628 576 LINE",
"47 576 LINE",
"47 341 LINE",
"123 341 LINE",
"123 512 LINE",
"284 512 LINE",
"284 64 LINE",
"163 64 LINE",
"163 0 LINE"
);
}
);
width = 675;
}
);
leftKerningGroup = T;
note = T;
rightKerningGroup = T;
},
{
color = 4;
glyphname = u.sc;
layers = (
{
layerId = "EE746D13-63D7-48F9-B77E-C723CA6A668B";
paths = (
{
closed = 1;
nodes = (
"541 -13 OFFCURVE",
"615 75 OFFCURVE",
"615 237 CURVE SMOOTH",
"615 512 LINE",
"720 512 LINE",
"720 576 LINE",
"411 576 LINE",
"411 512 LINE",
"538 512 LINE",
"538 218 LINE SMOOTH",
"538 120 OFFCURVE",
"478 55 OFFCURVE",
"386 55 CURVE SMOOTH",
"291 55 OFFCURVE",
"233 119 OFFCURVE",
"233 215 CURVE SMOOTH",
"233 512 LINE",
"341 512 LINE",
"341 576 LINE",
"19 576 LINE",
"19 512 LINE",
"126 512 LINE",
"126 222 LINE SMOOTH",
"126 82 OFFCURVE",
"204 -13 OFFCURVE",
"367 -13 CURVE SMOOTH"
);
}
);
width = 737;
}
);
leftKerningGroup = U;
note = U;
rightKerningGroup = U;
},
{
color = 4;
glyphname = v.sc;
layers = (
{
guideLines = (
{
angle = 111.8207;
position = "{191, 256}";
},
{
angle = 248.5661;
position = "{493, 256}";
},
{
angle = 111.8207;
position = "{301, 256}";
},
{
angle = 248.5661;
position = "{416, 256}";
}
);
layerId = "EE746D13-63D7-48F9-B77E-C723CA6A668B";
paths = (
{
closed = 1;
nodes = (
"392 0 LINE",
"593 512 LINE",
"683 512 LINE",
"683 576 LINE",
"392 576 LINE",
"392 512 LINE",
"516 512 LINE",
"359 111 LINE",
"199 512 LINE",
"307 512 LINE",
"307 576 LINE",
"-12 576 LINE",
"-12 512 LINE",
"88 512 LINE",
"293 0 LINE"
);
}
);
width = 671;
}
);
leftKerningGroup = V;
rightKerningGroup = V;
},
{
color = 4;
glyphname = w.sc;
layers = (
{
guideLines = (
{
angle = 107.9637;
position = "{164, 256}";
},
{
angle = 107.9637;
position = "{275, 256}";
},
{
angle = 248.1465;
position = "{391, 324}";
},
{
angle = 248.1465;
position = "{468, 324}";
},
{
angle = 107.9637;
position = "{535, 256}";
},
{
angle = 107.9637;
position = "{646, 256}";
}
);
layerId = "EE746D13-63D7-48F9-B77E-C723CA6A668B";
paths = (
{
closed = 1;
nodes = (
"725 512 LINE",
"822 512 LINE",
"698 131 LINE",
"563 513 LINE",
"467 513 LINE",
"322 134 LINE",
"199 512 LINE",
"320 512 LINE",
"320 576 LINE",
"-12 576 LINE",
"-12 512 LINE",
"88 512 LINE",
"254 0 LINE",
"345 0 LINE",
"493 385 LINE",
"630 0 LINE",
"732 0 LINE",
"899 512 LINE",
"995 512 LINE",
"995 576 LINE",
"725 576 LINE"
);
}
);
width = 982;
}
);
},
{
color = 4;
glyphname = x.sc;
layers = (
{
guideLines = (
{
angle = 90;
position = "{684, 549}";
},
{
angle = 90;
position = "{22, 549}";
},
{
angle = 130.3871;
position = "{200, 402}";
},
{
angle = 130.3871;
position = "{321, 402}";
},
{
angle = 228.0587;
position = "{470, 409}";
},
{
angle = 228.0587;
position = "{394, 409}";
}
);
layerId = "EE746D13-63D7-48F9-B77E-C723CA6A668B";
paths = (
{
closed = 1;
nodes = (
"261 0 LINE",
"261 64 LINE",
"160 64 LINE",
"328 251 LINE",
"488 64 LINE",
"388 64 LINE",
"388 0 LINE",
"684 0 LINE",
"684 64 LINE",
"609 64 LINE",
"404 305 LINE",
"590 512 LINE",
"667 512 LINE",
"667 576 LINE",
"417 576 LINE",
"417 512 LINE",
"514 512 LINE",
"362 343 LINE",
"219 512 LINE",
"319 512 LINE",
"319 576 LINE",
"22 576 LINE",
"22 512 LINE",
"97 512 LINE",
"285 288 LINE",
"84 64 LINE",
"7 64 LINE",
"7 0 LINE"
);
}
);
width = 691;
}
);
leftKerningGroup = X;
note = X;
},
{
color = 4;
glyphname = y.sc;
layers = (
{
guideLines = (
{
angle = 123.4434;
position = "{283, 405}";
},
{
angle = 123.4434;
position = "{172, 405}";
},
{
angle = 235.6421;
position = "{407, 375}";
}
);
layerId = "EE746D13-63D7-48F9-B77E-C723CA6A668B";
paths = (
{
closed = 1;
nodes = (
"502 0 LINE",
"502 64 LINE",
"390 64 LINE",
"390 237 LINE",
"578 512 LINE",
"672 512 LINE",
"672 576 LINE",
"403 576 LINE",
"403 512 LINE",
"501 512 LINE",
"354 297 LINE",
"212 512 LINE",
"301 512 LINE",
"301 576 LINE",
"0 576 LINE",
"0 512 LINE",
"101 512 LINE",
"283 237 LINE",
"283 64 LINE",
"164 64 LINE",
"164 0 LINE"
);
}
);
width = 672;
}
);
leftKerningGroup = Y;
note = Y;
rightKerningGroup = Y;
},
{
color = 4;
glyphname = z.sc;
layers = (
{
guideLines = (
{
angle = 229.5599;
position = "{345, 296}";
},
{
angle = 229.56;
position = "{235, 296}";
}
);
layerId = "EE746D13-63D7-48F9-B77E-C723CA6A668B";
paths = (
{
closed = 1;
nodes = (
"540 0 LINE",
"540 228 LINE",
"464 228 LINE",
"464 63 LINE",
"154 63 LINE",
"534 505 LINE",
"534 576 LINE",
"55 576 LINE",
"55 360 LINE",
"131 360 LINE",
"131 516 LINE",
"422 516 LINE",
"42 65 LINE",
"42 0 LINE"
);
}
);
width = 582;
}
);
},
{
glyphname = ordfeminine;
layers = (
{
layerId = "EE746D13-63D7-48F9-B77E-C723CA6A668B";
paths = (
{
closed = 1;
nodes = (
"251 261 OFFCURVE",
"314 305 OFFCURVE",
"339 366 CURVE",
"345 299 OFFCURVE",
"396 261 OFFCURVE",
"455 261 CURVE SMOOTH",
"457 261 LINE SMOOTH",
"490 262 OFFCURVE",
"516 270 OFFCURVE",
"538 290 CURVE SMOOTH",
"560 310 OFFCURVE",
"572 349 OFFCURVE",
"572 404 CURVE SMOOTH",
"572 457 LINE",
"525 457 LINE",
"525 395 LINE SMOOTH",
"525 346 OFFCURVE",
"508 321 OFFCURVE",
"473 321 CURVE SMOOTH",
"460 321 OFFCURVE",
"451 325 OFFCURVE",
"443 333 CURVE SMOOTH",
"427 349 OFFCURVE",
"422 370 OFFCURVE",
"422 391 CURVE SMOOTH",
"422 583 LINE SMOOTH",
"422 637 OFFCURVE",
"405 678 OFFCURVE",
"375 700 CURVE SMOOTH",
"344 722 OFFCURVE",
"307 732 OFFCURVE",
"261 732 CURVE SMOOTH",
"204 732 OFFCURVE",
"153 714 OFFCURVE",
"126 689 CURVE SMOOTH",
"98 664 OFFCURVE",
"83 637 OFFCURVE",
"83 614 CURVE SMOOTH",
"83 570 OFFCURVE",
"112 546 OFFCURVE",
"145 546 CURVE SMOOTH",
"176 546 OFFCURVE",
"204 570 OFFCURVE",
"204 605 CURVE SMOOTH",
"204 632 OFFCURVE",
"181 654 OFFCURVE",
"145 654 CURVE",
"164 675 OFFCURVE",
"203 689 OFFCURVE",
"243 689 CURVE SMOOTH",
"300 689 OFFCURVE",
"333 658 OFFCURVE",
"333 595 CURVE SMOOTH",
"333 581 OFFCURVE",
"328 568 OFFCURVE",
"318 557 CURVE SMOOTH",
"298 533 OFFCURVE",
"266 519 OFFCURVE",
"229 504 CURVE SMOOTH",
"191 489 OFFCURVE",
"151 473 OFFCURVE",
"120 453 CURVE SMOOTH",
"89 434 OFFCURVE",
"67 403 OFFCURVE",
"67 365 CURVE SMOOTH",
"67 301 OFFCURVE",
"116 261 OFFCURVE",
"185 261 CURVE SMOOTH"
);
},
{
closed = 1;
nodes = (
"174 322 OFFCURVE",
"158 340 OFFCURVE",
"158 369 CURVE SMOOTH",
"158 402 OFFCURVE",
"183 425 OFFCURVE",
"213 438 CURVE SMOOTH",
"243 452 OFFCURVE",
"297 481 OFFCURVE",
"333 516 CURVE",
"333 428 LINE SMOOTH",
"333 381 OFFCURVE",
"263 322 OFFCURVE",
"207 322 CURVE SMOOTH"
);
}
);
width = 641;
}
);
note = ordfeminine;
unicode = 00AA;
},
{
glyphname = ordmasculine;
layers = (
{
layerId = "EE746D13-63D7-48F9-B77E-C723CA6A668B";
paths = (
{
closed = 1;
nodes = (
"333 279 OFFCURVE",
"372 290 OFFCURVE",
"405 311 CURVE SMOOTH",
"471 353 OFFCURVE",
"504 426 OFFCURVE",
"504 514 CURVE SMOOTH",
"504 651 OFFCURVE",
"421 750 OFFCURVE",
"288 750 CURVE SMOOTH",
"243 750 OFFCURVE",
"204 740 OFFCURVE",
"171 719 CURVE SMOOTH",
"104 677 OFFCURVE",
"70 604 OFFCURVE",
"70 514 CURVE SMOOTH",
"70 378 OFFCURVE",
"154 279 OFFCURVE",
"289 279 CURVE SMOOTH"
);
},
{
closed = 1;
nodes = (
"212 332 OFFCURVE",
"166 402 OFFCURVE",
"166 509 CURVE SMOOTH",
"166 546 OFFCURVE",
"170 579 OFFCURVE",
"178 607 CURVE SMOOTH",
"195 663 OFFCURVE",
"233 700 OFFCURVE",
"288 700 CURVE SMOOTH",
"315 700 OFFCURVE",
"338 691 OFFCURVE",
"357 674 CURVE SMOOTH",
"394 640 OFFCURVE",
"409 584 OFFCURVE",
"409 509 CURVE SMOOTH",
"409 403 OFFCURVE",
"363 332 OFFCURVE",
"289 332 CURVE SMOOTH"
);
}
);
width = 575;
}
);
note = ordmasculine;
unicode = 00BA;
},
{
glyphname = uni03BC;
layers = (
{
layerId = "EE746D13-63D7-48F9-B77E-C723CA6A668B";
paths = (
{
closed = 1;
nodes = (
"184 -219 OFFCURVE",
"204 -195 OFFCURVE",
"204 -164 CURVE SMOOTH",
"204 -156 OFFCURVE",
"197 -123 OFFCURVE",
"184 -64 CURVE SMOOTH",
"171 -5 OFFCURVE",
"164 37 OFFCURVE",
"164 64 CURVE",
"173 33 OFFCURVE",
"194 9 OFFCURVE",
"217 0 CURVE SMOOTH",
"240 -10 OFFCURVE",
"258 -14 OFFCURVE",
"272 -14 CURVE SMOOTH",
"335 -14 OFFCURVE",
"397 20 OFFCURVE",
"443 85 CURVE",
"443 -14 LINE",
"640 0 LINE",
"640 45 LINE",
"545 55 LINE",
"545 524 LINE",
"351 524 LINE",
"351 466 LINE",
"440 466 LINE",
"440 183 LINE SMOOTH",
"440 163 OFFCURVE",
"432 144 OFFCURVE",
"417 124 CURVE SMOOTH",
"385 84 OFFCURVE",
"334 57 OFFCURVE",
"293 57 CURVE SMOOTH",
"235 57 OFFCURVE",
"208 92 OFFCURVE",
"208 177 CURVE SMOOTH",
"208 524 LINE",
"3 524 LINE",
"3 466 LINE",
"103 466 LINE",
"103 -147 LINE SMOOTH",
"103 -195 OFFCURVE",
"120 -219 OFFCURVE",
"155 -219 CURVE SMOOTH"
);
}
);
width = 668;
}
);
note = uni03BC;
unicode = 03BC;
},
{
glyphname = seven.001;
layers = (
{
layerId = "EE746D13-63D7-48F9-B77E-C723CA6A668B";
paths = (
{
closed = 1;
nodes = (
"419 525 LINE",
"405 500 OFFCURVE",
"384 484 OFFCURVE",
"353 484 CURVE SMOOTH",
"309 484 OFFCURVE",
"292 529 OFFCURVE",
"225 529 CURVE SMOOTH",
"174 529 OFFCURVE",
"145 504 OFFCURVE",
"127 481 CURVE",
"127 524 LINE",
"51 524 LINE",
"51 336 LINE",
"127 336 LINE",
"127 335 LINE",
"127 403 OFFCURVE",
"172 443 OFFCURVE",
"227 443 CURVE SMOOTH",
"262 443 OFFCURVE",
"277 430 OFFCURVE",
"313 430 CURVE SMOOTH",
"333 430 OFFCURVE",
"352 433 OFFCURVE",
"373 445 CURVE",
"289 341 OFFCURVE",
"175 54 OFFCURVE",
"175 -84 CURVE SMOOTH",
"175 -149 OFFCURVE",
"206 -171 OFFCURVE",
"236 -171 CURVE SMOOTH",
"267 -171 OFFCURVE",
"299 -141 OFFCURVE",
"298 -64 CURVE SMOOTH",
"295 142 OFFCURVE",
"341 301 OFFCURVE",
"436 441 CURVE SMOOTH",
"464 484 OFFCURVE",
"463 525 OFFCURVE",
"463 525 CURVE SMOOTH"
);
}
);
width = 494;
}
);
note = seven;
},
{
glyphname = zero;
layers = (
{
guideLines = (
{
position = "{565, 745}";
}
);
layerId = "EE746D13-63D7-48F9-B77E-C723CA6A668B";
paths = (
{
closed = 1;
nodes = (
"423 -11 OFFCURVE",
"518 117 OFFCURVE",
"518 265 CURVE SMOOTH",
"518 412 OFFCURVE",
"424 540 OFFCURVE",
"272 540 CURVE SMOOTH",
"121 540 OFFCURVE",
"26 412 OFFCURVE",
"26 265 CURVE SMOOTH",
"26 118 OFFCURVE",
"120 -11 OFFCURVE",
"272 -11 CURVE SMOOTH"
);
},
{
closed = 1;
nodes = (
"186 53 OFFCURVE",
"142 165 OFFCURVE",
"142 265 CURVE SMOOTH",
"142 366 OFFCURVE",
"186 480 OFFCURVE",
"272 480 CURVE SMOOTH",
"359 480 OFFCURVE",
"402 365 OFFCURVE",
"402 265 CURVE SMOOTH",
"402 164 OFFCURVE",
"360 53 OFFCURVE",
"272 53 CURVE SMOOTH"
);
}
);
width = 544;
}
);
note = zero;
unicode = 0030;
},
{
glyphname = one;
layers = (
{
guideLines = (
{
angle = 90;
position = "{147, 57}";
},
{
angle = 180;
position = "{477, 145}";
},
{
position = "{234, 928}";
}
);
layerId = "EE746D13-63D7-48F9-B77E-C723CA6A668B";
paths = (
{
closed = 1;
nodes = (
"281 69 LINE",
"378 69 LINE",
"378 0 LINE",
"72 0 LINE",
"72 69 LINE",
"176 69 LINE",
"176 407 LINE",
"72 407 LINE",
"72 453 LINE",
"104 453 OFFCURVE",
"184 468 OFFCURVE",
"207 526 CURVE",
"281 525 LINE"
);
}
);
width = 401;
}
);
note = one;
unicode = 0031;
},
{
glyphname = two;
layers = (
{
layerId = "EE746D13-63D7-48F9-B77E-C723CA6A668B";
paths = (
{
closed = 1;
nodes = (
"493 161 LINE",
"413 161 LINE",
"413 80 LINE",
"201 80 LINE",
"373 223 OFFCURVE",
"472 287 OFFCURVE",
"472 389 CURVE SMOOTH",
"472 472 OFFCURVE",
"398 540 OFFCURVE",
"280 540 CURVE SMOOTH",
"153 540 OFFCURVE",
"51 469 OFFCURVE",
"51 388 CURVE SMOOTH",
"51 343 OFFCURVE",
"78 306 OFFCURVE",
"129 306 CURVE SMOOTH",
"174 306 OFFCURVE",
"205 334 OFFCURVE",
"205 377 CURVE SMOOTH",
"205 409 OFFCURVE",
"182 431 OFFCURVE",
"157 438 CURVE",
"184 469 OFFCURVE",
"219 484 OFFCURVE",
"264 484 CURVE SMOOTH",
"313 484 OFFCURVE",
"362 443 OFFCURVE",
"362 387 CURVE SMOOTH",
"362 289 OFFCURVE",
"207 177 OFFCURVE",
"60 58 CURVE",
"61 58 OFFCURVE",
"64 39 OFFCURVE",
"70 0 CURVE",
"403 0 LINE",
"493 0 LINE"
);
}
);
width = 517;
}
);
note = two;
unicode = 0032;
},
{
glyphname = three;
layers = (
{
layerId = "EE746D13-63D7-48F9-B77E-C723CA6A668B";
paths = (
{
closed = 1;
nodes = (
"400 -146 OFFCURVE",
"491 -57 OFFCURVE",
"491 52 CURVE SMOOTH",
"491 165 OFFCURVE",
"415 227 OFFCURVE",
"327 228 CURVE",
"415 241 OFFCURVE",
"461 306 OFFCURVE",
"461 374 CURVE SMOOTH",
"461 476 OFFCURVE",
"380 540 OFFCURVE",
"261 540 CURVE SMOOTH",
"139 540 OFFCURVE",
"42 466 OFFCURVE",
"42 388 CURVE SMOOTH",
"42 343 OFFCURVE",
"69 306 OFFCURVE",
"123 306 CURVE SMOOTH",
"167 306 OFFCURVE",
"198 334 OFFCURVE",
"198 377 CURVE SMOOTH",
"198 409 OFFCURVE",
"176 431 OFFCURVE",
"151 438 CURVE",
"178 467 OFFCURVE",
"210 481 OFFCURVE",
"253 481 CURVE SMOOTH",
"313 481 OFFCURVE",
"367 443 OFFCURVE",
"367 374 CURVE SMOOTH",
"367 306 OFFCURVE",
"301 254 OFFCURVE",
"205 249 CURVE",
"213 186 LINE",
"226 187 OFFCURVE",
"249 188 OFFCURVE",
"266 188 CURVE SMOOTH",
"347 188 OFFCURVE",
"385 120 OFFCURVE",
"385 53 CURVE SMOOTH",
"385 -27 OFFCURVE",
"328 -83 OFFCURVE",
"248 -83 CURVE SMOOTH",
"222 -83 OFFCURVE",
"178 -72 OFFCURVE",
"151 -43 CURVE",
"176 -36 OFFCURVE",
"198 -14 OFFCURVE",
"198 18 CURVE SMOOTH",
"198 60 OFFCURVE",
"167 88 OFFCURVE",
"123 88 CURVE SMOOTH",
"69 88 OFFCURVE",
"42 51 OFFCURVE",
"42 6 CURVE SMOOTH",
"42 -71 OFFCURVE",
"141 -146 OFFCURVE",
"262 -146 CURVE SMOOTH"
);
}
);
width = 540;
}
);
note = three;
unicode = 0033;
},
{
glyphname = four;
layers = (
{
guideLines = (
{
angle = -7.1019;
position = "{748, 1068}";
}
);
layerId = "EE746D13-63D7-48F9-B77E-C723CA6A668B";
paths = (
{
closed = 0;
nodes = (
"914 254 LINE"
);
},
{
closed = 1;
nodes = (
"540 -199 LINE",
"540 -129 LINE",
"426 -129 LINE",
"426 9 LINE",
"550 9 LINE",
"559 83 LINE",
"426 83 LINE",
"426 526 LINE",
"310 539 LINE",
"35 75 LINE",
"47 9 LINE",
"326 9 LINE",
"326 -127 LINE",
"209 -127 LINE",
"209 -199 LINE"
);
},
{
closed = 1;
nodes = (
"326 452 LINE",
"326 83 LINE",
"125 83 LINE"
);
}
);
width = 559;
}
);
note = four;
unicode = 0034;
},
{
glyphname = five;
layers = (
{
layerId = "EE746D13-63D7-48F9-B77E-C723CA6A668B";
paths = (
{
closed = 1;
nodes = (
"211 -83 OFFCURVE",
"176 -72 OFFCURVE",
"149 -43 CURVE",
"174 -36 OFFCURVE",
"197 -14 OFFCURVE",
"197 18 CURVE SMOOTH",
"197 60 OFFCURVE",
"166 88 OFFCURVE",
"122 88 CURVE SMOOTH",
"67 88 OFFCURVE",
"41 51 OFFCURVE",
"41 6 CURVE SMOOTH",
"41 -71 OFFCURVE",
"132 -147 OFFCURVE",
"254 -147 CURVE SMOOTH",
"396 -147 OFFCURVE",
"493 -51 OFFCURVE",
"493 83 CURVE SMOOTH",
"493 233 OFFCURVE",
"385 302 OFFCURVE",
"224 302 CURVE SMOOTH",
"198 302 OFFCURVE",
"174 297 OFFCURVE",
"151 295 CURVE",
"174 441 LINE",
"445 441 LINE",
"446 524 LINE",
"114 524 LINE",
"77 271 LINE",
"106 236 LINE",
"132 239 OFFCURVE",
"153 241 OFFCURVE",
"169 241 CURVE SMOOTH",
"291 241 OFFCURVE",
"384 189 OFFCURVE",
"384 72 CURVE SMOOTH",
"384 -14 OFFCURVE",
"330 -83 OFFCURVE",
"247 -83 CURVE SMOOTH"
);
}
);
width = 530;
}
);
note = five;
unicode = 0035;
},
{
glyphname = six;
layers = (
{
guideLines = (
{
angle = 270;
position = "{21, 336}";
}
);
layerId = "EE746D13-63D7-48F9-B77E-C723CA6A668B";
paths = (
{
closed = 1;
nodes = (
"451 688 OFFCURVE",
"361 727 OFFCURVE",
"285 727 CURVE SMOOTH",
"110 727 OFFCURVE",
"39 547 OFFCURVE",
"39 346 CURVE SMOOTH",
"39 113 OFFCURVE",
"123 -4 OFFCURVE",
"272 -4 CURVE SMOOTH",
"405 -4 OFFCURVE",
"490 110 OFFCURVE",
"490 223 CURVE SMOOTH",
"490 382 OFFCURVE",
"386 453 OFFCURVE",
"274 453 CURVE SMOOTH",
"177 453 OFFCURVE",
"112 356 OFFCURVE",
"111 295 CURVE",
"99 131 LINE",
"191 99 LINE",
"188 104 OFFCURVE",
"154 146 OFFCURVE",
"154 227 CURVE SMOOTH",
"155 324 OFFCURVE",
"196 389 OFFCURVE",
"273 389 CURVE SMOOTH",
"346 389 OFFCURVE",
"391 326 OFFCURVE",
"391 223 CURVE SMOOTH",
"391 145 OFFCURVE",
"353 57 OFFCURVE",
"272 57 CURVE SMOOTH",
"190 57 OFFCURVE",
"136 155 OFFCURVE",
"136 346 CURVE SMOOTH",
"136 522 OFFCURVE",
"187 674 OFFCURVE",
"297 674 CURVE SMOOTH",
"316 674 OFFCURVE",
"328 674 OFFCURVE",
"349 662 CURVE",
"313 662 OFFCURVE",
"299 628 OFFCURVE",
"299 606 CURVE SMOOTH",
"299 560 OFFCURVE",
"333 532 OFFCURVE",
"375 532 CURVE SMOOTH",
"424 532 OFFCURVE",
"451 569 OFFCURVE",
"451 609 CURVE SMOOTH"
);
}
);
width = 528;
}
);
note = six;
unicode = 0036;
},
{
glyphname = seven;
layers = (
{
guideLines = (
{
position = "{283, 909}";
}
);
layerId = "EE746D13-63D7-48F9-B77E-C723CA6A668B";
paths = (
{
closed = 1;
nodes = (
"271 -152 OFFCURVE",
"302 -122 OFFCURVE",
"301 -54 CURVE SMOOTH",
"298 114 OFFCURVE",
"355 336 OFFCURVE",
"461 450 CURVE",
"435 524 LINE",
"41 524 LINE",
"41 336 LINE",
"124 336 LINE",
"124 444 LINE",
"124 444 OFFCURVE",
"374 444 OFFCURVE",
"374 444 CURVE",
"272 324 OFFCURVE",
"173 74 OFFCURVE",
"173 -55 CURVE SMOOTH",
"173 -129 OFFCURVE",
"210 -152 OFFCURVE",
"241 -152 CURVE SMOOTH"
);
}
);
width = 509;
}
);
note = seven;
unicode = 0037;
},
{
glyphname = eight;
layers = (
{
guideLines = (
{
position = "{662, 1153}";
},
{
position = "{445, 355}";
}
);
layerId = "EE746D13-63D7-48F9-B77E-C723CA6A668B";
paths = (
{
closed = 1;
nodes = (
"117 340 OFFCURVE",
"46 270 OFFCURVE",
"46 176 CURVE SMOOTH",
"46 74 OFFCURVE",
"141 -13 OFFCURVE",
"307 -13 CURVE SMOOTH",
"477 -13 OFFCURVE",
"557 78 OFFCURVE",
"557 176 CURVE SMOOTH",
"557 282 OFFCURVE",
"481 333 OFFCURVE",
"385 384 CURVE",
"463 419 OFFCURVE",
"525 481 OFFCURVE",
"525 562 CURVE SMOOTH",
"525 653 OFFCURVE",
"435 737 OFFCURVE",
"299 737 CURVE SMOOTH",
"166 737 OFFCURVE",
"80 658 OFFCURVE",
"80 562 CURVE SMOOTH",
"80 483 OFFCURVE",
"127 427 OFFCURVE",
"221 371 CURVE"
);
},
{
closed = 1;
nodes = (
"361 311 OFFCURVE",
"455 251 OFFCURVE",
"455 176 CURVE SMOOTH",
"455 102 OFFCURVE",
"394 47 OFFCURVE",
"309 47 CURVE SMOOTH",
"204 47 OFFCURVE",
"153 110 OFFCURVE",
"153 176 CURVE SMOOTH",
"153 251 OFFCURVE",
"215 308 OFFCURVE",
"285 335 CURVE"
);
},
{
closed = 1;
nodes = (
"266 448 OFFCURVE",
"170 493 OFFCURVE",
"170 562 CURVE SMOOTH",
"170 623 OFFCURVE",
"226 675 OFFCURVE",
"299 675 CURVE SMOOTH",
"384 675 OFFCURVE",
"436 617 OFFCURVE",
"436 562 CURVE SMOOTH",
"436 497 OFFCURVE",
"391 447 OFFCURVE",
"327 417 CURVE"
);
}
);
width = 603;
}
);
note = eight;
unicode = 0038;
},
{
glyphname = nine;
layers = (
{
layerId = "EE746D13-63D7-48F9-B77E-C723CA6A668B";
paths = (
{
closed = 1;
nodes = (
"89 -167 OFFCURVE",
"179 -207 OFFCURVE",
"255 -207 CURVE SMOOTH",
"430 -207 OFFCURVE",
"501 -27 OFFCURVE",
"501 175 CURVE SMOOTH",
"501 407 OFFCURVE",
"417 525 OFFCURVE",
"268 525 CURVE SMOOTH",
"135 525 OFFCURVE",
"50 411 OFFCURVE",
"50 298 CURVE SMOOTH",
"50 138 OFFCURVE",
"154 68 OFFCURVE",
"263 68 CURVE SMOOTH",
"363 68 OFFCURVE",
"428 159 OFFCURVE",
"429 226 CURVE",
"441 389 LINE",
"349 421 LINE",
"353 416 OFFCURVE",
"386 375 OFFCURVE",
"386 293 CURVE SMOOTH",
"385 196 OFFCURVE",
"344 132 OFFCURVE",
"264 132 CURVE SMOOTH",
"194 132 OFFCURVE",
"149 194 OFFCURVE",
"149 298 CURVE SMOOTH",
"149 375 OFFCURVE",
"187 464 OFFCURVE",
"268 464 CURVE SMOOTH",
"350 464 OFFCURVE",
"404 366 OFFCURVE",
"404 174 CURVE SMOOTH",
"404 -1 OFFCURVE",
"354 -154 OFFCURVE",
"243 -154 CURVE SMOOTH",
"224 -154 OFFCURVE",
"212 -153 OFFCURVE",
"191 -141 CURVE",
"227 -141 OFFCURVE",
"241 -108 OFFCURVE",
"241 -85 CURVE SMOOTH",
"241 -40 OFFCURVE",
"208 -11 OFFCURVE",
"166 -11 CURVE SMOOTH",
"116 -11 OFFCURVE",
"89 -48 OFFCURVE",
"89 -88 CURVE SMOOTH"
);
}
);
width = 552;
}
);
note = nine;
unicode = 0039;
},
{
glyphname = zero.lf;
layers = (
{
guideLines = (
{
angle = 270;
position = "{1040, 539}";
},
{
angle = 270;
position = "{74, 541}";
}
);
layerId = "EE746D13-63D7-48F9-B77E-C723CA6A668B";
paths = (
{
closed = 1;
nodes = (
"438 -13 OFFCURVE",
"507 146 OFFCURVE",
"508 359 CURVE SMOOTH",
"508 577 OFFCURVE",
"438 733 OFFCURVE",
"272 733 CURVE SMOOTH",
"106 733 OFFCURVE",
"37 577 OFFCURVE",
"36 359 CURVE SMOOTH",
"36 147 OFFCURVE",
"105 -13 OFFCURVE",
"272 -13 CURVE SMOOTH"
);
},
{
closed = 1;
nodes = (
"173 49 OFFCURVE",
"144 194 OFFCURVE",
"144 359 CURVE SMOOTH",
"145 521 OFFCURVE",
"173 670 OFFCURVE",
"272 670 CURVE SMOOTH",
"371 670 OFFCURVE",
"400 521 OFFCURVE",
"400 359 CURVE SMOOTH",
"399 193 OFFCURVE",
"372 49 OFFCURVE",
"272 49 CURVE SMOOTH"
);
}
);
width = 544;
}
);
},
{
glyphname = one.lf;
layers = (
{
layerId = "EE746D13-63D7-48F9-B77E-C723CA6A668B";
paths = (
{
closed = 1;
nodes = (
"240 69 LINE",
"339 69 LINE",
"339 0 LINE",
"33 0 LINE",
"33 69 LINE",
"138 69 LINE",
"138 617 LINE",
"32 617 LINE",
"32 662 LINE",
"65 663 OFFCURVE",
"146 677 OFFCURVE",
"168 735 CURVE",
"241 735 LINE"
);
}
);
width = 362;
}
);
},
{
glyphname = two.lf;
layers = (
{
layerId = "EE746D13-63D7-48F9-B77E-C723CA6A668B";
paths = (
{
closed = 1;
nodes = (
"482 161 LINE",
"402 161 LINE",
"402 80 LINE",
"168 80 LINE",
"305 243 OFFCURVE",
"461 402 OFFCURVE",
"461 548 CURVE SMOOTH",
"461 667 OFFCURVE",
"384 750 OFFCURVE",
"260 750 CURVE SMOOTH",
"143 750 OFFCURVE",
"41 679 OFFCURVE",
"41 598 CURVE SMOOTH",
"41 553 OFFCURVE",
"67 516 OFFCURVE",
"119 516 CURVE SMOOTH",
"163 516 OFFCURVE",
"194 544 OFFCURVE",
"194 587 CURVE SMOOTH",
"194 619 OFFCURVE",
"171 641 OFFCURVE",
"146 648 CURVE",
"176 686 OFFCURVE",
"216 694 OFFCURVE",
"242 694 CURVE SMOOTH",
"312 694 OFFCURVE",
"357 645 OFFCURVE",
"357 546 CURVE SMOOTH",
"357 395 OFFCURVE",
"235 272 OFFCURVE",
"51 58 CURVE",
"52 58 OFFCURVE",
"55 39 OFFCURVE",
"61 0 CURVE",
"393 0 LINE",
"482 0 LINE"
);
}
);
width = 519;
}
);
},
{
glyphname = three.lf;
layers = (
{
layerId = "EE746D13-63D7-48F9-B77E-C723CA6A668B";
paths = (
{
closed = 1;
nodes = (
"394 -13 OFFCURVE",
"499 76 OFFCURVE",
"499 208 CURVE SMOOTH",
"499 314 OFFCURVE",
"422 396 OFFCURVE",
"335 404 CURVE",
"424 410 OFFCURVE",
"472 492 OFFCURVE",
"472 571 CURVE SMOOTH",
"472 675 OFFCURVE",
"390 748 OFFCURVE",
"269 748 CURVE SMOOTH",
"149 748 OFFCURVE",
"54 674 OFFCURVE",
"54 598 CURVE SMOOTH",
"54 553 OFFCURVE",
"81 517 OFFCURVE",
"134 517 CURVE SMOOTH",
"179 517 OFFCURVE",
"209 545 OFFCURVE",
"209 588 CURVE SMOOTH",
"209 619 OFFCURVE",
"188 640 OFFCURVE",
"164 648 CURVE",
"190 676 OFFCURVE",
"222 690 OFFCURVE",
"265 690 CURVE SMOOTH",
"324 690 OFFCURVE",
"378 642 OFFCURVE",
"378 572 CURVE SMOOTH",
"378 486 OFFCURVE",
"309 431 OFFCURVE",
"212 427 CURVE",
"221 364 LINE",
"234 365 OFFCURVE",
"257 366 OFFCURVE",
"273 365 CURVE SMOOTH",
"372 363 OFFCURVE",
"397 262 OFFCURVE",
"397 206 CURVE SMOOTH",
"397 119 OFFCURVE",
"338 50 OFFCURVE",
"267 50 CURVE SMOOTH",
"232 50 OFFCURVE",
"183 63 OFFCURVE",
"154 91 CURVE",
"179 98 OFFCURVE",
"202 120 OFFCURVE",
"202 152 CURVE SMOOTH",
"202 195 OFFCURVE",
"171 223 OFFCURVE",
"126 223 CURVE SMOOTH",
"73 223 OFFCURVE",
"46 186 OFFCURVE",
"46 141 CURVE SMOOTH",
"46 63 OFFCURVE",
"145 -13 OFFCURVE",
"277 -13 CURVE SMOOTH"
);
}
);
width = 540;
}
);
},
{
glyphname = four.lf;
layers = (
{
layerId = "EE746D13-63D7-48F9-B77E-C723CA6A668B";
paths = (
{
closed = 1;
nodes = (
"501 0 LINE",
"501 70 LINE",
"389 70 LINE",
"389 208 LINE",
"511 208 LINE",
"520 281 LINE",
"389 281 LINE",
"389 734 LINE",
"273 747 LINE",
"-4 274 LINE",
"8 208 LINE",
"289 208 LINE",
"289 72 LINE",
"170 72 LINE",
"170 0 LINE"
);
},
{
closed = 1;
nodes = (
"289 660 LINE",
"289 281 LINE",
"86 281 LINE"
);
}
);
width = 537;
}
);
},
{
glyphname = five.lf;
layers = (
{
layerId = "EE746D13-63D7-48F9-B77E-C723CA6A668B";
paths = (
{
closed = 1;
nodes = (
"211 55 OFFCURVE",
"176 65 OFFCURVE",
"149 94 CURVE",
"174 102 OFFCURVE",
"197 124 OFFCURVE",
"197 155 CURVE SMOOTH",
"197 198 OFFCURVE",
"166 226 OFFCURVE",
"122 226 CURVE SMOOTH",
"67 226 OFFCURVE",
"41 189 OFFCURVE",
"41 144 CURVE SMOOTH",
"41 66 OFFCURVE",
"132 -9 OFFCURVE",
"254 -9 CURVE SMOOTH",
"396 -9 OFFCURVE",
"493 86 OFFCURVE",
"493 240 CURVE SMOOTH",
"493 405 OFFCURVE",
"385 489 OFFCURVE",
"224 489 CURVE SMOOTH",
"198 489 OFFCURVE",
"174 484 OFFCURVE",
"151 481 CURVE",
"174 652 LINE",
"445 652 LINE",
"446 735 LINE",
"114 735 LINE",
"77 458 LINE",
"106 422 LINE",
"132 426 OFFCURVE",
"153 428 OFFCURVE",
"169 428 CURVE SMOOTH",
"291 428 OFFCURVE",
"385 365 OFFCURVE",
"385 233 CURVE SMOOTH",
"385 124 OFFCURVE",
"330 55 OFFCURVE",
"247 55 CURVE SMOOTH"
);
}
);
width = 530;
}
);
},
{
glyphname = six.lf;
layers = (
{
layerId = "EE746D13-63D7-48F9-B77E-C723CA6A668B";
paths = (
{
closed = 1;
nodes = (
"451 711 OFFCURVE",
"361 750 OFFCURVE",
"285 750 CURVE SMOOTH",
"110 750 OFFCURVE",
"39 570 OFFCURVE",
"39 360 CURVE SMOOTH",
"39 104 OFFCURVE",
"128 -13 OFFCURVE",
"277 -13 CURVE SMOOTH",
"404 -13 OFFCURVE",
"489 101 OFFCURVE",
"489 226 CURVE SMOOTH",
"489 397 OFFCURVE",
"385 467 OFFCURVE",
"284 467 CURVE SMOOTH",
"177 467 OFFCURVE",
"112 371 OFFCURVE",
"111 310 CURVE",
"99 123 LINE",
"191 90 LINE",
"188 96 OFFCURVE",
"153 137 OFFCURVE",
"154 230 CURVE SMOOTH",
"155 339 OFFCURVE",
"196 403 OFFCURVE",
"273 403 CURVE SMOOTH",
"346 403 OFFCURVE",
"390 341 OFFCURVE",
"390 226 CURVE SMOOTH",
"390 136 OFFCURVE",
"352 48 OFFCURVE",
"277 48 CURVE SMOOTH",
"190 48 OFFCURVE",
"136 146 OFFCURVE",
"136 361 CURVE SMOOTH",
"136 545 OFFCURVE",
"187 697 OFFCURVE",
"297 697 CURVE SMOOTH",
"316 697 OFFCURVE",
"328 697 OFFCURVE",
"349 685 CURVE",
"313 685 OFFCURVE",
"299 651 OFFCURVE",
"299 629 CURVE SMOOTH",
"299 583 OFFCURVE",
"333 555 OFFCURVE",
"375 555 CURVE SMOOTH",
"424 555 OFFCURVE",
"451 592 OFFCURVE",
"451 632 CURVE SMOOTH"
);
}
);
width = 528;
}
);
},
{
glyphname = seven.lf;
layers = (
{
layerId = "EE746D13-63D7-48F9-B77E-C723CA6A668B";
paths = (
{
closed = 1;
nodes = (
"271 -13 OFFCURVE",
"301 17 OFFCURVE",
"301 84 CURVE SMOOTH",
"298 316 OFFCURVE",
"337 525 OFFCURVE",
"461 660 CURVE",
"435 734 LINE",
"41 734 LINE",
"41 546 LINE",
"124 546 LINE",
"124 654 LINE",
"124 654 OFFCURVE",
"374 654 OFFCURVE",
"374 654 CURVE",
"274 536 OFFCURVE",
"173 281 OFFCURVE",
"173 91 CURVE SMOOTH",
"173 11 OFFCURVE",
"209 -13 OFFCURVE",
"241 -13 CURVE SMOOTH"
);
}
);
width = 494;
}
);
},
{
glyphname = eight.lf;
layers = (
{
layerId = "EE746D13-63D7-48F9-B77E-C723CA6A668B";
paths = (
{
closed = 1;
nodes = (
"117 350 OFFCURVE",
"46 280 OFFCURVE",
"46 181 CURVE SMOOTH",
"46 74 OFFCURVE",
"141 -13 OFFCURVE",
"307 -13 CURVE SMOOTH",
"477 -13 OFFCURVE",
"557 78 OFFCURVE",
"557 181 CURVE SMOOTH",
"557 292 OFFCURVE",
"481 343 OFFCURVE",
"385 394 CURVE",
"463 429 OFFCURVE",
"525 494 OFFCURVE",
"525 574 CURVE SMOOTH",
"525 668 OFFCURVE",
"435 751 OFFCURVE",
"299 751 CURVE SMOOTH",
"166 751 OFFCURVE",
"80 672 OFFCURVE",
"80 574 CURVE SMOOTH",
"80 496 OFFCURVE",
"127 437 OFFCURVE",
"221 380 CURVE"
);
},
{
closed = 1;
nodes = (
"361 321 OFFCURVE",
"455 261 OFFCURVE",
"455 181 CURVE SMOOTH",
"455 102 OFFCURVE",
"394 47 OFFCURVE",
"309 47 CURVE SMOOTH",
"204 47 OFFCURVE",
"153 110 OFFCURVE",
"153 181 CURVE SMOOTH",
"153 261 OFFCURVE",
"215 318 OFFCURVE",
"285 345 CURVE"
);
},
{
closed = 1;
nodes = (
"266 458 OFFCURVE",
"170 505 OFFCURVE",
"170 574 CURVE SMOOTH",
"170 638 OFFCURVE",
"226 690 OFFCURVE",
"299 690 CURVE SMOOTH",
"384 690 OFFCURVE",
"436 631 OFFCURVE",
"436 574 CURVE SMOOTH",
"436 509 OFFCURVE",
"391 457 OFFCURVE",
"327 426 CURVE"
);
}
);
width = 603;
}
);
},
{
glyphname = nine.lf;
layers = (
{
layerId = "EE746D13-63D7-48F9-B77E-C723CA6A668B";
paths = (
{
closed = 1;
nodes = (
"89 26 OFFCURVE",
"179 -13 OFFCURVE",
"255 -13 CURVE SMOOTH",
"430 -13 OFFCURVE",
"501 167 OFFCURVE",
"501 376 CURVE SMOOTH",
"501 632 OFFCURVE",
"412 750 OFFCURVE",
"263 750 CURVE SMOOTH",
"136 750 OFFCURVE",
"51 636 OFFCURVE",
"51 511 CURVE SMOOTH",
"51 340 OFFCURVE",
"155 270 OFFCURVE",
"256 270 CURVE SMOOTH",
"363 270 OFFCURVE",
"428 366 OFFCURVE",
"429 427 CURVE",
"441 614 LINE",
"349 646 LINE",
"353 641 OFFCURVE",
"387 600 OFFCURVE",
"386 507 CURVE SMOOTH",
"385 398 OFFCURVE",
"344 333 OFFCURVE",
"267 333 CURVE SMOOTH",
"194 333 OFFCURVE",
"150 396 OFFCURVE",
"150 511 CURVE SMOOTH",
"150 601 OFFCURVE",
"188 689 OFFCURVE",
"263 689 CURVE SMOOTH",
"350 689 OFFCURVE",
"404 591 OFFCURVE",
"404 376 CURVE SMOOTH",
"404 192 OFFCURVE",
"354 40 OFFCURVE",
"243 40 CURVE SMOOTH",
"224 40 OFFCURVE",
"212 40 OFFCURVE",
"191 52 CURVE",
"227 52 OFFCURVE",
"241 85 OFFCURVE",
"241 108 CURVE SMOOTH",
"241 154 OFFCURVE",
"208 182 OFFCURVE",
"166 182 CURVE SMOOTH",
"116 182 OFFCURVE",
"89 145 OFFCURVE",
"89 105 CURVE SMOOTH"
);
}
);
width = 528;
}
);
},
{
glyphname = four.osf.001;
layers = (
{
layerId = "EE746D13-63D7-48F9-B77E-C723CA6A668B";
paths = (
{
closed = 1;
nodes = (
"380 525 LINE",
"20 73 LINE",
"32 0 LINE",
"310 0 LINE",
"310 -122 LINE",
"193 -122 LINE",
"193 -189 LINE",
"524 -189 LINE",
"524 -122 LINE",
"410 -122 LINE",
"410 0 LINE",
"536 0 LINE",
"545 73 LINE",
"410 73 LINE",
"410 257 LINE",
"310 245 LINE",
"310 73 LINE",
"103 73 LINE",
"450 517 LINE"
);
}
);
width = 537;
}
);
},
{
glyphname = zero.osf;
layers = (
{
layerId = "EE746D13-63D7-48F9-B77E-C723CA6A668B";
paths = (
{
closed = 1;
nodes = (
"423 -11 OFFCURVE",
"518 117 OFFCURVE",
"518 265 CURVE SMOOTH",
"518 412 OFFCURVE",
"424 540 OFFCURVE",
"272 540 CURVE SMOOTH",
"121 540 OFFCURVE",
"26 412 OFFCURVE",
"26 265 CURVE SMOOTH",
"26 118 OFFCURVE",
"120 -11 OFFCURVE",
"272 -11 CURVE SMOOTH"
);
},
{
closed = 1;
nodes = (
"186 53 OFFCURVE",
"142 165 OFFCURVE",
"142 265 CURVE SMOOTH",
"142 366 OFFCURVE",
"186 480 OFFCURVE",
"272 480 CURVE SMOOTH",
"359 480 OFFCURVE",
"402 365 OFFCURVE",
"402 265 CURVE SMOOTH",
"402 164 OFFCURVE",
"360 53 OFFCURVE",
"272 53 CURVE SMOOTH"
);
}
);
width = 544;
}
);
},
{
glyphname = one.osf;
layers = (
{
layerId = "EE746D13-63D7-48F9-B77E-C723CA6A668B";
paths = (
{
closed = 1;
nodes = (
"281 69 LINE",
"378 69 LINE",
"378 0 LINE",
"72 0 LINE",
"72 69 LINE",
"176 69 LINE",
"176 407 LINE",
"72 407 LINE",
"72 453 LINE",
"104 453 OFFCURVE",
"184 468 OFFCURVE",
"207 526 CURVE",
"281 525 LINE"
);
}
);
width = 401;
}
);
},
{
glyphname = two.osf;
layers = (
{
layerId = "EE746D13-63D7-48F9-B77E-C723CA6A668B";
paths = (
{
closed = 1;
nodes = (
"493 161 LINE",
"413 161 LINE",
"413 80 LINE",
"201 80 LINE",
"373 223 OFFCURVE",
"472 287 OFFCURVE",
"472 389 CURVE SMOOTH",
"472 472 OFFCURVE",
"398 540 OFFCURVE",
"280 540 CURVE SMOOTH",
"153 540 OFFCURVE",
"51 469 OFFCURVE",
"51 388 CURVE SMOOTH",
"51 343 OFFCURVE",
"78 306 OFFCURVE",
"129 306 CURVE SMOOTH",
"174 306 OFFCURVE",
"205 334 OFFCURVE",
"205 377 CURVE SMOOTH",
"205 409 OFFCURVE",
"182 431 OFFCURVE",
"157 438 CURVE",
"184 469 OFFCURVE",
"219 484 OFFCURVE",
"264 484 CURVE SMOOTH",
"313 484 OFFCURVE",
"362 443 OFFCURVE",
"362 387 CURVE SMOOTH",
"362 289 OFFCURVE",
"207 177 OFFCURVE",
"60 58 CURVE",
"61 58 OFFCURVE",
"64 39 OFFCURVE",
"70 0 CURVE",
"403 0 LINE",
"493 0 LINE"
);
}
);
width = 517;
}
);
},
{
glyphname = three.osf;
layers = (
{
layerId = "EE746D13-63D7-48F9-B77E-C723CA6A668B";
paths = (
{
closed = 1;
nodes = (
"400 -146 OFFCURVE",
"491 -57 OFFCURVE",
"491 52 CURVE SMOOTH",
"491 165 OFFCURVE",
"415 227 OFFCURVE",
"327 228 CURVE",
"415 241 OFFCURVE",
"461 306 OFFCURVE",
"461 374 CURVE SMOOTH",
"461 476 OFFCURVE",
"380 540 OFFCURVE",
"261 540 CURVE SMOOTH",
"139 540 OFFCURVE",
"42 466 OFFCURVE",
"42 388 CURVE SMOOTH",
"42 343 OFFCURVE",
"69 306 OFFCURVE",
"123 306 CURVE SMOOTH",
"167 306 OFFCURVE",
"198 334 OFFCURVE",
"198 377 CURVE SMOOTH",
"198 409 OFFCURVE",
"176 431 OFFCURVE",
"151 438 CURVE",
"178 467 OFFCURVE",
"210 481 OFFCURVE",
"253 481 CURVE SMOOTH",
"313 481 OFFCURVE",
"367 443 OFFCURVE",
"367 374 CURVE SMOOTH",
"367 306 OFFCURVE",
"301 254 OFFCURVE",
"205 249 CURVE",
"213 186 LINE",
"226 187 OFFCURVE",
"249 188 OFFCURVE",
"266 188 CURVE SMOOTH",
"347 188 OFFCURVE",
"385 120 OFFCURVE",
"385 53 CURVE SMOOTH",
"385 -27 OFFCURVE",
"328 -83 OFFCURVE",
"248 -83 CURVE SMOOTH",
"222 -83 OFFCURVE",
"178 -72 OFFCURVE",
"151 -43 CURVE",
"176 -36 OFFCURVE",
"198 -14 OFFCURVE",
"198 18 CURVE SMOOTH",
"198 60 OFFCURVE",
"167 88 OFFCURVE",
"123 88 CURVE SMOOTH",
"69 88 OFFCURVE",
"42 51 OFFCURVE",
"42 6 CURVE SMOOTH",
"42 -71 OFFCURVE",
"141 -146 OFFCURVE",
"262 -146 CURVE SMOOTH"
);
}
);
width = 538;
}
);
},
{
glyphname = four.osf;
layers = (
{
layerId = "EE746D13-63D7-48F9-B77E-C723CA6A668B";
paths = (
{
closed = 0;
nodes = (
"914 254 LINE"
);
},
{
closed = 1;
nodes = (
"540 -199 LINE",
"540 -129 LINE",
"426 -129 LINE",
"426 9 LINE",
"550 9 LINE",
"559 83 LINE",
"426 83 LINE",
"426 526 LINE",
"310 539 LINE",
"35 75 LINE",
"47 9 LINE",
"326 9 LINE",
"326 -127 LINE",
"209 -127 LINE",
"209 -199 LINE"
);
},
{
closed = 1;
nodes = (
"326 452 LINE",
"326 83 LINE",
"125 83 LINE"
);
}
);
width = 537;
}
);
},
{
glyphname = five.osf;
layers = (
{
layerId = "EE746D13-63D7-48F9-B77E-C723CA6A668B";
paths = (
{
closed = 1;
nodes = (
"211 -83 OFFCURVE",
"176 -72 OFFCURVE",
"149 -43 CURVE",
"174 -36 OFFCURVE",
"197 -14 OFFCURVE",
"197 18 CURVE SMOOTH",
"197 60 OFFCURVE",
"166 88 OFFCURVE",
"122 88 CURVE SMOOTH",
"67 88 OFFCURVE",
"41 51 OFFCURVE",
"41 6 CURVE SMOOTH",
"41 -71 OFFCURVE",
"132 -147 OFFCURVE",
"254 -147 CURVE SMOOTH",
"396 -147 OFFCURVE",
"493 -51 OFFCURVE",
"493 83 CURVE SMOOTH",
"493 233 OFFCURVE",
"385 302 OFFCURVE",
"224 302 CURVE SMOOTH",
"198 302 OFFCURVE",
"174 297 OFFCURVE",
"151 295 CURVE",
"174 441 LINE",
"445 441 LINE",
"446 524 LINE",
"114 524 LINE",
"77 271 LINE",
"106 236 LINE",
"132 239 OFFCURVE",
"153 241 OFFCURVE",
"169 241 CURVE SMOOTH",
"291 241 OFFCURVE",
"384 189 OFFCURVE",
"384 72 CURVE SMOOTH",
"384 -14 OFFCURVE",
"330 -83 OFFCURVE",
"247 -83 CURVE SMOOTH"
);
}
);
width = 530;
}
);
},
{
glyphname = six.osf;
layers = (
{
layerId = "EE746D13-63D7-48F9-B77E-C723CA6A668B";
paths = (
{
closed = 1;
nodes = (
"451 688 OFFCURVE",
"361 727 OFFCURVE",
"285 727 CURVE SMOOTH",
"110 727 OFFCURVE",
"39 547 OFFCURVE",
"39 346 CURVE SMOOTH",
"39 113 OFFCURVE",
"123 -4 OFFCURVE",
"272 -4 CURVE SMOOTH",
"406 -4 OFFCURVE",
"491 110 OFFCURVE",
"491 223 CURVE SMOOTH",
"491 382 OFFCURVE",
"387 453 OFFCURVE",
"274 453 CURVE SMOOTH",
"177 453 OFFCURVE",
"112 356 OFFCURVE",
"111 295 CURVE",
"99 131 LINE",
"191 99 LINE",
"188 104 OFFCURVE",
"154 146 OFFCURVE",
"154 227 CURVE SMOOTH",
"155 324 OFFCURVE",
"196 389 OFFCURVE",
"273 389 CURVE SMOOTH",
"347 389 OFFCURVE",
"392 326 OFFCURVE",
"392 223 CURVE SMOOTH",
"392 145 OFFCURVE",
"354 57 OFFCURVE",
"272 57 CURVE SMOOTH",
"190 57 OFFCURVE",
"136 155 OFFCURVE",
"136 346 CURVE SMOOTH",
"136 522 OFFCURVE",
"187 674 OFFCURVE",
"297 674 CURVE SMOOTH",
"316 674 OFFCURVE",
"328 674 OFFCURVE",
"349 662 CURVE",
"313 662 OFFCURVE",
"299 628 OFFCURVE",
"299 606 CURVE SMOOTH",
"299 560 OFFCURVE",
"333 532 OFFCURVE",
"375 532 CURVE SMOOTH",
"424 532 OFFCURVE",
"451 569 OFFCURVE",
"451 609 CURVE SMOOTH"
);
}
);
width = 605;
}
);
},
{
glyphname = seven.osf;
layers = (
{
layerId = "EE746D13-63D7-48F9-B77E-C723CA6A668B";
paths = (
{
closed = 1;
nodes = (
"271 -152 OFFCURVE",
"302 -122 OFFCURVE",
"301 -54 CURVE SMOOTH",
"298 114 OFFCURVE",
"355 336 OFFCURVE",
"461 450 CURVE",
"435 524 LINE",
"41 524 LINE",
"41 336 LINE",
"124 336 LINE",
"124 444 LINE",
"124 444 OFFCURVE",
"374 444 OFFCURVE",
"374 444 CURVE",
"272 324 OFFCURVE",
"173 74 OFFCURVE",
"173 -55 CURVE SMOOTH",
"173 -129 OFFCURVE",
"210 -152 OFFCURVE",
"241 -152 CURVE SMOOTH"
);
}
);
width = 509;
}
);
},
{
glyphname = eight.osf;
layers = (
{
layerId = "EE746D13-63D7-48F9-B77E-C723CA6A668B";
paths = (
{
closed = 1;
nodes = (
"117 340 OFFCURVE",
"46 270 OFFCURVE",
"46 176 CURVE SMOOTH",
"46 74 OFFCURVE",
"141 -13 OFFCURVE",
"307 -13 CURVE SMOOTH",
"477 -13 OFFCURVE",
"557 78 OFFCURVE",
"557 176 CURVE SMOOTH",
"557 282 OFFCURVE",
"481 333 OFFCURVE",
"385 384 CURVE",
"463 419 OFFCURVE",
"525 481 OFFCURVE",
"525 562 CURVE SMOOTH",
"525 653 OFFCURVE",
"435 737 OFFCURVE",
"299 737 CURVE SMOOTH",
"166 737 OFFCURVE",
"80 658 OFFCURVE",
"80 562 CURVE SMOOTH",
"80 483 OFFCURVE",
"127 427 OFFCURVE",
"221 371 CURVE"
);
},
{
closed = 1;
nodes = (
"361 311 OFFCURVE",
"455 251 OFFCURVE",
"455 176 CURVE SMOOTH",
"455 102 OFFCURVE",
"394 47 OFFCURVE",
"309 47 CURVE SMOOTH",
"204 47 OFFCURVE",
"153 110 OFFCURVE",
"153 176 CURVE SMOOTH",
"153 251 OFFCURVE",
"215 308 OFFCURVE",
"285 335 CURVE"
);
},
{
closed = 1;
nodes = (
"266 448 OFFCURVE",
"170 493 OFFCURVE",
"170 562 CURVE SMOOTH",
"170 623 OFFCURVE",
"226 675 OFFCURVE",
"299 675 CURVE SMOOTH",
"384 675 OFFCURVE",
"436 617 OFFCURVE",
"436 562 CURVE SMOOTH",
"436 497 OFFCURVE",
"391 447 OFFCURVE",
"327 417 CURVE"
);
}
);
width = 603;
}
);
},
{
glyphname = nine.osf;
layers = (
{
guideLines = (
{
angle = 90;
position = "{587, 1055}";
}
);
layerId = "EE746D13-63D7-48F9-B77E-C723CA6A668B";
paths = (
{
closed = 1;
nodes = (
"94 -167 OFFCURVE",
"184 -207 OFFCURVE",
"259 -207 CURVE SMOOTH",
"435 -207 OFFCURVE",
"506 -27 OFFCURVE",
"506 175 CURVE SMOOTH",
"506 407 OFFCURVE",
"421 525 OFFCURVE",
"272 525 CURVE SMOOTH",
"140 525 OFFCURVE",
"54 411 OFFCURVE",
"54 298 CURVE SMOOTH",
"54 138 OFFCURVE",
"159 68 OFFCURVE",
"267 68 CURVE SMOOTH",
"367 68 OFFCURVE",
"433 159 OFFCURVE",
"433 226 CURVE",
"446 389 LINE",
"353 421 LINE",
"357 416 OFFCURVE",
"391 375 OFFCURVE",
"390 293 CURVE SMOOTH",
"390 196 OFFCURVE",
"349 132 OFFCURVE",
"269 132 CURVE SMOOTH",
"198 132 OFFCURVE",
"153 194 OFFCURVE",
"153 298 CURVE SMOOTH",
"153 375 OFFCURVE",
"191 464 OFFCURVE",
"272 464 CURVE SMOOTH",
"354 464 OFFCURVE",
"409 366 OFFCURVE",
"409 174 CURVE SMOOTH",
"409 -1 OFFCURVE",
"358 -154 OFFCURVE",
"247 -154 CURVE SMOOTH",
"228 -154 OFFCURVE",
"217 -153 OFFCURVE",
"196 -141 CURVE",
"231 -141 OFFCURVE",
"245 -108 OFFCURVE",
"245 -85 CURVE SMOOTH",
"245 -40 OFFCURVE",
"212 -11 OFFCURVE",
"170 -11 CURVE SMOOTH",
"121 -11 OFFCURVE",
"94 -48 OFFCURVE",
"94 -88 CURVE SMOOTH"
);
}
);
width = 605;
}
);
},
{
glyphname = onesuperior;
layers = (
{
layerId = "EE746D13-63D7-48F9-B77E-C723CA6A668B";
paths = (
{
closed = 1;
nodes = (
"267 354 LINE",
"267 396 LINE",
"206 396 LINE",
"206 750 LINE",
"70 712 LINE",
"70 660 LINE",
"135 677 LINE",
"135 396 LINE",
"70 396 LINE",
"70 354 LINE"
);
}
);
width = 332;
}
);
note = onesuperior;
unicode = 00B9;
},
{
glyphname = twosuperior;
layers = (
{
layerId = "EE746D13-63D7-48F9-B77E-C723CA6A668B";
paths = (
{
closed = 1;
nodes = (
"391 294 LINE",
"377 404 LINE",
"185 404 LINE",
"283 476 LINE SMOOTH",
"350 525 OFFCURVE",
"379 573 OFFCURVE",
"379 610 CURVE SMOOTH",
"379 698 OFFCURVE",
"323 750 OFFCURVE",
"233 750 CURVE SMOOTH",
"140 750 OFFCURVE",
"62 696 OFFCURVE",
"62 635 CURVE SMOOTH",
"62 633 LINE",
"63 602 OFFCURVE",
"83 574 OFFCURVE",
"122 574 CURVE SMOOTH",
"155 574 OFFCURVE",
"178 595 OFFCURVE",
"178 628 CURVE SMOOTH",
"178 652 OFFCURVE",
"161 667 OFFCURVE",
"143 673 CURVE",
"163 696 OFFCURVE",
"189 708 OFFCURVE",
"221 708 CURVE SMOOTH",
"266 708 OFFCURVE",
"305 665 OFFCURVE",
"305 616 CURVE SMOOTH",
"305 582 OFFCURVE",
"280 543 OFFCURVE",
"240 508 CURVE SMOOTH",
"199 472 OFFCURVE",
"167 449 OFFCURVE",
"121 419 CURVE SMOOTH",
"98 404 OFFCURVE",
"83 394 OFFCURVE",
"76 388 CURVE",
"76 388 OFFCURVE",
"79 374 OFFCURVE",
"83 344 CURVE",
"332 344 LINE",
"366 290 LINE"
);
}
);
width = 451;
}
);
note = twosuperior;
unicode = 00B2;
},
{
glyphname = threesuperior;
layers = (
{
layerId = "EE746D13-63D7-48F9-B77E-C723CA6A668B";
paths = (
{
closed = 1;
nodes = (
"272 333 OFFCURVE",
"344 389 OFFCURVE",
"344 463 CURVE SMOOTH",
"344 522 OFFCURVE",
"301 566 OFFCURVE",
"221 566 CURVE",
"277 577 OFFCURVE",
"312 613 OFFCURVE",
"312 655 CURVE SMOOTH",
"312 707 OFFCURVE",
"268 750 OFFCURVE",
"188 750 CURVE SMOOTH",
"115 750 OFFCURVE",
"55 702 OFFCURVE",
"55 653 CURVE SMOOTH",
"55 625 OFFCURVE",
"71 602 OFFCURVE",
"103 602 CURVE SMOOTH",
"128 602 OFFCURVE",
"149 621 OFFCURVE",
"149 646 CURVE SMOOTH",
"149 672 OFFCURVE",
"131 684 OFFCURVE",
"110 688 CURVE",
"131 708 OFFCURVE",
"155 717 OFFCURVE",
"181 717 CURVE SMOOTH",
"222 717 OFFCURVE",
"253 690 OFFCURVE",
"253 651 CURVE SMOOTH",
"253 609 OFFCURVE",
"221 581 OFFCURVE",
"157 571 CURVE",
"164 534 LINE",
"175 536 OFFCURVE",
"185 537 OFFCURVE",
"194 537 CURVE SMOOTH",
"207 537 OFFCURVE",
"218 536 OFFCURVE",
"227 533 CURVE SMOOTH",
"246 526 OFFCURVE",
"256 517 OFFCURVE",
"263 503 CURVE SMOOTH",
"270 490 OFFCURVE",
"271 477 OFFCURVE",
"271 461 CURVE SMOOTH",
"271 410 OFFCURVE",
"229 369 OFFCURVE",
"168 369 CURVE SMOOTH",
"160 369 OFFCURVE",
"150 370 OFFCURVE",
"139 372 CURVE",
"144 379 OFFCURVE",
"146 389 OFFCURVE",
"146 400 CURVE SMOOTH",
"146 421 OFFCURVE",
"129 438 OFFCURVE",
"104 438 CURVE SMOOTH",
"77 438 OFFCURVE",
"63 420 OFFCURVE",
"63 395 CURVE SMOOTH",
"63 356 OFFCURVE",
"109 333 OFFCURVE",
"167 333 CURVE SMOOTH"
);
}
);
width = 397;
}
);
note = threesuperior;
unicode = 00B3;
},
{
glyphname = uni2074;
layers = (
{
layerId = "EE746D13-63D7-48F9-B77E-C723CA6A668B";
paths = (
{
closed = 1;
nodes = (
"363 408 LINE",
"363 450 LINE",
"299 450 LINE",
"299 539 LINE",
"363 539 LINE",
"363 580 LINE",
"299 580 LINE",
"299 801 LINE",
"222 801 LINE",
"67 584 LINE",
"67 539 LINE",
"238 539 LINE",
"238 450 LINE",
"167 450 LINE",
"167 408 LINE"
);
},
{
closed = 1;
nodes = (
"238 748 LINE",
"238 580 LINE",
"123 580 LINE"
);
}
);
width = 432;
}
);
note = uni2074;
unicode = 2074;
},
{
glyphname = fraction;
layers = (
{
layerId = "EE746D13-63D7-48F9-B77E-C723CA6A668B";
paths = (
{
closed = 1;
nodes = (
"600 693 LINE",
"551 722 LINE",
"31 -1 LINE",
"80 -30 LINE"
);
}
);
width = 630;
}
);
note = fraction;
unicode = 2044;
},
{
glyphname = onehalf;
layers = (
{
layerId = "EE746D13-63D7-48F9-B77E-C723CA6A668B";
paths = (
{
closed = 1;
nodes = (
"644 693 LINE",
"595 722 LINE",
"75 -1 LINE",
"124 -30 LINE"
);
},
{
closed = 1;
nodes = (
"231 366 LINE",
"231 408 LINE",
"170 408 LINE",
"170 762 LINE",
"34 724 LINE",
"34 672 LINE",
"99 689 LINE",
"99 408 LINE",
"34 408 LINE",
"34 366 LINE"
);
},
{
closed = 1;
nodes = (
"782 -50 LINE",
"769 60 LINE",
"576 60 LINE",
"674 132 LINE SMOOTH",
"741 181 OFFCURVE",
"771 229 OFFCURVE",
"771 266 CURVE SMOOTH",
"771 354 OFFCURVE",
"715 406 OFFCURVE",
"625 406 CURVE SMOOTH",
"531 406 OFFCURVE",
"453 352 OFFCURVE",
"453 291 CURVE SMOOTH",
"453 289 LINE",
"455 257 OFFCURVE",
"474 230 OFFCURVE",
"513 230 CURVE SMOOTH",
"546 230 OFFCURVE",
"569 251 OFFCURVE",
"569 284 CURVE SMOOTH",
"569 308 OFFCURVE",
"552 323 OFFCURVE",
"534 329 CURVE",
"554 352 OFFCURVE",
"581 364 OFFCURVE",
"612 364 CURVE SMOOTH",
"657 364 OFFCURVE",
"696 321 OFFCURVE",
"696 272 CURVE SMOOTH",
"696 237 OFFCURVE",
"672 199 OFFCURVE",
"631 164 CURVE SMOOTH",
"590 128 OFFCURVE",
"558 105 OFFCURVE",
"512 75 CURVE SMOOTH",
"489 60 OFFCURVE",
"474 49 OFFCURVE",
"467 44 CURVE",
"468 44 OFFCURVE",
"470 29 OFFCURVE",
"474 0 CURVE",
"723 0 LINE",
"757 -54 LINE"
);
}
);
width = 814;
}
);
note = onehalf;
unicode = 00BD;
},
{
glyphname = onequarter;
layers = (
{
layerId = "EE746D13-63D7-48F9-B77E-C723CA6A668B";
paths = (
{
closed = 1;
nodes = (
"644 693 LINE",
"595 722 LINE",
"75 -1 LINE",
"124 -30 LINE"
);
},
{
closed = 1;
nodes = (
"231 366 LINE",
"231 408 LINE",
"170 408 LINE",
"170 762 LINE",
"34 724 LINE",
"34 672 LINE",
"99 689 LINE",
"99 408 LINE",
"34 408 LINE",
"34 366 LINE"
);
},
{
closed = 1;
nodes = (
"712 0 LINE",
"712 42 LINE",
"648 42 LINE",
"648 131 LINE",
"712 131 LINE",
"712 172 LINE",
"648 172 LINE",
"648 393 LINE",
"571 393 LINE",
"417 176 LINE",
"417 131 LINE",
"587 131 LINE",
"587 42 LINE",
"516 42 LINE",
"516 0 LINE"
);
},
{
closed = 1;
nodes = (
"587 340 LINE",
"587 172 LINE",
"472 172 LINE"
);
}
);
width = 745;
}
);
note = onequarter;
unicode = 00BC;
},
{
glyphname = threequarters;
layers = (
{
layerId = "EE746D13-63D7-48F9-B77E-C723CA6A668B";
paths = (
{
closed = 1;
nodes = (
"667 693 LINE",
"619 722 LINE",
"99 -1 LINE",
"147 -30 LINE"
);
},
{
closed = 1;
nodes = (
"250 356 OFFCURVE",
"322 412 OFFCURVE",
"322 486 CURVE SMOOTH",
"322 545 OFFCURVE",
"279 589 OFFCURVE",
"199 589 CURVE",
"255 600 OFFCURVE",
"290 636 OFFCURVE",
"290 678 CURVE SMOOTH",
"290 729 OFFCURVE",
"246 773 OFFCURVE",
"166 773 CURVE SMOOTH",
"93 773 OFFCURVE",
"33 725 OFFCURVE",
"33 676 CURVE SMOOTH",
"33 648 OFFCURVE",
"49 625 OFFCURVE",
"81 625 CURVE SMOOTH",
"106 625 OFFCURVE",
"127 644 OFFCURVE",
"127 669 CURVE SMOOTH",
"127 695 OFFCURVE",
"109 707 OFFCURVE",
"88 711 CURVE",
"109 730 OFFCURVE",
"133 740 OFFCURVE",
"159 740 CURVE SMOOTH",
"200 740 OFFCURVE",
"231 713 OFFCURVE",
"231 674 CURVE SMOOTH",
"231 632 OFFCURVE",
"199 604 OFFCURVE",
"135 594 CURVE",
"142 557 LINE",
"153 559 OFFCURVE",
"163 560 OFFCURVE",
"172 560 CURVE SMOOTH",
"224 560 OFFCURVE",
"250 535 OFFCURVE",
"250 486 CURVE SMOOTH",
"250 434 OFFCURVE",
"209 392 OFFCURVE",
"146 392 CURVE SMOOTH",
"138 392 OFFCURVE",
"128 393 OFFCURVE",
"117 395 CURVE",
"122 402 OFFCURVE",
"125 412 OFFCURVE",
"125 423 CURVE SMOOTH",
"125 444 OFFCURVE",
"107 461 OFFCURVE",
"83 461 CURVE SMOOTH",
"55 461 OFFCURVE",
"41 443 OFFCURVE",
"41 418 CURVE SMOOTH",
"41 379 OFFCURVE",
"87 356 OFFCURVE",
"146 356 CURVE SMOOTH"
);
},
{
closed = 1;
nodes = (
"736 0 LINE",
"736 42 LINE",
"672 42 LINE",
"672 131 LINE",
"736 131 LINE",
"736 172 LINE",
"672 172 LINE",
"672 393 LINE",
"595 393 LINE",
"440 176 LINE",
"440 131 LINE",
"611 131 LINE",
"611 42 LINE",
"540 42 LINE",
"540 0 LINE"
);
},
{
closed = 1;
nodes = (
"611 340 LINE",
"611 172 LINE",
"496 172 LINE"
);
}
);
width = 770;
}
);
note = threequarters;
unicode = 00BE;
},
{
glyphname = asterisk;
layers = (
{
layerId = "EE746D13-63D7-48F9-B77E-C723CA6A668B";
paths = (
{
closed = 1;
nodes = (
"331 469 OFFCURVE",
"336 410 OFFCURVE",
"353 363 CURVE SMOOTH",
"364 332 OFFCURVE",
"387 318 OFFCURVE",
"414 326 CURVE SMOOTH",
"442 334 OFFCURVE",
"452 361 OFFCURVE",
"442 392 CURVE SMOOTH",
"427 439 OFFCURVE",
"397 492 OFFCURVE",
"365 548 CURVE",
"431 536 OFFCURVE",
"488 524 OFFCURVE",
"537 524 CURVE SMOOTH",
"571 524 OFFCURVE",
"592 542 OFFCURVE",
"591 571 CURVE SMOOTH",
"590 601 OFFCURVE",
"569 618 OFFCURVE",
"537 617 CURVE SMOOTH",
"487 615 OFFCURVE",
"427 605 OFFCURVE",
"364 590 CURVE",
"397 649 OFFCURVE",
"427 700 OFFCURVE",
"442 747 CURVE SMOOTH",
"452 778 OFFCURVE",
"442 803 OFFCURVE",
"415 812 CURVE SMOOTH",
"386 822 OFFCURVE",
"363 806 OFFCURVE",
"353 775 CURVE SMOOTH",
"338 728 OFFCURVE",
"331 667 OFFCURVE",
"324 603 CURVE",
"279 653 OFFCURVE",
"239 696 OFFCURVE",
"199 726 CURVE SMOOTH",
"173 746 OFFCURVE",
"145 744 OFFCURVE",
"128 721 CURVE SMOOTH",
"109 696 OFFCURVE",
"118 669 OFFCURVE",
"145 650 CURVE SMOOTH",
"184 622 OFFCURVE",
"240 596 OFFCURVE",
"299 570 CURVE",
"238 542 OFFCURVE",
"185 517 OFFCURVE",
"145 489 CURVE SMOOTH",
"118 470 OFFCURVE",
"111 443 OFFCURVE",
"127 420 CURVE SMOOTH",
"144 395 OFFCURVE",
"173 395 OFFCURVE",
"199 413 CURVE SMOOTH",
"240 441 OFFCURVE",
"281 487 OFFCURVE",
"323 535 CURVE"
);
}
);
width = 710;
}
);
note = asterisk;
unicode = 002A;
},
{
glyphname = backslash;
layers = (
{
layerId = "EE746D13-63D7-48F9-B77E-C723CA6A668B";
paths = (
{
closed = 1;
nodes = (
"369 762 LINE",
"311 780 LINE",
"31 -65 LINE",
"89 -83 LINE"
);
}
);
width = 400;
}
);
note = backslash;
unicode = 005C;
},
{
glyphname = periodcentered;
layers = (
{
layerId = "EE746D13-63D7-48F9-B77E-C723CA6A668B";
paths = (
{
closed = 1;
nodes = (
"202 379 OFFCURVE",
"236 412 OFFCURVE",
"236 451 CURVE SMOOTH",
"236 491 OFFCURVE",
"202 524 OFFCURVE",
"163 524 CURVE SMOOTH",
"124 524 OFFCURVE",
"91 492 OFFCURVE",
"91 451 CURVE SMOOTH",
"91 412 OFFCURVE",
"124 379 OFFCURVE",
"163 379 CURVE SMOOTH"
);
}
);
width = 327;
}
);
note = periodcentered;
unicode = 00B7;
},
{
glyphname = bullet;
layers = (
{
layerId = "EE746D13-63D7-48F9-B77E-C723CA6A668B";
paths = (
{
closed = 1;
nodes = (
"318 226 OFFCURVE",
"378 296 OFFCURVE",
"378 380 CURVE SMOOTH",
"378 464 OFFCURVE",
"318 533 OFFCURVE",
"225 533 CURVE SMOOTH",
"130 533 OFFCURVE",
"70 464 OFFCURVE",
"70 380 CURVE SMOOTH",
"70 294 OFFCURVE",
"131 226 OFFCURVE",
"225 226 CURVE SMOOTH"
);
}
);
width = 449;
}
);
note = bullet;
unicode = 2022;
},
{
glyphname = colon;
layers = (
{
layerId = "EE746D13-63D7-48F9-B77E-C723CA6A668B";
paths = (
{
closed = 1;
nodes = (
"183 378 OFFCURVE",
"216 411 OFFCURVE",
"216 450 CURVE SMOOTH",
"216 490 OFFCURVE",
"183 523 OFFCURVE",
"144 523 CURVE SMOOTH",
"104 523 OFFCURVE",
"71 491 OFFCURVE",
"71 450 CURVE SMOOTH",
"71 411 OFFCURVE",
"104 378 OFFCURVE",
"144 378 CURVE SMOOTH"
);
},
{
closed = 1;
nodes = (
"183 0 OFFCURVE",
"216 33 OFFCURVE",
"216 72 CURVE SMOOTH",
"216 111 OFFCURVE",
"183 145 OFFCURVE",
"144 145 CURVE SMOOTH",
"104 145 OFFCURVE",
"71 112 OFFCURVE",
"71 72 CURVE SMOOTH",
"71 33 OFFCURVE",
"104 0 OFFCURVE",
"144 0 CURVE SMOOTH"
);
}
);
width = 287;
}
);
leftKerningGroup = colon;
note = colon;
unicode = 003A;
},
{
glyphname = comma;
layers = (
{
layerId = "EE746D13-63D7-48F9-B77E-C723CA6A668B";
paths = (
{
closed = 1;
nodes = (
"141 -121 OFFCURVE",
"143 -120 OFFCURVE",
"145 -119 CURVE",
"205 -78 OFFCURVE",
"233 -23 OFFCURVE",
"233 27 CURVE SMOOTH",
"233 92 OFFCURVE",
"188 129 OFFCURVE",
"141 129 CURVE SMOOTH",
"105 129 OFFCURVE",
"68 96 OFFCURVE",
"68 59 CURVE SMOOTH",
"68 26 OFFCURVE",
"99 -6 OFFCURVE",
"133 -6 CURVE SMOOTH",
"147 -6 OFFCURVE",
"161 -2 OFFCURVE",
"174 6 CURVE",
"176 2 OFFCURVE",
"178 -2 OFFCURVE",
"178 -8 CURVE SMOOTH",
"178 -33 OFFCURVE",
"146 -66 OFFCURVE",
"115 -85 CURVE",
"139 -123 LINE"
);
}
);
width = 301;
}
);
leftKerningGroup = comma;
note = comma;
unicode = 002C;
},
{
glyphname = exclam;
layers = (
{
layerId = "EE746D13-63D7-48F9-B77E-C723CA6A668B";
paths = (
{
closed = 1;
nodes = (
"230 220 LINE",
"276 722 LINE",
"149 722 LINE",
"195 220 LINE"
);
},
{
closed = 1;
nodes = (
"253 -10 OFFCURVE",
"287 23 OFFCURVE",
"287 62 CURVE SMOOTH",
"287 102 OFFCURVE",
"253 135 OFFCURVE",
"214 135 CURVE SMOOTH",
"174 135 OFFCURVE",
"142 103 OFFCURVE",
"142 62 CURVE SMOOTH",
"142 23 OFFCURVE",
"174 -10 OFFCURVE",
"214 -10 CURVE SMOOTH"
);
}
);
width = 418;
}
);
note = exclam;
unicode = 0021;
},
{
glyphname = exclamdown;
layers = (
{
layerId = "EE746D13-63D7-48F9-B77E-C723CA6A668B";
paths = (
{
closed = 1;
nodes = (
"280 0 LINE",
"234 502 LINE",
"199 502 LINE",
"153 0 LINE"
);
},
{
closed = 1;
nodes = (
"287 699 OFFCURVE",
"255 732 OFFCURVE",
"215 732 CURVE SMOOTH",
"176 732 OFFCURVE",
"142 699 OFFCURVE",
"142 660 CURVE SMOOTH",
"142 621 OFFCURVE",
"176 587 OFFCURVE",
"215 587 CURVE SMOOTH",
"255 587 OFFCURVE",
"287 620 OFFCURVE",
"287 660 CURVE SMOOTH"
);
}
);
width = 418;
}
);
note = exclamdown;
unicode = 00A1;
},
{
glyphname = numbersign;
layers = (
{
layerId = "EE746D13-63D7-48F9-B77E-C723CA6A668B";
paths = (
{
closed = 1;
nodes = (
"212 282 LINE",
"372 282 LINE",
"256 -65 LINE",
"314 -83 LINE",
"436 282 LINE",
"570 282 LINE",
"570 315 LINE",
"446 315 LINE",
"504 491 LINE",
"629 491 LINE",
"629 524 LINE",
"515 524 LINE",
"594 762 LINE",
"537 780 LINE",
"452 524 LINE",
"292 524 LINE",
"372 762 LINE",
"313 780 LINE",
"229 524 LINE",
"99 524 LINE",
"99 491 LINE",
"218 491 LINE",
"159 315 LINE",
"40 315 LINE",
"40 282 LINE",
"148 282 LINE",
"33 -65 LINE",
"91 -83 LINE"
);
},
{
closed = 1;
nodes = (
"282 491 LINE",
"441 491 LINE",
"382 315 LINE",
"223 315 LINE"
);
}
);
width = 659;
}
);
note = numbersign;
unicode = 0023;
},
{
glyphname = period;
layers = (
{
layerId = "EE746D13-63D7-48F9-B77E-C723CA6A668B";
paths = (
{
closed = 1;
nodes = (
"182 -10 OFFCURVE",
"216 23 OFFCURVE",
"216 62 CURVE SMOOTH",
"216 102 OFFCURVE",
"182 135 OFFCURVE",
"143 135 CURVE SMOOTH",
"104 135 OFFCURVE",
"71 103 OFFCURVE",
"71 62 CURVE SMOOTH",
"71 23 OFFCURVE",
"104 -10 OFFCURVE",
"143 -10 CURVE SMOOTH"
);
}
);
width = 288;
}
);
leftKerningGroup = period;
note = period;
unicode = 002E;
},
{
glyphname = question;
layers = (
{
layerId = "EE746D13-63D7-48F9-B77E-C723CA6A668B";
paths = (
{
closed = 1;
nodes = (
"240 198 LINE",
"254 243 OFFCURVE",
"293 290 OFFCURVE",
"332 327 CURVE SMOOTH",
"351 346 OFFCURVE",
"370 365 OFFCURVE",
"389 386 CURVE SMOOTH",
"425 428 OFFCURVE",
"452 484 OFFCURVE",
"452 548 CURVE SMOOTH",
"452 579 OFFCURVE",
"448 606 OFFCURVE",
"438 630 CURVE SMOOTH",
"420 679 OFFCURVE",
"392 705 OFFCURVE",
"355 725 CURVE SMOOTH",
"319 744 OFFCURVE",
"287 750 OFFCURVE",
"258 750 CURVE SMOOTH",
"219 750 OFFCURVE",
"183 744 OFFCURVE",
"150 730 CURVE SMOOTH",
"85 705 OFFCURVE",
"40 649 OFFCURVE",
"40 577 CURVE SMOOTH",
"40 539 OFFCURVE",
"74 500 OFFCURVE",
"125 500 CURVE SMOOTH",
"167 500 OFFCURVE",
"196 530 OFFCURVE",
"196 572 CURVE SMOOTH",
"196 582 OFFCURVE",
"194 590 OFFCURVE",
"191 598 CURVE SMOOTH",
"184 613 OFFCURVE",
"174 622 OFFCURVE",
"160 627 CURVE SMOOTH",
"146 633 OFFCURVE",
"135 635 OFFCURVE",
"123 635 CURVE",
"141 676 OFFCURVE",
"183 699 OFFCURVE",
"227 699 CURVE SMOOTH",
"258 699 OFFCURVE",
"286 688 OFFCURVE",
"310 667 CURVE SMOOTH",
"333 645 OFFCURVE",
"347 608 OFFCURVE",
"347 563 CURVE SMOOTH",
"347 514 OFFCURVE",
"325 468 OFFCURVE",
"298 429 CURVE SMOOTH",
"284 409 OFFCURVE",
"271 389 OFFCURVE",
"257 368 CURVE SMOOTH",
"230 327 OFFCURVE",
"208 266 OFFCURVE",
"208 198 CURVE"
);
},
{
closed = 1;
nodes = (
"261 -10 OFFCURVE",
"295 23 OFFCURVE",
"295 62 CURVE SMOOTH",
"295 102 OFFCURVE",
"261 135 OFFCURVE",
"222 135 CURVE SMOOTH",
"183 135 OFFCURVE",
"150 103 OFFCURVE",
"150 62 CURVE SMOOTH",
"150 23 OFFCURVE",
"183 -10 OFFCURVE",
"222 -10 CURVE SMOOTH"
);
}
);
width = 493;
}
);
note = question;
unicode = 003F;
},
{
glyphname = questiondown;
layers = (
{
layerId = "EE746D13-63D7-48F9-B77E-C723CA6A668B";
paths = (
{
closed = 1;
nodes = (
"238 494 OFFCURVE",
"199 447 OFFCURVE",
"160 410 CURVE SMOOTH",
"141 391 OFFCURVE",
"122 372 OFFCURVE",
"104 351 CURVE SMOOTH",
"67 309 OFFCURVE",
"40 252 OFFCURVE",
"40 188 CURVE SMOOTH",
"40 158 OFFCURVE",
"45 131 OFFCURVE",
"54 107 CURVE SMOOTH",
"73 58 OFFCURVE",
"101 32 OFFCURVE",
"137 12 CURVE SMOOTH",
"173 -7 OFFCURVE",
"205 -13 OFFCURVE",
"234 -13 CURVE SMOOTH",
"273 -13 OFFCURVE",
"309 -7 OFFCURVE",
"342 6 CURVE SMOOTH",
"407 32 OFFCURVE",
"452 88 OFFCURVE",
"452 160 CURVE SMOOTH",
"452 198 OFFCURVE",
"418 237 OFFCURVE",
"367 237 CURVE SMOOTH",
"326 237 OFFCURVE",
"296 207 OFFCURVE",
"296 165 CURVE SMOOTH",
"296 155 OFFCURVE",
"298 146 OFFCURVE",
"302 139 CURVE SMOOTH",
"309 124 OFFCURVE",
"318 115 OFFCURVE",
"332 109 CURVE SMOOTH",
"346 104 OFFCURVE",
"357 102 OFFCURVE",
"369 102 CURVE",
"351 61 OFFCURVE",
"310 38 OFFCURVE",
"265 38 CURVE SMOOTH",
"234 38 OFFCURVE",
"206 49 OFFCURVE",
"183 70 CURVE SMOOTH",
"160 92 OFFCURVE",
"145 129 OFFCURVE",
"145 174 CURVE SMOOTH",
"145 223 OFFCURVE",
"167 269 OFFCURVE",
"194 308 CURVE SMOOTH",
"208 328 OFFCURVE",
"222 348 OFFCURVE",
"235 369 CURVE SMOOTH",
"262 410 OFFCURVE",
"284 471 OFFCURVE",
"284 539 CURVE",
"252 539 LINE"
);
},
{
closed = 1;
nodes = (
"231 747 OFFCURVE",
"197 714 OFFCURVE",
"197 675 CURVE SMOOTH",
"197 635 OFFCURVE",
"231 602 OFFCURVE",
"270 602 CURVE SMOOTH",
"310 602 OFFCURVE",
"342 634 OFFCURVE",
"342 675 CURVE SMOOTH",
"342 714 OFFCURVE",
"310 747 OFFCURVE",
"270 747 CURVE SMOOTH"
);
}
);
width = 493;
}
);
note = questiondown;
unicode = 00BF;
},
{
glyphname = quotedbl;
layers = (
{
layerId = "EE746D13-63D7-48F9-B77E-C723CA6A668B";
paths = (
{
closed = 1;
nodes = (
"249 490 OFFCURVE",
"254 494 OFFCURVE",
"255 502 CURVE SMOOTH",
"281 711 LINE",
"281 737 OFFCURVE",
"267 750 OFFCURVE",
"240 750 CURVE SMOOTH",
"213 750 OFFCURVE",
"198 734 OFFCURVE",
"198 711 CURVE SMOOTH",
"198 709 OFFCURVE",
"207 640 OFFCURVE",
"224 502 CURVE SMOOTH",
"225 494 OFFCURVE",
"230 490 OFFCURVE",
"240 490 CURVE SMOOTH"
);
},
{
closed = 1;
nodes = (
"121 490 OFFCURVE",
"126 494 OFFCURVE",
"127 502 CURVE SMOOTH",
"153 711 LINE",
"153 737 OFFCURVE",
"139 750 OFFCURVE",
"112 750 CURVE SMOOTH",
"85 750 OFFCURVE",
"70 734 OFFCURVE",
"70 711 CURVE SMOOTH",
"70 709 OFFCURVE",
"79 640 OFFCURVE",
"96 502 CURVE SMOOTH",
"97 494 OFFCURVE",
"102 490 OFFCURVE",
"112 490 CURVE SMOOTH"
);
}
);
width = 350;
}
);
note = quotedbl;
unicode = 0022;
},
{
glyphname = quotesingle;
layers = (
{
layerId = "EE746D13-63D7-48F9-B77E-C723CA6A668B";
paths = (
{
closed = 1;
nodes = (
"130 490 OFFCURVE",
"153 666 OFFCURVE",
"153 711 CURVE SMOOTH",
"153 737 OFFCURVE",
"139 750 OFFCURVE",
"112 750 CURVE SMOOTH",
"85 750 OFFCURVE",
"70 734 OFFCURVE",
"70 711 CURVE SMOOTH",
"70 663 OFFCURVE",
"92 490 OFFCURVE",
"112 490 CURVE SMOOTH"
);
}
);
width = 222;
}
);
note = quotesingle;
unicode = 0027;
},
{
glyphname = semicolon;
layers = (
{
layerId = "EE746D13-63D7-48F9-B77E-C723CA6A668B";
paths = (
{
closed = 1;
nodes = (
"167 -75 OFFCURVE",
"179 -64 OFFCURVE",
"197 -39 CURVE SMOOTH",
"215 -14 OFFCURVE",
"221 7 OFFCURVE",
"221 34 CURVE SMOOTH",
"221 95 OFFCURVE",
"185 131 OFFCURVE",
"140 131 CURVE SMOOTH",
"103 131 OFFCURVE",
"68 100 OFFCURVE",
"68 64 CURVE SMOOTH",
"68 33 OFFCURVE",
"97 2 OFFCURVE",
"128 2 CURVE SMOOTH",
"141 2 OFFCURVE",
"154 6 OFFCURVE",
"166 14 CURVE",
"168 10 OFFCURVE",
"170 5 OFFCURVE",
"170 0 CURVE SMOOTH",
"170 -24 OFFCURVE",
"141 -56 OFFCURVE",
"112 -73 CURVE",
"134 -109 LINE"
);
},
{
closed = 1;
nodes = (
"179 378 OFFCURVE",
"213 411 OFFCURVE",
"213 450 CURVE SMOOTH",
"213 490 OFFCURVE",
"179 523 OFFCURVE",
"140 523 CURVE SMOOTH",
"100 523 OFFCURVE",
"68 491 OFFCURVE",
"68 450 CURVE SMOOTH",
"68 411 OFFCURVE",
"100 378 OFFCURVE",
"140 378 CURVE SMOOTH"
);
}
);
width = 288;
}
);
leftKerningGroup = semicolon;
note = semicolon;
unicode = 003B;
},
{
glyphname = slash;
layers = (
{
layerId = "EE746D13-63D7-48F9-B77E-C723CA6A668B";
paths = (
{
closed = 1;
nodes = (
"369 762 LINE",
"311 780 LINE",
"31 -65 LINE",
"89 -83 LINE"
);
}
);
width = 400;
}
);
note = slash;
unicode = 002F;
},
{
glyphname = underscore;
layers = (
{
layerId = "EE746D13-63D7-48F9-B77E-C723CA6A668B";
paths = (
{
closed = 1;
nodes = (
"365 -62 LINE",
"365 5 LINE",
"-4 5 LINE",
"-4 -62 LINE"
);
}
);
width = 361;
}
);
note = underscore;
unicode = 005F;
},
{
glyphname = braceleft;
layers = (
{
layerId = "EE746D13-63D7-48F9-B77E-C723CA6A668B";
paths = (
{
closed = 1;
nodes = (
"388 -121 LINE",
"362 -121 OFFCURVE",
"342 -119 OFFCURVE",
"325 -113 CURVE SMOOTH",
"308 -107 OFFCURVE",
"295 -102 OFFCURVE",
"286 -88 CURVE SMOOTH",
"276 -74 OFFCURVE",
"269 -65 OFFCURVE",
"265 -43 CURVE SMOOTH",
"260 -21 OFFCURVE",
"258 -7 OFFCURVE",
"256 24 CURVE SMOOTH",
"255 55 OFFCURVE",
"255 75 OFFCURVE",
"255 115 CURVE SMOOTH",
"255 163 OFFCURVE",
"254 189 OFFCURVE",
"251 219 CURVE SMOOTH",
"247 248 OFFCURVE",
"242 263 OFFCURVE",
"231 278 CURVE SMOOTH",
"220 293 OFFCURVE",
"206 300 OFFCURVE",
"184 305 CURVE",
"206 311 OFFCURVE",
"220 317 OFFCURVE",
"231 333 CURVE SMOOTH",
"242 348 OFFCURVE",
"247 362 OFFCURVE",
"251 392 CURVE SMOOTH",
"254 421 OFFCURVE",
"255 448 OFFCURVE",
"255 495 CURVE SMOOTH",
"255 536 OFFCURVE",
"255 567 OFFCURVE",
"257 588 CURVE SMOOTH",
"259 629 OFFCURVE",
"267 681 OFFCURVE",
"286 700 CURVE SMOOTH",
"305 718 OFFCURVE",
"336 731 OFFCURVE",
"388 731 CURVE",
"388 773 LINE",
"318 773 OFFCURVE",
"268 765 OFFCURVE",
"232 744 CURVE SMOOTH",
"196 723 OFFCURVE",
"174 698 OFFCURVE",
"161 654 CURVE SMOOTH",
"148 609 OFFCURVE",
"145 565 OFFCURVE",
"145 495 CURVE SMOOTH",
"145 482 OFFCURVE",
"145 466 OFFCURVE",
"145 448 CURVE SMOOTH",
"145 411 LINE SMOOTH",
"145 347 OFFCURVE",
"139 338 OFFCURVE",
"88 338 CURVE SMOOTH",
"32 338 LINE",
"32 272 LINE",
"88 272 LINE SMOOTH",
"139 272 OFFCURVE",
"145 263 OFFCURVE",
"145 199 CURVE SMOOTH",
"145 162 LINE SMOOTH",
"145 144 OFFCURVE",
"145 128 OFFCURVE",
"145 115 CURVE SMOOTH",
"145 45 OFFCURVE",
"148 1 OFFCURVE",
"161 -43 CURVE SMOOTH",
"174 -88 OFFCURVE",
"196 -113 OFFCURVE",
"232 -134 CURVE SMOOTH",
"268 -155 OFFCURVE",
"318 -163 OFFCURVE",
"388 -163 CURVE"
);
}
);
width = 421;
}
);
note = braceleft;
unicode = 007B;
},
{
glyphname = braceright;
layers = (
{
layerId = "EE746D13-63D7-48F9-B77E-C723CA6A668B";
paths = (
{
closed = 1;
nodes = (
"104 -163 OFFCURVE",
"155 -155 OFFCURVE",
"190 -134 CURVE SMOOTH",
"226 -113 OFFCURVE",
"249 -88 OFFCURVE",
"261 -43 CURVE SMOOTH",
"274 1 OFFCURVE",
"277 45 OFFCURVE",
"277 115 CURVE SMOOTH",
"277 156 OFFCURVE",
"277 174 OFFCURVE",
"279 200 CURVE SMOOTH",
"280 226 OFFCURVE",
"282 234 OFFCURVE",
"287 249 CURVE SMOOTH",
"292 262 OFFCURVE",
"298 265 OFFCURVE",
"308 271 CURVE SMOOTH",
"318 276 OFFCURVE",
"330 276 OFFCURVE",
"348 276 CURVE SMOOTH",
"391 276 LINE",
"391 334 LINE",
"348 334 LINE SMOOTH",
"330 334 OFFCURVE",
"318 334 OFFCURVE",
"308 340 CURVE",
"298 345 OFFCURVE",
"292 348 OFFCURVE",
"287 362 CURVE SMOOTH",
"282 376 OFFCURVE",
"280 385 OFFCURVE",
"279 411 CURVE SMOOTH",
"277 437 OFFCURVE",
"277 454 OFFCURVE",
"277 495 CURVE SMOOTH",
"277 525 OFFCURVE",
"276 550 OFFCURVE",
"275 572 CURVE SMOOTH",
"271 616 OFFCURVE",
"263 659 OFFCURVE",
"248 687 CURVE SMOOTH",
"232 714 OFFCURVE",
"209 739 OFFCURVE",
"174 752 CURVE SMOOTH",
"140 766 OFFCURVE",
"95 773 OFFCURVE",
"35 773 CURVE",
"35 731 LINE",
"61 731 OFFCURVE",
"82 728 OFFCURVE",
"98 722 CURVE SMOOTH",
"130 710 OFFCURVE",
"149 697 OFFCURVE",
"158 652 CURVE SMOOTH",
"167 608 OFFCURVE",
"167 577 OFFCURVE",
"167 495 CURVE SMOOTH",
"167 369 OFFCURVE",
"194 321 OFFCURVE",
"261 305 CURVE",
"194 290 OFFCURVE",
"167 242 OFFCURVE",
"167 115 CURVE SMOOTH",
"167 75 OFFCURVE",
"167 55 OFFCURVE",
"166 24 CURVE SMOOTH",
"165 -7 OFFCURVE",
"162 -21 OFFCURVE",
"158 -43 CURVE SMOOTH",
"153 -65 OFFCURVE",
"146 -74 OFFCURVE",
"137 -88 CURVE SMOOTH",
"127 -102 OFFCURVE",
"115 -107 OFFCURVE",
"98 -113 CURVE SMOOTH",
"81 -119 OFFCURVE",
"61 -121 OFFCURVE",
"35 -121 CURVE",
"35 -163 LINE"
);
}
);
width = 421;
}
);
note = braceright;
unicode = 007D;
},
{
glyphname = bracketleft;
layers = (
{
layerId = "EE746D13-63D7-48F9-B77E-C723CA6A668B";
paths = (
{
closed = 1;
nodes = (
"438 -120 LINE",
"438 -53 LINE",
"188 -53 LINE",
"188 715 LINE",
"438 715 LINE",
"438 782 LINE",
"74 782 LINE",
"74 -120 LINE"
);
}
);
width = 508;
}
);
note = bracketleft;
unicode = 005B;
},
{
glyphname = bracketright;
layers = (
{
layerId = "EE746D13-63D7-48F9-B77E-C723CA6A668B";
paths = (
{
closed = 1;
nodes = (
"435 -120 LINE",
"435 782 LINE",
"71 782 LINE",
"71 715 LINE",
"320 715 LINE",
"320 -53 LINE",
"71 -53 LINE",
"71 -120 LINE"
);
}
);
width = 508;
}
);
note = bracketright;
unicode = 005D;
},
{
glyphname = parenleft;
layers = (
{
layerId = "EE746D13-63D7-48F9-B77E-C723CA6A668B";
paths = (
{
closed = 1;
nodes = (
"328 -70 LINE",
"269 -59 OFFCURVE",
"219 -4 OFFCURVE",
"190 71 CURVE SMOOTH",
"161 146 OFFCURVE",
"145 236 OFFCURVE",
"145 326 CURVE SMOOTH",
"145 416 OFFCURVE",
"161 506 OFFCURVE",
"190 581 CURVE SMOOTH",
"219 656 OFFCURVE",
"269 711 OFFCURVE",
"328 722 CURVE",
"328 764 LINE",
"234 755 OFFCURVE",
"155 696 OFFCURVE",
"108 612 CURVE SMOOTH",
"61 529 OFFCURVE",
"35 428 OFFCURVE",
"35 326 CURVE SMOOTH",
"35 224 OFFCURVE",
"61 123 OFFCURVE",
"108 40 CURVE SMOOTH",
"155 -43 OFFCURVE",
"234 -103 OFFCURVE",
"328 -112 CURVE"
);
}
);
width = 360;
}
);
note = parenleft;
unicode = 0028;
},
{
glyphname = parenright;
layers = (
{
layerId = "EE746D13-63D7-48F9-B77E-C723CA6A668B";
paths = (
{
closed = 1;
nodes = (
"127 -103 OFFCURVE",
"206 -43 OFFCURVE",
"253 40 CURVE SMOOTH",
"300 124 OFFCURVE",
"326 225 OFFCURVE",
"326 326 CURVE SMOOTH",
"326 428 OFFCURVE",
"300 530 OFFCURVE",
"253 613 CURVE SMOOTH",
"206 696 OFFCURVE",
"127 755 OFFCURVE",
"33 764 CURVE",
"33 722 LINE",
"92 711 OFFCURVE",
"142 656 OFFCURVE",
"171 582 CURVE SMOOTH",
"200 507 OFFCURVE",
"216 417 OFFCURVE",
"216 326 CURVE SMOOTH",
"216 236 OFFCURVE",
"200 146 OFFCURVE",
"171 71 CURVE SMOOTH",
"142 -3 OFFCURVE",
"92 -59 OFFCURVE",
"33 -70 CURVE",
"33 -112 LINE"
);
}
);
width = 360;
}
);
note = parenright;
unicode = 0029;
},
{
glyphname = hyphen;
layers = (
{
layerId = "EE746D13-63D7-48F9-B77E-C723CA6A668B";
paths = (
{
closed = 1;
nodes = (
"359 267 LINE",
"359 334 LINE",
"75 334 LINE",
"75 267 LINE"
);
}
);
width = 434;
}
);
leftKerningGroup = hyphen;
note = hyphen;
unicode = 002D;
},
{
glyphname = uni00AD;
layers = (
{
layerId = "EE746D13-63D7-48F9-B77E-C723CA6A668B";
paths = (
{
closed = 1;
nodes = (
"398 317 LINE",
"398 389 LINE",
"75 389 LINE",
"75 317 LINE"
);
}
);
width = 474;
}
);
note = uni00AD;
unicode = 00AD;
},
{
glyphname = guillemotleft;
layers = (
{
layerId = "EE746D13-63D7-48F9-B77E-C723CA6A668B";
paths = (
{
closed = 1;
nodes = (
"227 237 LINE",
"109 328 LINE",
"227 413 LINE",
"227 518 LINE",
"38 357 LINE",
"38 291 LINE",
"227 126 LINE"
);
},
{
closed = 1;
nodes = (
"431 237 LINE",
"313 328 LINE",
"431 413 LINE",
"431 518 LINE",
"242 357 LINE",
"242 291 LINE",
"431 126 LINE"
);
}
);
width = 472;
}
);
note = guillemotleft;
unicode = 00AB;
},
{
glyphname = guillemotright;
layers = (
{
layerId = "EE746D13-63D7-48F9-B77E-C723CA6A668B";
paths = (
{
closed = 1;
nodes = (
"434 291 LINE",
"434 357 LINE",
"245 518 LINE",
"245 413 LINE",
"362 328 LINE",
"245 237 LINE",
"245 126 LINE"
);
},
{
closed = 1;
nodes = (
"230 291 LINE",
"230 357 LINE",
"41 518 LINE",
"41 413 LINE",
"158 328 LINE",
"41 237 LINE",
"41 126 LINE"
);
}
);
width = 472;
}
);
note = guillemotright;
unicode = 00BB;
},
{
glyphname = guilsinglleft;
layers = (
{
layerId = "EE746D13-63D7-48F9-B77E-C723CA6A668B";
paths = (
{
closed = 1;
nodes = (
"227 237 LINE",
"110 328 LINE",
"227 413 LINE",
"227 518 LINE",
"199 494 OFFCURVE",
"136 440 OFFCURVE",
"38 357 CURVE",
"38 291 LINE",
"227 126 LINE"
);
}
);
width = 268;
}
);
note = guilsinglleft;
unicode = 2039;
},
{
glyphname = guilsinglright;
layers = (
{
layerId = "EE746D13-63D7-48F9-B77E-C723CA6A668B";
paths = (
{
closed = 1;
nodes = (
"230 291 LINE",
"230 357 LINE",
"41 518 LINE",
"41 413 LINE",
"158 328 LINE",
"41 237 LINE",
"41 126 LINE"
);
}
);
width = 268;
}
);
note = guilsinglright;
unicode = 203A;
},
{
glyphname = quotedblbase;
layers = (
{
layerId = "EE746D13-63D7-48F9-B77E-C723CA6A668B";
paths = (
{
closed = 1;
nodes = (
"247 -194 OFFCURVE",
"270 -26 OFFCURVE",
"270 17 CURVE SMOOTH",
"270 43 OFFCURVE",
"256 56 OFFCURVE",
"229 56 CURVE SMOOTH",
"202 56 OFFCURVE",
"187 40 OFFCURVE",
"187 17 CURVE SMOOTH",
"187 -29 OFFCURVE",
"209 -194 OFFCURVE",
"229 -194 CURVE SMOOTH"
);
},
{
closed = 1;
nodes = (
"130 -194 OFFCURVE",
"153 -26 OFFCURVE",
"153 17 CURVE SMOOTH",
"153 43 OFFCURVE",
"139 56 OFFCURVE",
"112 56 CURVE SMOOTH",
"85 56 OFFCURVE",
"70 40 OFFCURVE",
"70 17 CURVE SMOOTH",
"70 -27 OFFCURVE",
"93 -194 OFFCURVE",
"112 -194 CURVE SMOOTH"
);
}
);
width = 339;
}
);
note = quotedblbase;
unicode = 201E;
},
{
glyphname = quotedblleft;
layers = (
{
layerId = "EE746D13-63D7-48F9-B77E-C723CA6A668B";
paths = (
{
closed = 1;
nodes = (
"188 510 OFFCURVE",
"223 542 OFFCURVE",
"223 577 CURVE SMOOTH",
"223 608 OFFCURVE",
"193 639 OFFCURVE",
"163 639 CURVE SMOOTH",
"149 639 OFFCURVE",
"136 635 OFFCURVE",
"125 627 CURVE",
"122 630 OFFCURVE",
"121 635 OFFCURVE",
"121 641 CURVE SMOOTH",
"121 665 OFFCURVE",
"150 696 OFFCURVE",
"179 714 CURVE",
"157 750 LINE",
"126 719 LINE SMOOTH",
"114 707 OFFCURVE",
"91 680 OFFCURVE",
"84 665 CURVE SMOOTH",
"76 650 OFFCURVE",
"69 629 OFFCURVE",
"69 607 CURVE SMOOTH",
"69 545 OFFCURVE",
"112 510 OFFCURVE",
"154 510 CURVE SMOOTH"
);
},
{
closed = 1;
nodes = (
"363 510 OFFCURVE",
"397 542 OFFCURVE",
"397 577 CURVE SMOOTH",
"397 608 OFFCURVE",
"368 639 OFFCURVE",
"337 639 CURVE SMOOTH",
"324 639 OFFCURVE",
"311 635 OFFCURVE",
"299 627 CURVE",
"297 630 OFFCURVE",
"295 635 OFFCURVE",
"295 641 CURVE SMOOTH",
"295 665 OFFCURVE",
"325 696 OFFCURVE",
"354 714 CURVE",
"332 750 LINE",
"298 716 OFFCURVE",
"287 705 OFFCURVE",
"269 680 CURVE SMOOTH",
"250 655 OFFCURVE",
"245 634 OFFCURVE",
"245 607 CURVE SMOOTH",
"245 545 OFFCURVE",
"287 510 OFFCURVE",
"330 510 CURVE SMOOTH"
);
}
);
width = 465;
}
);
note = quotedblleft;
unicode = 201C;
},
{
glyphname = quotedblright;
layers = (
{
layerId = "EE746D13-63D7-48F9-B77E-C723CA6A668B";
paths = (
{
closed = 1;
nodes = (
"170 546 OFFCURVE",
"178 554 OFFCURVE",
"197 580 CURVE SMOOTH",
"216 605 OFFCURVE",
"221 625 OFFCURVE",
"221 653 CURVE SMOOTH",
"221 715 OFFCURVE",
"178 750 OFFCURVE",
"136 750 CURVE SMOOTH",
"102 750 OFFCURVE",
"68 718 OFFCURVE",
"68 683 CURVE SMOOTH",
"68 652 OFFCURVE",
"97 621 OFFCURVE",
"128 621 CURVE SMOOTH",
"142 621 OFFCURVE",
"155 625 OFFCURVE",
"166 633 CURVE",
"168 629 OFFCURVE",
"170 625 OFFCURVE",
"170 619 CURVE SMOOTH",
"170 595 OFFCURVE",
"141 563 OFFCURVE",
"112 546 CURVE",
"134 510 LINE"
);
},
{
closed = 1;
nodes = (
"345 545 OFFCURVE",
"354 554 OFFCURVE",
"373 580 CURVE SMOOTH",
"392 605 OFFCURVE",
"397 625 OFFCURVE",
"397 653 CURVE SMOOTH",
"397 715 OFFCURVE",
"354 750 OFFCURVE",
"312 750 CURVE SMOOTH",
"278 750 OFFCURVE",
"244 718 OFFCURVE",
"244 683 CURVE SMOOTH",
"244 652 OFFCURVE",
"273 621 OFFCURVE",
"304 621 CURVE SMOOTH",
"318 621 OFFCURVE",
"331 625 OFFCURVE",
"342 633 CURVE",
"345 629 OFFCURVE",
"346 625 OFFCURVE",
"346 619 CURVE SMOOTH",
"346 595 OFFCURVE",
"317 563 OFFCURVE",
"288 546 CURVE",
"310 510 LINE"
);
}
);
width = 466;
}
);
leftKerningGroup = quotedblright;
note = quotedblright;
unicode = 201D;
},
{
glyphname = quoteleft;
layers = (
{
layerId = "EE746D13-63D7-48F9-B77E-C723CA6A668B";
paths = (
{
closed = 1;
nodes = (
"188 510 OFFCURVE",
"222 542 OFFCURVE",
"222 577 CURVE SMOOTH",
"222 608 OFFCURVE",
"193 639 OFFCURVE",
"162 639 CURVE SMOOTH",
"149 639 OFFCURVE",
"136 635 OFFCURVE",
"125 627 CURVE",
"122 631 OFFCURVE",
"120 636 OFFCURVE",
"120 641 CURVE SMOOTH",
"120 665 OFFCURVE",
"149 696 OFFCURVE",
"178 714 CURVE",
"156 750 LINE",
"123 716 OFFCURVE",
"111 705 OFFCURVE",
"93 680 CURVE SMOOTH",
"75 655 OFFCURVE",
"69 634 OFFCURVE",
"69 607 CURVE SMOOTH",
"69 545 OFFCURVE",
"112 510 OFFCURVE",
"154 510 CURVE SMOOTH"
);
}
);
width = 290;
}
);
note = quoteleft;
unicode = 2018;
},
{
glyphname = quoteright;
layers = (
{
layerId = "EE746D13-63D7-48F9-B77E-C723CA6A668B";
paths = (
{
closed = 1;
nodes = (
"169 545 OFFCURVE",
"178 554 OFFCURVE",
"197 580 CURVE SMOOTH",
"216 605 OFFCURVE",
"221 625 OFFCURVE",
"221 653 CURVE SMOOTH",
"221 715 OFFCURVE",
"179 750 OFFCURVE",
"136 750 CURVE SMOOTH",
"103 750 OFFCURVE",
"68 718 OFFCURVE",
"68 683 CURVE SMOOTH",
"68 652 OFFCURVE",
"97 621 OFFCURVE",
"128 621 CURVE SMOOTH",
"142 621 OFFCURVE",
"155 625 OFFCURVE",
"166 633 CURVE",
"168 629 OFFCURVE",
"170 625 OFFCURVE",
"170 619 CURVE SMOOTH",
"170 595 OFFCURVE",
"141 563 OFFCURVE",
"112 546 CURVE",
"134 510 LINE"
);
}
);
width = 290;
}
);
leftKerningGroup = quoteright;
note = quoteright;
unicode = 2019;
},
{
glyphname = quotesinglbase;
layers = (
{
layerId = "EE746D13-63D7-48F9-B77E-C723CA6A668B";
paths = (
{
closed = 1;
nodes = (
"130 -194 OFFCURVE",
"153 -26 OFFCURVE",
"153 17 CURVE SMOOTH",
"153 43 OFFCURVE",
"139 56 OFFCURVE",
"112 56 CURVE SMOOTH",
"85 56 OFFCURVE",
"70 40 OFFCURVE",
"70 17 CURVE SMOOTH",
"70 -27 OFFCURVE",
"93 -194 OFFCURVE",
"112 -194 CURVE SMOOTH"
);
}
);
width = 222;
}
);
note = quotesinglbase;
unicode = 201A;
},
{
glyphname = Euro;
layers = (
{
guideLines = (
{
angle = 90;
position = "{489, 667}";
}
);
layerId = "EE746D13-63D7-48F9-B77E-C723CA6A668B";
paths = (
{
closed = 1;
nodes = (
"669 143 OFFCURVE",
"606 64 OFFCURVE",
"476 64 CURVE SMOOTH",
"369 64 OFFCURVE",
"308 140 OFFCURVE",
"284 247 CURVE",
"489 247 LINE",
"489 315 LINE",
"274 315 LINE",
"273 332 OFFCURVE",
"272 349 OFFCURVE",
"272 366 CURVE SMOOTH",
"272 380 OFFCURVE",
"273 394 OFFCURVE",
"273 407 CURVE",
"489 407 LINE",
"489 473 LINE",
"283 473 LINE",
"311 596 OFFCURVE",
"388 667 OFFCURVE",
"489 667 CURVE SMOOTH",
"576 667 OFFCURVE",
"631 631 OFFCURVE",
"658 577 CURVE",
"623 577 OFFCURVE",
"581 554 OFFCURVE",
"581 509 CURVE SMOOTH",
"581 464 OFFCURVE",
"610 438 OFFCURVE",
"658 438 CURVE SMOOTH",
"707 438 OFFCURVE",
"740 477 OFFCURVE",
"740 527 CURVE SMOOTH",
"740 648 OFFCURVE",
"621 735 OFFCURVE",
"490 735 CURVE SMOOTH",
"317 735 OFFCURVE",
"195 632 OFFCURVE",
"158 473 CURVE",
"39 473 LINE",
"39 407 LINE",
"148 407 LINE",
"147 394 OFFCURVE",
"147 381 OFFCURVE",
"147 368 CURVE SMOOTH",
"147 350 OFFCURVE",
"148 332 OFFCURVE",
"150 315 CURVE",
"39 315 LINE",
"39 247 LINE",
"161 247 LINE",
"198 99 OFFCURVE",
"306 -13 OFFCURVE",
"474 -13 CURVE SMOOTH",
"621 -13 OFFCURVE",
"725 68 OFFCURVE",
"765 223 CURVE",
"700 255 LINE"
);
}
);
width = 813;
}
);
note = Euro;
unicode = 20AC;
},
{
glyphname = cent;
layers = (
{
layerId = "EE746D13-63D7-48F9-B77E-C723CA6A668B";
paths = (
{
closed = 1;
nodes = (
"316 -104 LINE",
"316 -13 LINE",
"423 -3 OFFCURVE",
"496 64 OFFCURVE",
"519 163 CURVE",
"464 181 LINE",
"458 160 OFFCURVE",
"441 136 OFFCURVE",
"417 111 CURVE SMOOTH",
"392 86 OFFCURVE",
"354 67 OFFCURVE",
"316 66 CURVE",
"316 483 LINE",
"318 483 LINE SMOOTH",
"369 483 OFFCURVE",
"410 458 OFFCURVE",
"431 424 CURVE",
"391 424 OFFCURVE",
"356 399 OFFCURVE",
"356 357 CURVE SMOOTH",
"356 315 OFFCURVE",
"389 288 OFFCURVE",
"431 288 CURVE SMOOTH",
"479 288 OFFCURVE",
"508 328 OFFCURVE",
"508 367 CURVE SMOOTH",
"508 420 OFFCURVE",
"482 466 OFFCURVE",
"445 493 CURVE SMOOTH",
"407 520 OFFCURVE",
"362 536 OFFCURVE",
"316 539 CURVE",
"316 630 LINE",
"273 630 LINE",
"273 538 LINE",
"223 534 OFFCURVE",
"179 518 OFFCURVE",
"143 489 CURVE SMOOTH",
"70 433 OFFCURVE",
"36 348 OFFCURVE",
"36 252 CURVE SMOOTH",
"36 99 OFFCURVE",
"137 -6 OFFCURVE",
"273 -14 CURVE",
"273 -104 LINE"
);
},
{
closed = 1;
nodes = (
"193 87 OFFCURVE",
"147 159 OFFCURVE",
"147 268 CURVE SMOOTH",
"147 299 OFFCURVE",
"151 329 OFFCURVE",
"160 357 CURVE SMOOTH",
"177 413 OFFCURVE",
"218 461 OFFCURVE",
"273 477 CURVE",
"273 70 LINE"
);
}
);
width = 560;
}
);
note = cent;
unicode = 00A2;
},
{
glyphname = currency;
layers = (
{
layerId = "EE746D13-63D7-48F9-B77E-C723CA6A668B";
paths = (
{
closed = 1;
nodes = (
"351 279 OFFCURVE",
"399 295 OFFCURVE",
"438 328 CURVE",
"484 282 LINE",
"513 311 LINE",
"467 357 LINE",
"498 397 OFFCURVE",
"514 445 OFFCURVE",
"514 498 CURVE SMOOTH",
"514 555 OFFCURVE",
"498 604 OFFCURVE",
"465 644 CURVE",
"513 692 LINE",
"484 721 LINE",
"436 673 LINE",
"397 705 OFFCURVE",
"350 721 OFFCURVE",
"293 721 CURVE SMOOTH",
"236 721 OFFCURVE",
"188 706 OFFCURVE",
"150 674 CURVE",
"103 721 LINE",
"74 692 LINE",
"120 646 LINE",
"86 605 OFFCURVE",
"70 556 OFFCURVE",
"70 500 CURVE SMOOTH",
"70 445 OFFCURVE",
"86 397 OFFCURVE",
"119 356 CURVE",
"74 311 LINE",
"103 282 LINE",
"148 327 LINE",
"189 295 OFFCURVE",
"238 279 OFFCURVE",
"294 279 CURVE SMOOTH"
);
},
{
closed = 1;
nodes = (
"202 335 OFFCURVE",
"139 397 OFFCURVE",
"139 498 CURVE SMOOTH",
"139 602 OFFCURVE",
"202 668 OFFCURVE",
"293 668 CURVE SMOOTH",
"338 668 OFFCURVE",
"375 653 OFFCURVE",
"404 622 CURVE SMOOTH",
"433 591 OFFCURVE",
"447 550 OFFCURVE",
"447 498 CURVE SMOOTH",
"447 398 OFFCURVE",
"384 335 OFFCURVE",
"294 335 CURVE SMOOTH"
);
}
);
width = 584;
}
);
note = currency;
unicode = 00A4;
},
{
glyphname = dollar;
layers = (
{
layerId = "EE746D13-63D7-48F9-B77E-C723CA6A668B";
paths = (
{
closed = 1;
nodes = (
"509 -13 OFFCURVE",
"620 72 OFFCURVE",
"620 186 CURVE SMOOTH",
"620 325 OFFCURVE",
"501 372 OFFCURVE",
"331 421 CURVE SMOOTH",
"240 447 OFFCURVE",
"155 465 OFFCURVE",
"155 548 CURVE SMOOTH",
"155 624 OFFCURVE",
"245 667 OFFCURVE",
"336 667 CURVE SMOOTH",
"407 667 OFFCURVE",
"463 652 OFFCURVE",
"501 621 CURVE",
"465 621 OFFCURVE",
"434 597 OFFCURVE",
"434 550 CURVE SMOOTH",
"434 504 OFFCURVE",
"473 476 OFFCURVE",
"516 476 CURVE SMOOTH",
"569 476 OFFCURVE",
"599 517 OFFCURVE",
"599 569 CURVE SMOOTH",
"599 685 OFFCURVE",
"445 735 OFFCURVE",
"324 735 CURVE SMOOTH",
"158 735 OFFCURVE",
"48 648 OFFCURVE",
"48 528 CURVE SMOOTH",
"48 407 OFFCURVE",
"142 360 OFFCURVE",
"305 314 CURVE SMOOTH",
"429 279 OFFCURVE",
"513 251 OFFCURVE",
"513 169 CURVE SMOOTH",
"513 91 OFFCURVE",
"416 55 OFFCURVE",
"319 55 CURVE SMOOTH",
"239 55 OFFCURVE",
"176 83 OFFCURVE",
"141 115 CURVE",
"183 120 OFFCURVE",
"210 154 OFFCURVE",
"210 197 CURVE SMOOTH",
"210 233 OFFCURVE",
"176 267 OFFCURVE",
"132 267 CURVE SMOOTH",
"85 267 OFFCURVE",
"44 228 OFFCURVE",
"44 174 CURVE SMOOTH",
"44 55 OFFCURVE",
"182 -13 OFFCURVE",
"325 -13 CURVE SMOOTH"
);
},
{
closed = 1;
nodes = (
"302 -93 LINE",
"359 -93 LINE",
"359 810 LINE",
"302 810 LINE"
);
}
);
width = 681;
}
);
note = dollar;
unicode = 0024;
},
{
glyphname = florin;
layers = (
{
layerId = "EE746D13-63D7-48F9-B77E-C723CA6A668B";
paths = (
{
closed = 1;
nodes = (
"60 -190 OFFCURVE",
"106 -171 OFFCURVE",
"138 -128 CURVE SMOOTH",
"169 -85 OFFCURVE",
"186 -29 OFFCURVE",
"196 57 CURVE SMOOTH",
"247 467 LINE",
"399 467 LINE",
"410 524 LINE",
"250 524 LINE",
"260 597 LINE SMOOTH",
"272 694 OFFCURVE",
"290 732 OFFCURVE",
"344 732 CURVE SMOOTH",
"356 732 OFFCURVE",
"367 730 OFFCURVE",
"377 727 CURVE",
"358 706 OFFCURVE",
"349 686 OFFCURVE",
"349 666 CURVE SMOOTH",
"349 633 OFFCURVE",
"375 608 OFFCURVE",
"408 608 CURVE SMOOTH",
"453 608 OFFCURVE",
"490 634 OFFCURVE",
"490 689 CURVE SMOOTH",
"490 738 OFFCURVE",
"441 773 OFFCURVE",
"355 773 CURVE SMOOTH",
"286 773 OFFCURVE",
"239 754 OFFCURVE",
"208 711 CURVE SMOOTH",
"176 668 OFFCURVE",
"159 612 OFFCURVE",
"148 524 CURVE",
"53 524 LINE",
"46 467 LINE",
"142 467 LINE",
"82 -24 LINE SMOOTH",
"70 -112 OFFCURVE",
"40 -149 OFFCURVE",
"-18 -149 CURVE SMOOTH",
"-29 -149 OFFCURVE",
"-41 -147 OFFCURVE",
"-51 -143 CURVE",
"-24 -120 OFFCURVE",
"-10 -95 OFFCURVE",
"-10 -68 CURVE SMOOTH",
"-10 -36 OFFCURVE",
"-38 -15 OFFCURVE",
"-71 -15 CURVE SMOOTH",
"-116 -15 OFFCURVE",
"-154 -44 OFFCURVE",
"-154 -99 CURVE SMOOTH",
"-154 -150 OFFCURVE",
"-106 -190 OFFCURVE",
"-8 -190 CURVE SMOOTH"
);
}
);
width = 384;
}
);
note = florin;
unicode = 0192;
},
{
glyphname = sterling;
layers = (
{
guideLines = (
{
position = "{535, 187}";
},
{
angle = 90;
position = "{50, 55}";
},
{
angle = 90;
position = "{572, 598}";
}
);
layerId = "EE746D13-63D7-48F9-B77E-C723CA6A668B";
paths = (
{
closed = 1;
nodes = (
"193 106 OFFCURVE",
"268 217 OFFCURVE",
"268 323 CURVE",
"414 322 LINE",
"414 381 LINE",
"261 381 LINE",
"248 441 OFFCURVE",
"186 512 OFFCURVE",
"186 577 CURVE SMOOTH",
"186 648 OFFCURVE",
"246 695 OFFCURVE",
"333 695 CURVE SMOOTH",
"400 695 OFFCURVE",
"439 676 OFFCURVE",
"466 647 CURVE",
"441 643 OFFCURVE",
"406 610 OFFCURVE",
"406 575 CURVE SMOOTH",
"406 534 OFFCURVE",
"445 506 OFFCURVE",
"488 506 CURVE SMOOTH",
"538 506 OFFCURVE",
"571 544 OFFCURVE",
"571 595 CURVE SMOOTH",
"571 685 OFFCURVE",
"471 750 OFFCURVE",
"329 750 CURVE SMOOTH",
"176 750 OFFCURVE",
"71 679 OFFCURVE",
"71 577 CURVE SMOOTH",
"71 513 OFFCURVE",
"134 443 OFFCURVE",
"146 381 CURVE",
"30 381 LINE",
"30 322 LINE",
"153 322 LINE",
"153 203 OFFCURVE",
"88 110 OFFCURVE",
"30 43 CURVE",
"83 -13 LINE"
);
},
{
closed = 1;
nodes = (
"534 187 LINE",
"534 105 OFFCURVE",
"507 81 OFFCURVE",
"466 81 CURVE SMOOTH",
"401 81 OFFCURVE",
"374 126 OFFCURVE",
"272 126 CURVE SMOOTH",
"207 126 OFFCURVE",
"131 97 OFFCURVE",
"64 20 CURVE",
"83 -13 LINE",
"141 40 OFFCURVE",
"184 51 OFFCURVE",
"246 51 CURVE SMOOTH",
"340 51 OFFCURVE",
"378 -14 OFFCURVE",
"451 -14 CURVE SMOOTH",
"547 -14 OFFCURVE",
"588 49 OFFCURVE",
"588 187 CURVE"
);
}
);
width = 603;
}
);
note = sterling;
unicode = 00A3;
},
{
glyphname = yen;
layers = (
{
layerId = "EE746D13-63D7-48F9-B77E-C723CA6A668B";
paths = (
{
closed = 1;
nodes = (
"447 650 LINE",
"556 650 LINE",
"391 352 LINE",
"231 650 LINE",
"343 650 LINE",
"343 720 LINE",
"16 720 LINE",
"16 650 LINE",
"116 650 LINE",
"286 354 LINE",
"123 354 LINE",
"123 288 LINE",
"326 288 LINE",
"326 218 LINE",
"123 218 LINE",
"123 150 LINE",
"326 150 LINE",
"326 70 LINE",
"183 70 LINE",
"183 0 LINE",
"569 0 LINE",
"569 70 LINE",
"432 70 LINE",
"432 150 LINE",
"633 150 LINE",
"633 218 LINE",
"432 218 LINE",
"432 288 LINE",
"633 288 LINE",
"633 354 LINE",
"475 354 LINE",
"651 650 LINE",
"743 650 LINE",
"743 720 LINE",
"447 720 LINE"
);
}
);
width = 782;
}
);
note = yen;
unicode = 00A5;
},
{
glyphname = plus;
layers = (
{
layerId = "EE746D13-63D7-48F9-B77E-C723CA6A668B";
paths = (
{
closed = 1;
nodes = (
"317 76 LINE",
"317 260 LINE",
"479 260 LINE",
"479 332 LINE",
"317 332 LINE",
"317 511 LINE",
"234 511 LINE",
"234 332 LINE",
"72 332 LINE",
"72 260 LINE",
"234 260 LINE",
"234 76 LINE"
);
}
);
width = 552;
}
);
note = plus;
unicode = 002B;
},
{
glyphname = minus;
layers = (
{
layerId = "EE746D13-63D7-48F9-B77E-C723CA6A668B";
paths = (
{
closed = 1;
nodes = (
"359 267 LINE",
"359 347 LINE",
"75 347 LINE",
"75 267 LINE"
);
}
);
width = 434;
}
);
note = minus;
unicode = 2212;
},
